G04 #@! TF.GenerationSoftware,KiCad,Pcbnew,(5.0.0)*
G04 #@! TF.CreationDate,2018-11-08T10:35:27-05:00*
G04 #@! TF.ProjectId,Tarjeta de potencia con moc,5461726A65746120646520706F74656E,rev?*
G04 #@! TF.SameCoordinates,Original*
G04 #@! TF.FileFunction,Soldermask,Top*
G04 #@! TF.FilePolarity,Negative*
%FSLAX46Y46*%
G04 Gerber Fmt 4.6, Leading zero omitted, Abs format (unit mm)*
G04 Created by KiCad (PCBNEW (5.0.0)) date 11/08/18 10:35:27*
%MOMM*%
%LPD*%
G01*
G04 APERTURE LIST*
%ADD10C,0.125000*%
%ADD11C,2.200000*%
%ADD12C,2.200000*%
%ADD13O,2.200000X2.200000*%
%ADD14R,2.200000X2.200000*%
%ADD15C,0.100000*%
%ADD16C,1.600000*%
%ADD17R,2.000000X2.000000*%
%ADD18R,3.400000X3.400000*%
%ADD19C,3.400000*%
G04 APERTURE END LIST*
D10*
X89055200Y-28594857D02*
X89055200Y-28928190D01*
X89174247Y-28404380D02*
X89293295Y-28761523D01*
X88983771Y-28761523D01*
X88817104Y-28475809D02*
X88793295Y-28452000D01*
X88745676Y-28428190D01*
X88626628Y-28428190D01*
X88579009Y-28452000D01*
X88555200Y-28475809D01*
X88531390Y-28523428D01*
X88531390Y-28571047D01*
X88555200Y-28642476D01*
X88840914Y-28928190D01*
X88531390Y-28928190D01*
X88364723Y-28428190D02*
X88055200Y-28428190D01*
X88221866Y-28618666D01*
X88150438Y-28618666D01*
X88102819Y-28642476D01*
X88079009Y-28666285D01*
X88055200Y-28713904D01*
X88055200Y-28832952D01*
X88079009Y-28880571D01*
X88102819Y-28904380D01*
X88150438Y-28928190D01*
X88293295Y-28928190D01*
X88340914Y-28904380D01*
X88364723Y-28880571D01*
X87602819Y-28428190D02*
X87840914Y-28428190D01*
X87864723Y-28666285D01*
X87840914Y-28642476D01*
X87793295Y-28618666D01*
X87674247Y-28618666D01*
X87626628Y-28642476D01*
X87602819Y-28666285D01*
X87579009Y-28713904D01*
X87579009Y-28832952D01*
X87602819Y-28880571D01*
X87626628Y-28904380D01*
X87674247Y-28928190D01*
X87793295Y-28928190D01*
X87840914Y-28904380D01*
X87864723Y-28880571D01*
X87412342Y-28428190D02*
X87102819Y-28428190D01*
X87269485Y-28618666D01*
X87198057Y-28618666D01*
X87150438Y-28642476D01*
X87126628Y-28666285D01*
X87102819Y-28713904D01*
X87102819Y-28832952D01*
X87126628Y-28880571D01*
X87150438Y-28904380D01*
X87198057Y-28928190D01*
X87340914Y-28928190D01*
X87388533Y-28904380D01*
X87412342Y-28880571D01*
X86674247Y-28594857D02*
X86674247Y-28928190D01*
X86793295Y-28404380D02*
X86912342Y-28761523D01*
X86602819Y-28761523D01*
X86198057Y-28428190D02*
X86293295Y-28428190D01*
X86340914Y-28452000D01*
X86364723Y-28475809D01*
X86412342Y-28547238D01*
X86436152Y-28642476D01*
X86436152Y-28832952D01*
X86412342Y-28880571D01*
X86388533Y-28904380D01*
X86340914Y-28928190D01*
X86245676Y-28928190D01*
X86198057Y-28904380D01*
X86174247Y-28880571D01*
X86150438Y-28832952D01*
X86150438Y-28713904D01*
X86174247Y-28666285D01*
X86198057Y-28642476D01*
X86245676Y-28618666D01*
X86340914Y-28618666D01*
X86388533Y-28642476D01*
X86412342Y-28666285D01*
X86436152Y-28713904D01*
X85698057Y-28428190D02*
X85936152Y-28428190D01*
X85959961Y-28666285D01*
X85936152Y-28642476D01*
X85888533Y-28618666D01*
X85769485Y-28618666D01*
X85721866Y-28642476D01*
X85698057Y-28666285D01*
X85674247Y-28713904D01*
X85674247Y-28832952D01*
X85698057Y-28880571D01*
X85721866Y-28904380D01*
X85769485Y-28928190D01*
X85888533Y-28928190D01*
X85936152Y-28904380D01*
X85959961Y-28880571D01*
X85507580Y-28428190D02*
X85174247Y-28428190D01*
X85388533Y-28928190D01*
X84745676Y-28428190D02*
X84983771Y-28428190D01*
X85007580Y-28666285D01*
X84983771Y-28642476D01*
X84936152Y-28618666D01*
X84817104Y-28618666D01*
X84769485Y-28642476D01*
X84745676Y-28666285D01*
X84721866Y-28713904D01*
X84721866Y-28832952D01*
X84745676Y-28880571D01*
X84769485Y-28904380D01*
X84817104Y-28928190D01*
X84936152Y-28928190D01*
X84983771Y-28904380D01*
X85007580Y-28880571D01*
X84293295Y-28594857D02*
X84293295Y-28928190D01*
X84412342Y-28404380D02*
X84531390Y-28761523D01*
X84221866Y-28761523D01*
X84079009Y-28428190D02*
X83745676Y-28428190D01*
X83959961Y-28928190D01*
X83602819Y-28428190D02*
X83269485Y-28428190D01*
X83483771Y-28928190D01*
X83007580Y-28642476D02*
X83055200Y-28618666D01*
X83079009Y-28594857D01*
X83102819Y-28547238D01*
X83102819Y-28523428D01*
X83079009Y-28475809D01*
X83055200Y-28452000D01*
X83007580Y-28428190D01*
X82912342Y-28428190D01*
X82864723Y-28452000D01*
X82840914Y-28475809D01*
X82817104Y-28523428D01*
X82817104Y-28547238D01*
X82840914Y-28594857D01*
X82864723Y-28618666D01*
X82912342Y-28642476D01*
X83007580Y-28642476D01*
X83055200Y-28666285D01*
X83079009Y-28690095D01*
X83102819Y-28737714D01*
X83102819Y-28832952D01*
X83079009Y-28880571D01*
X83055200Y-28904380D01*
X83007580Y-28928190D01*
X82912342Y-28928190D01*
X82864723Y-28904380D01*
X82840914Y-28880571D01*
X82817104Y-28832952D01*
X82817104Y-28737714D01*
X82840914Y-28690095D01*
X82864723Y-28666285D01*
X82912342Y-28642476D01*
D11*
G04 #@! TO.C,R10*
X90043000Y-73914000D03*
D12*
X90043000Y-73914000D02*
X90043000Y-73914000D01*
D11*
X82858795Y-81098205D03*
G04 #@! TD*
G04 #@! TO.C,R9*
X90115205Y-62856295D03*
D12*
X90115205Y-62856295D02*
X90115205Y-62856295D01*
D11*
X82931000Y-70040500D03*
G04 #@! TD*
G04 #@! TO.C,R8*
X90115205Y-52251795D03*
D12*
X90115205Y-52251795D02*
X90115205Y-52251795D01*
D11*
X82931000Y-59436000D03*
G04 #@! TD*
G04 #@! TO.C,R7*
X90115205Y-41774295D03*
D12*
X90115205Y-41774295D02*
X90115205Y-41774295D01*
D11*
X82931000Y-48958500D03*
G04 #@! TD*
G04 #@! TO.C,R6*
X90178705Y-31169795D03*
D12*
X90178705Y-31169795D02*
X90178705Y-31169795D01*
D11*
X82994500Y-38354000D03*
G04 #@! TD*
G04 #@! TO.C,R5*
X69541205Y-73270295D03*
D12*
X69541205Y-73270295D02*
X69541205Y-73270295D01*
D11*
X62357000Y-80454500D03*
G04 #@! TD*
G04 #@! TO.C,R4*
X69541205Y-62411795D03*
D12*
X69541205Y-62411795D02*
X69541205Y-62411795D01*
D11*
X62357000Y-69596000D03*
G04 #@! TD*
G04 #@! TO.C,R3*
X69541205Y-51680295D03*
D12*
X69541205Y-51680295D02*
X69541205Y-51680295D01*
D11*
X62357000Y-58864500D03*
G04 #@! TD*
G04 #@! TO.C,R2*
X69541205Y-41075795D03*
D12*
X69541205Y-41075795D02*
X69541205Y-41075795D01*
D11*
X62357000Y-48260000D03*
G04 #@! TD*
G04 #@! TO.C,R1*
X69541205Y-30407795D03*
D12*
X69541205Y-30407795D02*
X69541205Y-30407795D01*
D11*
X62357000Y-37592000D03*
G04 #@! TD*
D13*
G04 #@! TO.C,U10*
X99758500Y-77025500D03*
X97218500Y-77025500D03*
D14*
X94678500Y-77025500D03*
G04 #@! TD*
D13*
G04 #@! TO.C,U9*
X99822000Y-65976500D03*
X97282000Y-65976500D03*
D14*
X94742000Y-65976500D03*
G04 #@! TD*
G04 #@! TO.C,U8*
X94742000Y-55372000D03*
D13*
X97282000Y-55372000D03*
X99822000Y-55372000D03*
G04 #@! TD*
G04 #@! TO.C,U7*
X99822000Y-44894500D03*
X97282000Y-44894500D03*
D14*
X94742000Y-44894500D03*
G04 #@! TD*
D15*
G04 #@! TO.C,U5*
G36*
X81039707Y-73179426D02*
X81078536Y-73185186D01*
X81116614Y-73194724D01*
X81153573Y-73207948D01*
X81189059Y-73224731D01*
X81222728Y-73244912D01*
X81254257Y-73268296D01*
X81283343Y-73294657D01*
X81309704Y-73323743D01*
X81333088Y-73355272D01*
X81353269Y-73388941D01*
X81370052Y-73424427D01*
X81383276Y-73461386D01*
X81392814Y-73499464D01*
X81398574Y-73538293D01*
X81400500Y-73577500D01*
X81400500Y-74377500D01*
X81398574Y-74416707D01*
X81392814Y-74455536D01*
X81383276Y-74493614D01*
X81370052Y-74530573D01*
X81353269Y-74566059D01*
X81333088Y-74599728D01*
X81309704Y-74631257D01*
X81283343Y-74660343D01*
X81254257Y-74686704D01*
X81222728Y-74710088D01*
X81189059Y-74730269D01*
X81153573Y-74747052D01*
X81116614Y-74760276D01*
X81078536Y-74769814D01*
X81039707Y-74775574D01*
X81000500Y-74777500D01*
X79400500Y-74777500D01*
X79361293Y-74775574D01*
X79322464Y-74769814D01*
X79284386Y-74760276D01*
X79247427Y-74747052D01*
X79211941Y-74730269D01*
X79178272Y-74710088D01*
X79146743Y-74686704D01*
X79117657Y-74660343D01*
X79091296Y-74631257D01*
X79067912Y-74599728D01*
X79047731Y-74566059D01*
X79030948Y-74530573D01*
X79017724Y-74493614D01*
X79008186Y-74455536D01*
X79002426Y-74416707D01*
X79000500Y-74377500D01*
X79000500Y-73577500D01*
X79002426Y-73538293D01*
X79008186Y-73499464D01*
X79017724Y-73461386D01*
X79030948Y-73424427D01*
X79047731Y-73388941D01*
X79067912Y-73355272D01*
X79091296Y-73323743D01*
X79117657Y-73294657D01*
X79146743Y-73268296D01*
X79178272Y-73244912D01*
X79211941Y-73224731D01*
X79247427Y-73207948D01*
X79284386Y-73194724D01*
X79322464Y-73185186D01*
X79361293Y-73179426D01*
X79400500Y-73177500D01*
X81000500Y-73177500D01*
X81039707Y-73179426D01*
X81039707Y-73179426D01*
G37*
D16*
X80200500Y-73977500D03*
D15*
G36*
X73419707Y-78259426D02*
X73458536Y-78265186D01*
X73496614Y-78274724D01*
X73533573Y-78287948D01*
X73569059Y-78304731D01*
X73602728Y-78324912D01*
X73634257Y-78348296D01*
X73663343Y-78374657D01*
X73689704Y-78403743D01*
X73713088Y-78435272D01*
X73733269Y-78468941D01*
X73750052Y-78504427D01*
X73763276Y-78541386D01*
X73772814Y-78579464D01*
X73778574Y-78618293D01*
X73780500Y-78657500D01*
X73780500Y-79457500D01*
X73778574Y-79496707D01*
X73772814Y-79535536D01*
X73763276Y-79573614D01*
X73750052Y-79610573D01*
X73733269Y-79646059D01*
X73713088Y-79679728D01*
X73689704Y-79711257D01*
X73663343Y-79740343D01*
X73634257Y-79766704D01*
X73602728Y-79790088D01*
X73569059Y-79810269D01*
X73533573Y-79827052D01*
X73496614Y-79840276D01*
X73458536Y-79849814D01*
X73419707Y-79855574D01*
X73380500Y-79857500D01*
X71780500Y-79857500D01*
X71741293Y-79855574D01*
X71702464Y-79849814D01*
X71664386Y-79840276D01*
X71627427Y-79827052D01*
X71591941Y-79810269D01*
X71558272Y-79790088D01*
X71526743Y-79766704D01*
X71497657Y-79740343D01*
X71471296Y-79711257D01*
X71447912Y-79679728D01*
X71427731Y-79646059D01*
X71410948Y-79610573D01*
X71397724Y-79573614D01*
X71388186Y-79535536D01*
X71382426Y-79496707D01*
X71380500Y-79457500D01*
X71380500Y-78657500D01*
X71382426Y-78618293D01*
X71388186Y-78579464D01*
X71397724Y-78541386D01*
X71410948Y-78504427D01*
X71427731Y-78468941D01*
X71447912Y-78435272D01*
X71471296Y-78403743D01*
X71497657Y-78374657D01*
X71526743Y-78348296D01*
X71558272Y-78324912D01*
X71591941Y-78304731D01*
X71627427Y-78287948D01*
X71664386Y-78274724D01*
X71702464Y-78265186D01*
X71741293Y-78259426D01*
X71780500Y-78257500D01*
X73380500Y-78257500D01*
X73419707Y-78259426D01*
X73419707Y-78259426D01*
G37*
D16*
X72580500Y-79057500D03*
D15*
G36*
X81039707Y-75719426D02*
X81078536Y-75725186D01*
X81116614Y-75734724D01*
X81153573Y-75747948D01*
X81189059Y-75764731D01*
X81222728Y-75784912D01*
X81254257Y-75808296D01*
X81283343Y-75834657D01*
X81309704Y-75863743D01*
X81333088Y-75895272D01*
X81353269Y-75928941D01*
X81370052Y-75964427D01*
X81383276Y-76001386D01*
X81392814Y-76039464D01*
X81398574Y-76078293D01*
X81400500Y-76117500D01*
X81400500Y-76917500D01*
X81398574Y-76956707D01*
X81392814Y-76995536D01*
X81383276Y-77033614D01*
X81370052Y-77070573D01*
X81353269Y-77106059D01*
X81333088Y-77139728D01*
X81309704Y-77171257D01*
X81283343Y-77200343D01*
X81254257Y-77226704D01*
X81222728Y-77250088D01*
X81189059Y-77270269D01*
X81153573Y-77287052D01*
X81116614Y-77300276D01*
X81078536Y-77309814D01*
X81039707Y-77315574D01*
X81000500Y-77317500D01*
X79400500Y-77317500D01*
X79361293Y-77315574D01*
X79322464Y-77309814D01*
X79284386Y-77300276D01*
X79247427Y-77287052D01*
X79211941Y-77270269D01*
X79178272Y-77250088D01*
X79146743Y-77226704D01*
X79117657Y-77200343D01*
X79091296Y-77171257D01*
X79067912Y-77139728D01*
X79047731Y-77106059D01*
X79030948Y-77070573D01*
X79017724Y-77033614D01*
X79008186Y-76995536D01*
X79002426Y-76956707D01*
X79000500Y-76917500D01*
X79000500Y-76117500D01*
X79002426Y-76078293D01*
X79008186Y-76039464D01*
X79017724Y-76001386D01*
X79030948Y-75964427D01*
X79047731Y-75928941D01*
X79067912Y-75895272D01*
X79091296Y-75863743D01*
X79117657Y-75834657D01*
X79146743Y-75808296D01*
X79178272Y-75784912D01*
X79211941Y-75764731D01*
X79247427Y-75747948D01*
X79284386Y-75734724D01*
X79322464Y-75725186D01*
X79361293Y-75719426D01*
X79400500Y-75717500D01*
X81000500Y-75717500D01*
X81039707Y-75719426D01*
X81039707Y-75719426D01*
G37*
D16*
X80200500Y-76517500D03*
D15*
G36*
X73419707Y-75719426D02*
X73458536Y-75725186D01*
X73496614Y-75734724D01*
X73533573Y-75747948D01*
X73569059Y-75764731D01*
X73602728Y-75784912D01*
X73634257Y-75808296D01*
X73663343Y-75834657D01*
X73689704Y-75863743D01*
X73713088Y-75895272D01*
X73733269Y-75928941D01*
X73750052Y-75964427D01*
X73763276Y-76001386D01*
X73772814Y-76039464D01*
X73778574Y-76078293D01*
X73780500Y-76117500D01*
X73780500Y-76917500D01*
X73778574Y-76956707D01*
X73772814Y-76995536D01*
X73763276Y-77033614D01*
X73750052Y-77070573D01*
X73733269Y-77106059D01*
X73713088Y-77139728D01*
X73689704Y-77171257D01*
X73663343Y-77200343D01*
X73634257Y-77226704D01*
X73602728Y-77250088D01*
X73569059Y-77270269D01*
X73533573Y-77287052D01*
X73496614Y-77300276D01*
X73458536Y-77309814D01*
X73419707Y-77315574D01*
X73380500Y-77317500D01*
X71780500Y-77317500D01*
X71741293Y-77315574D01*
X71702464Y-77309814D01*
X71664386Y-77300276D01*
X71627427Y-77287052D01*
X71591941Y-77270269D01*
X71558272Y-77250088D01*
X71526743Y-77226704D01*
X71497657Y-77200343D01*
X71471296Y-77171257D01*
X71447912Y-77139728D01*
X71427731Y-77106059D01*
X71410948Y-77070573D01*
X71397724Y-77033614D01*
X71388186Y-76995536D01*
X71382426Y-76956707D01*
X71380500Y-76917500D01*
X71380500Y-76117500D01*
X71382426Y-76078293D01*
X71388186Y-76039464D01*
X71397724Y-76001386D01*
X71410948Y-75964427D01*
X71427731Y-75928941D01*
X71447912Y-75895272D01*
X71471296Y-75863743D01*
X71497657Y-75834657D01*
X71526743Y-75808296D01*
X71558272Y-75784912D01*
X71591941Y-75764731D01*
X71627427Y-75747948D01*
X71664386Y-75734724D01*
X71702464Y-75725186D01*
X71741293Y-75719426D01*
X71780500Y-75717500D01*
X73380500Y-75717500D01*
X73419707Y-75719426D01*
X73419707Y-75719426D01*
G37*
D16*
X72580500Y-76517500D03*
D15*
G36*
X81039707Y-78259426D02*
X81078536Y-78265186D01*
X81116614Y-78274724D01*
X81153573Y-78287948D01*
X81189059Y-78304731D01*
X81222728Y-78324912D01*
X81254257Y-78348296D01*
X81283343Y-78374657D01*
X81309704Y-78403743D01*
X81333088Y-78435272D01*
X81353269Y-78468941D01*
X81370052Y-78504427D01*
X81383276Y-78541386D01*
X81392814Y-78579464D01*
X81398574Y-78618293D01*
X81400500Y-78657500D01*
X81400500Y-79457500D01*
X81398574Y-79496707D01*
X81392814Y-79535536D01*
X81383276Y-79573614D01*
X81370052Y-79610573D01*
X81353269Y-79646059D01*
X81333088Y-79679728D01*
X81309704Y-79711257D01*
X81283343Y-79740343D01*
X81254257Y-79766704D01*
X81222728Y-79790088D01*
X81189059Y-79810269D01*
X81153573Y-79827052D01*
X81116614Y-79840276D01*
X81078536Y-79849814D01*
X81039707Y-79855574D01*
X81000500Y-79857500D01*
X79400500Y-79857500D01*
X79361293Y-79855574D01*
X79322464Y-79849814D01*
X79284386Y-79840276D01*
X79247427Y-79827052D01*
X79211941Y-79810269D01*
X79178272Y-79790088D01*
X79146743Y-79766704D01*
X79117657Y-79740343D01*
X79091296Y-79711257D01*
X79067912Y-79679728D01*
X79047731Y-79646059D01*
X79030948Y-79610573D01*
X79017724Y-79573614D01*
X79008186Y-79535536D01*
X79002426Y-79496707D01*
X79000500Y-79457500D01*
X79000500Y-78657500D01*
X79002426Y-78618293D01*
X79008186Y-78579464D01*
X79017724Y-78541386D01*
X79030948Y-78504427D01*
X79047731Y-78468941D01*
X79067912Y-78435272D01*
X79091296Y-78403743D01*
X79117657Y-78374657D01*
X79146743Y-78348296D01*
X79178272Y-78324912D01*
X79211941Y-78304731D01*
X79247427Y-78287948D01*
X79284386Y-78274724D01*
X79322464Y-78265186D01*
X79361293Y-78259426D01*
X79400500Y-78257500D01*
X81000500Y-78257500D01*
X81039707Y-78259426D01*
X81039707Y-78259426D01*
G37*
D16*
X80200500Y-79057500D03*
D17*
X72580500Y-73977500D03*
G04 #@! TD*
D15*
G04 #@! TO.C,U4*
G36*
X81039707Y-62295526D02*
X81078536Y-62301286D01*
X81116614Y-62310824D01*
X81153573Y-62324048D01*
X81189059Y-62340831D01*
X81222728Y-62361012D01*
X81254257Y-62384396D01*
X81283343Y-62410757D01*
X81309704Y-62439843D01*
X81333088Y-62471372D01*
X81353269Y-62505041D01*
X81370052Y-62540527D01*
X81383276Y-62577486D01*
X81392814Y-62615564D01*
X81398574Y-62654393D01*
X81400500Y-62693600D01*
X81400500Y-63493600D01*
X81398574Y-63532807D01*
X81392814Y-63571636D01*
X81383276Y-63609714D01*
X81370052Y-63646673D01*
X81353269Y-63682159D01*
X81333088Y-63715828D01*
X81309704Y-63747357D01*
X81283343Y-63776443D01*
X81254257Y-63802804D01*
X81222728Y-63826188D01*
X81189059Y-63846369D01*
X81153573Y-63863152D01*
X81116614Y-63876376D01*
X81078536Y-63885914D01*
X81039707Y-63891674D01*
X81000500Y-63893600D01*
X79400500Y-63893600D01*
X79361293Y-63891674D01*
X79322464Y-63885914D01*
X79284386Y-63876376D01*
X79247427Y-63863152D01*
X79211941Y-63846369D01*
X79178272Y-63826188D01*
X79146743Y-63802804D01*
X79117657Y-63776443D01*
X79091296Y-63747357D01*
X79067912Y-63715828D01*
X79047731Y-63682159D01*
X79030948Y-63646673D01*
X79017724Y-63609714D01*
X79008186Y-63571636D01*
X79002426Y-63532807D01*
X79000500Y-63493600D01*
X79000500Y-62693600D01*
X79002426Y-62654393D01*
X79008186Y-62615564D01*
X79017724Y-62577486D01*
X79030948Y-62540527D01*
X79047731Y-62505041D01*
X79067912Y-62471372D01*
X79091296Y-62439843D01*
X79117657Y-62410757D01*
X79146743Y-62384396D01*
X79178272Y-62361012D01*
X79211941Y-62340831D01*
X79247427Y-62324048D01*
X79284386Y-62310824D01*
X79322464Y-62301286D01*
X79361293Y-62295526D01*
X79400500Y-62293600D01*
X81000500Y-62293600D01*
X81039707Y-62295526D01*
X81039707Y-62295526D01*
G37*
D16*
X80200500Y-63093600D03*
D15*
G36*
X73419707Y-67375526D02*
X73458536Y-67381286D01*
X73496614Y-67390824D01*
X73533573Y-67404048D01*
X73569059Y-67420831D01*
X73602728Y-67441012D01*
X73634257Y-67464396D01*
X73663343Y-67490757D01*
X73689704Y-67519843D01*
X73713088Y-67551372D01*
X73733269Y-67585041D01*
X73750052Y-67620527D01*
X73763276Y-67657486D01*
X73772814Y-67695564D01*
X73778574Y-67734393D01*
X73780500Y-67773600D01*
X73780500Y-68573600D01*
X73778574Y-68612807D01*
X73772814Y-68651636D01*
X73763276Y-68689714D01*
X73750052Y-68726673D01*
X73733269Y-68762159D01*
X73713088Y-68795828D01*
X73689704Y-68827357D01*
X73663343Y-68856443D01*
X73634257Y-68882804D01*
X73602728Y-68906188D01*
X73569059Y-68926369D01*
X73533573Y-68943152D01*
X73496614Y-68956376D01*
X73458536Y-68965914D01*
X73419707Y-68971674D01*
X73380500Y-68973600D01*
X71780500Y-68973600D01*
X71741293Y-68971674D01*
X71702464Y-68965914D01*
X71664386Y-68956376D01*
X71627427Y-68943152D01*
X71591941Y-68926369D01*
X71558272Y-68906188D01*
X71526743Y-68882804D01*
X71497657Y-68856443D01*
X71471296Y-68827357D01*
X71447912Y-68795828D01*
X71427731Y-68762159D01*
X71410948Y-68726673D01*
X71397724Y-68689714D01*
X71388186Y-68651636D01*
X71382426Y-68612807D01*
X71380500Y-68573600D01*
X71380500Y-67773600D01*
X71382426Y-67734393D01*
X71388186Y-67695564D01*
X71397724Y-67657486D01*
X71410948Y-67620527D01*
X71427731Y-67585041D01*
X71447912Y-67551372D01*
X71471296Y-67519843D01*
X71497657Y-67490757D01*
X71526743Y-67464396D01*
X71558272Y-67441012D01*
X71591941Y-67420831D01*
X71627427Y-67404048D01*
X71664386Y-67390824D01*
X71702464Y-67381286D01*
X71741293Y-67375526D01*
X71780500Y-67373600D01*
X73380500Y-67373600D01*
X73419707Y-67375526D01*
X73419707Y-67375526D01*
G37*
D16*
X72580500Y-68173600D03*
D15*
G36*
X81039707Y-64835526D02*
X81078536Y-64841286D01*
X81116614Y-64850824D01*
X81153573Y-64864048D01*
X81189059Y-64880831D01*
X81222728Y-64901012D01*
X81254257Y-64924396D01*
X81283343Y-64950757D01*
X81309704Y-64979843D01*
X81333088Y-65011372D01*
X81353269Y-65045041D01*
X81370052Y-65080527D01*
X81383276Y-65117486D01*
X81392814Y-65155564D01*
X81398574Y-65194393D01*
X81400500Y-65233600D01*
X81400500Y-66033600D01*
X81398574Y-66072807D01*
X81392814Y-66111636D01*
X81383276Y-66149714D01*
X81370052Y-66186673D01*
X81353269Y-66222159D01*
X81333088Y-66255828D01*
X81309704Y-66287357D01*
X81283343Y-66316443D01*
X81254257Y-66342804D01*
X81222728Y-66366188D01*
X81189059Y-66386369D01*
X81153573Y-66403152D01*
X81116614Y-66416376D01*
X81078536Y-66425914D01*
X81039707Y-66431674D01*
X81000500Y-66433600D01*
X79400500Y-66433600D01*
X79361293Y-66431674D01*
X79322464Y-66425914D01*
X79284386Y-66416376D01*
X79247427Y-66403152D01*
X79211941Y-66386369D01*
X79178272Y-66366188D01*
X79146743Y-66342804D01*
X79117657Y-66316443D01*
X79091296Y-66287357D01*
X79067912Y-66255828D01*
X79047731Y-66222159D01*
X79030948Y-66186673D01*
X79017724Y-66149714D01*
X79008186Y-66111636D01*
X79002426Y-66072807D01*
X79000500Y-66033600D01*
X79000500Y-65233600D01*
X79002426Y-65194393D01*
X79008186Y-65155564D01*
X79017724Y-65117486D01*
X79030948Y-65080527D01*
X79047731Y-65045041D01*
X79067912Y-65011372D01*
X79091296Y-64979843D01*
X79117657Y-64950757D01*
X79146743Y-64924396D01*
X79178272Y-64901012D01*
X79211941Y-64880831D01*
X79247427Y-64864048D01*
X79284386Y-64850824D01*
X79322464Y-64841286D01*
X79361293Y-64835526D01*
X79400500Y-64833600D01*
X81000500Y-64833600D01*
X81039707Y-64835526D01*
X81039707Y-64835526D01*
G37*
D16*
X80200500Y-65633600D03*
D15*
G36*
X73419707Y-64835526D02*
X73458536Y-64841286D01*
X73496614Y-64850824D01*
X73533573Y-64864048D01*
X73569059Y-64880831D01*
X73602728Y-64901012D01*
X73634257Y-64924396D01*
X73663343Y-64950757D01*
X73689704Y-64979843D01*
X73713088Y-65011372D01*
X73733269Y-65045041D01*
X73750052Y-65080527D01*
X73763276Y-65117486D01*
X73772814Y-65155564D01*
X73778574Y-65194393D01*
X73780500Y-65233600D01*
X73780500Y-66033600D01*
X73778574Y-66072807D01*
X73772814Y-66111636D01*
X73763276Y-66149714D01*
X73750052Y-66186673D01*
X73733269Y-66222159D01*
X73713088Y-66255828D01*
X73689704Y-66287357D01*
X73663343Y-66316443D01*
X73634257Y-66342804D01*
X73602728Y-66366188D01*
X73569059Y-66386369D01*
X73533573Y-66403152D01*
X73496614Y-66416376D01*
X73458536Y-66425914D01*
X73419707Y-66431674D01*
X73380500Y-66433600D01*
X71780500Y-66433600D01*
X71741293Y-66431674D01*
X71702464Y-66425914D01*
X71664386Y-66416376D01*
X71627427Y-66403152D01*
X71591941Y-66386369D01*
X71558272Y-66366188D01*
X71526743Y-66342804D01*
X71497657Y-66316443D01*
X71471296Y-66287357D01*
X71447912Y-66255828D01*
X71427731Y-66222159D01*
X71410948Y-66186673D01*
X71397724Y-66149714D01*
X71388186Y-66111636D01*
X71382426Y-66072807D01*
X71380500Y-66033600D01*
X71380500Y-65233600D01*
X71382426Y-65194393D01*
X71388186Y-65155564D01*
X71397724Y-65117486D01*
X71410948Y-65080527D01*
X71427731Y-65045041D01*
X71447912Y-65011372D01*
X71471296Y-64979843D01*
X71497657Y-64950757D01*
X71526743Y-64924396D01*
X71558272Y-64901012D01*
X71591941Y-64880831D01*
X71627427Y-64864048D01*
X71664386Y-64850824D01*
X71702464Y-64841286D01*
X71741293Y-64835526D01*
X71780500Y-64833600D01*
X73380500Y-64833600D01*
X73419707Y-64835526D01*
X73419707Y-64835526D01*
G37*
D16*
X72580500Y-65633600D03*
D15*
G36*
X81039707Y-67375526D02*
X81078536Y-67381286D01*
X81116614Y-67390824D01*
X81153573Y-67404048D01*
X81189059Y-67420831D01*
X81222728Y-67441012D01*
X81254257Y-67464396D01*
X81283343Y-67490757D01*
X81309704Y-67519843D01*
X81333088Y-67551372D01*
X81353269Y-67585041D01*
X81370052Y-67620527D01*
X81383276Y-67657486D01*
X81392814Y-67695564D01*
X81398574Y-67734393D01*
X81400500Y-67773600D01*
X81400500Y-68573600D01*
X81398574Y-68612807D01*
X81392814Y-68651636D01*
X81383276Y-68689714D01*
X81370052Y-68726673D01*
X81353269Y-68762159D01*
X81333088Y-68795828D01*
X81309704Y-68827357D01*
X81283343Y-68856443D01*
X81254257Y-68882804D01*
X81222728Y-68906188D01*
X81189059Y-68926369D01*
X81153573Y-68943152D01*
X81116614Y-68956376D01*
X81078536Y-68965914D01*
X81039707Y-68971674D01*
X81000500Y-68973600D01*
X79400500Y-68973600D01*
X79361293Y-68971674D01*
X79322464Y-68965914D01*
X79284386Y-68956376D01*
X79247427Y-68943152D01*
X79211941Y-68926369D01*
X79178272Y-68906188D01*
X79146743Y-68882804D01*
X79117657Y-68856443D01*
X79091296Y-68827357D01*
X79067912Y-68795828D01*
X79047731Y-68762159D01*
X79030948Y-68726673D01*
X79017724Y-68689714D01*
X79008186Y-68651636D01*
X79002426Y-68612807D01*
X79000500Y-68573600D01*
X79000500Y-67773600D01*
X79002426Y-67734393D01*
X79008186Y-67695564D01*
X79017724Y-67657486D01*
X79030948Y-67620527D01*
X79047731Y-67585041D01*
X79067912Y-67551372D01*
X79091296Y-67519843D01*
X79117657Y-67490757D01*
X79146743Y-67464396D01*
X79178272Y-67441012D01*
X79211941Y-67420831D01*
X79247427Y-67404048D01*
X79284386Y-67390824D01*
X79322464Y-67381286D01*
X79361293Y-67375526D01*
X79400500Y-67373600D01*
X81000500Y-67373600D01*
X81039707Y-67375526D01*
X81039707Y-67375526D01*
G37*
D16*
X80200500Y-68173600D03*
D17*
X72580500Y-63093600D03*
G04 #@! TD*
G04 #@! TO.C,U3*
X72580500Y-52197000D03*
D15*
G36*
X81039707Y-56478926D02*
X81078536Y-56484686D01*
X81116614Y-56494224D01*
X81153573Y-56507448D01*
X81189059Y-56524231D01*
X81222728Y-56544412D01*
X81254257Y-56567796D01*
X81283343Y-56594157D01*
X81309704Y-56623243D01*
X81333088Y-56654772D01*
X81353269Y-56688441D01*
X81370052Y-56723927D01*
X81383276Y-56760886D01*
X81392814Y-56798964D01*
X81398574Y-56837793D01*
X81400500Y-56877000D01*
X81400500Y-57677000D01*
X81398574Y-57716207D01*
X81392814Y-57755036D01*
X81383276Y-57793114D01*
X81370052Y-57830073D01*
X81353269Y-57865559D01*
X81333088Y-57899228D01*
X81309704Y-57930757D01*
X81283343Y-57959843D01*
X81254257Y-57986204D01*
X81222728Y-58009588D01*
X81189059Y-58029769D01*
X81153573Y-58046552D01*
X81116614Y-58059776D01*
X81078536Y-58069314D01*
X81039707Y-58075074D01*
X81000500Y-58077000D01*
X79400500Y-58077000D01*
X79361293Y-58075074D01*
X79322464Y-58069314D01*
X79284386Y-58059776D01*
X79247427Y-58046552D01*
X79211941Y-58029769D01*
X79178272Y-58009588D01*
X79146743Y-57986204D01*
X79117657Y-57959843D01*
X79091296Y-57930757D01*
X79067912Y-57899228D01*
X79047731Y-57865559D01*
X79030948Y-57830073D01*
X79017724Y-57793114D01*
X79008186Y-57755036D01*
X79002426Y-57716207D01*
X79000500Y-57677000D01*
X79000500Y-56877000D01*
X79002426Y-56837793D01*
X79008186Y-56798964D01*
X79017724Y-56760886D01*
X79030948Y-56723927D01*
X79047731Y-56688441D01*
X79067912Y-56654772D01*
X79091296Y-56623243D01*
X79117657Y-56594157D01*
X79146743Y-56567796D01*
X79178272Y-56544412D01*
X79211941Y-56524231D01*
X79247427Y-56507448D01*
X79284386Y-56494224D01*
X79322464Y-56484686D01*
X79361293Y-56478926D01*
X79400500Y-56477000D01*
X81000500Y-56477000D01*
X81039707Y-56478926D01*
X81039707Y-56478926D01*
G37*
D16*
X80200500Y-57277000D03*
D15*
G36*
X73419707Y-53938926D02*
X73458536Y-53944686D01*
X73496614Y-53954224D01*
X73533573Y-53967448D01*
X73569059Y-53984231D01*
X73602728Y-54004412D01*
X73634257Y-54027796D01*
X73663343Y-54054157D01*
X73689704Y-54083243D01*
X73713088Y-54114772D01*
X73733269Y-54148441D01*
X73750052Y-54183927D01*
X73763276Y-54220886D01*
X73772814Y-54258964D01*
X73778574Y-54297793D01*
X73780500Y-54337000D01*
X73780500Y-55137000D01*
X73778574Y-55176207D01*
X73772814Y-55215036D01*
X73763276Y-55253114D01*
X73750052Y-55290073D01*
X73733269Y-55325559D01*
X73713088Y-55359228D01*
X73689704Y-55390757D01*
X73663343Y-55419843D01*
X73634257Y-55446204D01*
X73602728Y-55469588D01*
X73569059Y-55489769D01*
X73533573Y-55506552D01*
X73496614Y-55519776D01*
X73458536Y-55529314D01*
X73419707Y-55535074D01*
X73380500Y-55537000D01*
X71780500Y-55537000D01*
X71741293Y-55535074D01*
X71702464Y-55529314D01*
X71664386Y-55519776D01*
X71627427Y-55506552D01*
X71591941Y-55489769D01*
X71558272Y-55469588D01*
X71526743Y-55446204D01*
X71497657Y-55419843D01*
X71471296Y-55390757D01*
X71447912Y-55359228D01*
X71427731Y-55325559D01*
X71410948Y-55290073D01*
X71397724Y-55253114D01*
X71388186Y-55215036D01*
X71382426Y-55176207D01*
X71380500Y-55137000D01*
X71380500Y-54337000D01*
X71382426Y-54297793D01*
X71388186Y-54258964D01*
X71397724Y-54220886D01*
X71410948Y-54183927D01*
X71427731Y-54148441D01*
X71447912Y-54114772D01*
X71471296Y-54083243D01*
X71497657Y-54054157D01*
X71526743Y-54027796D01*
X71558272Y-54004412D01*
X71591941Y-53984231D01*
X71627427Y-53967448D01*
X71664386Y-53954224D01*
X71702464Y-53944686D01*
X71741293Y-53938926D01*
X71780500Y-53937000D01*
X73380500Y-53937000D01*
X73419707Y-53938926D01*
X73419707Y-53938926D01*
G37*
D16*
X72580500Y-54737000D03*
D15*
G36*
X81039707Y-53938926D02*
X81078536Y-53944686D01*
X81116614Y-53954224D01*
X81153573Y-53967448D01*
X81189059Y-53984231D01*
X81222728Y-54004412D01*
X81254257Y-54027796D01*
X81283343Y-54054157D01*
X81309704Y-54083243D01*
X81333088Y-54114772D01*
X81353269Y-54148441D01*
X81370052Y-54183927D01*
X81383276Y-54220886D01*
X81392814Y-54258964D01*
X81398574Y-54297793D01*
X81400500Y-54337000D01*
X81400500Y-55137000D01*
X81398574Y-55176207D01*
X81392814Y-55215036D01*
X81383276Y-55253114D01*
X81370052Y-55290073D01*
X81353269Y-55325559D01*
X81333088Y-55359228D01*
X81309704Y-55390757D01*
X81283343Y-55419843D01*
X81254257Y-55446204D01*
X81222728Y-55469588D01*
X81189059Y-55489769D01*
X81153573Y-55506552D01*
X81116614Y-55519776D01*
X81078536Y-55529314D01*
X81039707Y-55535074D01*
X81000500Y-55537000D01*
X79400500Y-55537000D01*
X79361293Y-55535074D01*
X79322464Y-55529314D01*
X79284386Y-55519776D01*
X79247427Y-55506552D01*
X79211941Y-55489769D01*
X79178272Y-55469588D01*
X79146743Y-55446204D01*
X79117657Y-55419843D01*
X79091296Y-55390757D01*
X79067912Y-55359228D01*
X79047731Y-55325559D01*
X79030948Y-55290073D01*
X79017724Y-55253114D01*
X79008186Y-55215036D01*
X79002426Y-55176207D01*
X79000500Y-55137000D01*
X79000500Y-54337000D01*
X79002426Y-54297793D01*
X79008186Y-54258964D01*
X79017724Y-54220886D01*
X79030948Y-54183927D01*
X79047731Y-54148441D01*
X79067912Y-54114772D01*
X79091296Y-54083243D01*
X79117657Y-54054157D01*
X79146743Y-54027796D01*
X79178272Y-54004412D01*
X79211941Y-53984231D01*
X79247427Y-53967448D01*
X79284386Y-53954224D01*
X79322464Y-53944686D01*
X79361293Y-53938926D01*
X79400500Y-53937000D01*
X81000500Y-53937000D01*
X81039707Y-53938926D01*
X81039707Y-53938926D01*
G37*
D16*
X80200500Y-54737000D03*
D15*
G36*
X73419707Y-56478926D02*
X73458536Y-56484686D01*
X73496614Y-56494224D01*
X73533573Y-56507448D01*
X73569059Y-56524231D01*
X73602728Y-56544412D01*
X73634257Y-56567796D01*
X73663343Y-56594157D01*
X73689704Y-56623243D01*
X73713088Y-56654772D01*
X73733269Y-56688441D01*
X73750052Y-56723927D01*
X73763276Y-56760886D01*
X73772814Y-56798964D01*
X73778574Y-56837793D01*
X73780500Y-56877000D01*
X73780500Y-57677000D01*
X73778574Y-57716207D01*
X73772814Y-57755036D01*
X73763276Y-57793114D01*
X73750052Y-57830073D01*
X73733269Y-57865559D01*
X73713088Y-57899228D01*
X73689704Y-57930757D01*
X73663343Y-57959843D01*
X73634257Y-57986204D01*
X73602728Y-58009588D01*
X73569059Y-58029769D01*
X73533573Y-58046552D01*
X73496614Y-58059776D01*
X73458536Y-58069314D01*
X73419707Y-58075074D01*
X73380500Y-58077000D01*
X71780500Y-58077000D01*
X71741293Y-58075074D01*
X71702464Y-58069314D01*
X71664386Y-58059776D01*
X71627427Y-58046552D01*
X71591941Y-58029769D01*
X71558272Y-58009588D01*
X71526743Y-57986204D01*
X71497657Y-57959843D01*
X71471296Y-57930757D01*
X71447912Y-57899228D01*
X71427731Y-57865559D01*
X71410948Y-57830073D01*
X71397724Y-57793114D01*
X71388186Y-57755036D01*
X71382426Y-57716207D01*
X71380500Y-57677000D01*
X71380500Y-56877000D01*
X71382426Y-56837793D01*
X71388186Y-56798964D01*
X71397724Y-56760886D01*
X71410948Y-56723927D01*
X71427731Y-56688441D01*
X71447912Y-56654772D01*
X71471296Y-56623243D01*
X71497657Y-56594157D01*
X71526743Y-56567796D01*
X71558272Y-56544412D01*
X71591941Y-56524231D01*
X71627427Y-56507448D01*
X71664386Y-56494224D01*
X71702464Y-56484686D01*
X71741293Y-56478926D01*
X71780500Y-56477000D01*
X73380500Y-56477000D01*
X73419707Y-56478926D01*
X73419707Y-56478926D01*
G37*
D16*
X72580500Y-57277000D03*
D15*
G36*
X81039707Y-51398926D02*
X81078536Y-51404686D01*
X81116614Y-51414224D01*
X81153573Y-51427448D01*
X81189059Y-51444231D01*
X81222728Y-51464412D01*
X81254257Y-51487796D01*
X81283343Y-51514157D01*
X81309704Y-51543243D01*
X81333088Y-51574772D01*
X81353269Y-51608441D01*
X81370052Y-51643927D01*
X81383276Y-51680886D01*
X81392814Y-51718964D01*
X81398574Y-51757793D01*
X81400500Y-51797000D01*
X81400500Y-52597000D01*
X81398574Y-52636207D01*
X81392814Y-52675036D01*
X81383276Y-52713114D01*
X81370052Y-52750073D01*
X81353269Y-52785559D01*
X81333088Y-52819228D01*
X81309704Y-52850757D01*
X81283343Y-52879843D01*
X81254257Y-52906204D01*
X81222728Y-52929588D01*
X81189059Y-52949769D01*
X81153573Y-52966552D01*
X81116614Y-52979776D01*
X81078536Y-52989314D01*
X81039707Y-52995074D01*
X81000500Y-52997000D01*
X79400500Y-52997000D01*
X79361293Y-52995074D01*
X79322464Y-52989314D01*
X79284386Y-52979776D01*
X79247427Y-52966552D01*
X79211941Y-52949769D01*
X79178272Y-52929588D01*
X79146743Y-52906204D01*
X79117657Y-52879843D01*
X79091296Y-52850757D01*
X79067912Y-52819228D01*
X79047731Y-52785559D01*
X79030948Y-52750073D01*
X79017724Y-52713114D01*
X79008186Y-52675036D01*
X79002426Y-52636207D01*
X79000500Y-52597000D01*
X79000500Y-51797000D01*
X79002426Y-51757793D01*
X79008186Y-51718964D01*
X79017724Y-51680886D01*
X79030948Y-51643927D01*
X79047731Y-51608441D01*
X79067912Y-51574772D01*
X79091296Y-51543243D01*
X79117657Y-51514157D01*
X79146743Y-51487796D01*
X79178272Y-51464412D01*
X79211941Y-51444231D01*
X79247427Y-51427448D01*
X79284386Y-51414224D01*
X79322464Y-51404686D01*
X79361293Y-51398926D01*
X79400500Y-51397000D01*
X81000500Y-51397000D01*
X81039707Y-51398926D01*
X81039707Y-51398926D01*
G37*
D16*
X80200500Y-52197000D03*
G04 #@! TD*
D17*
G04 #@! TO.C,U2*
X72580500Y-41275000D03*
D15*
G36*
X81039707Y-45556926D02*
X81078536Y-45562686D01*
X81116614Y-45572224D01*
X81153573Y-45585448D01*
X81189059Y-45602231D01*
X81222728Y-45622412D01*
X81254257Y-45645796D01*
X81283343Y-45672157D01*
X81309704Y-45701243D01*
X81333088Y-45732772D01*
X81353269Y-45766441D01*
X81370052Y-45801927D01*
X81383276Y-45838886D01*
X81392814Y-45876964D01*
X81398574Y-45915793D01*
X81400500Y-45955000D01*
X81400500Y-46755000D01*
X81398574Y-46794207D01*
X81392814Y-46833036D01*
X81383276Y-46871114D01*
X81370052Y-46908073D01*
X81353269Y-46943559D01*
X81333088Y-46977228D01*
X81309704Y-47008757D01*
X81283343Y-47037843D01*
X81254257Y-47064204D01*
X81222728Y-47087588D01*
X81189059Y-47107769D01*
X81153573Y-47124552D01*
X81116614Y-47137776D01*
X81078536Y-47147314D01*
X81039707Y-47153074D01*
X81000500Y-47155000D01*
X79400500Y-47155000D01*
X79361293Y-47153074D01*
X79322464Y-47147314D01*
X79284386Y-47137776D01*
X79247427Y-47124552D01*
X79211941Y-47107769D01*
X79178272Y-47087588D01*
X79146743Y-47064204D01*
X79117657Y-47037843D01*
X79091296Y-47008757D01*
X79067912Y-46977228D01*
X79047731Y-46943559D01*
X79030948Y-46908073D01*
X79017724Y-46871114D01*
X79008186Y-46833036D01*
X79002426Y-46794207D01*
X79000500Y-46755000D01*
X79000500Y-45955000D01*
X79002426Y-45915793D01*
X79008186Y-45876964D01*
X79017724Y-45838886D01*
X79030948Y-45801927D01*
X79047731Y-45766441D01*
X79067912Y-45732772D01*
X79091296Y-45701243D01*
X79117657Y-45672157D01*
X79146743Y-45645796D01*
X79178272Y-45622412D01*
X79211941Y-45602231D01*
X79247427Y-45585448D01*
X79284386Y-45572224D01*
X79322464Y-45562686D01*
X79361293Y-45556926D01*
X79400500Y-45555000D01*
X81000500Y-45555000D01*
X81039707Y-45556926D01*
X81039707Y-45556926D01*
G37*
D16*
X80200500Y-46355000D03*
D15*
G36*
X73419707Y-43016926D02*
X73458536Y-43022686D01*
X73496614Y-43032224D01*
X73533573Y-43045448D01*
X73569059Y-43062231D01*
X73602728Y-43082412D01*
X73634257Y-43105796D01*
X73663343Y-43132157D01*
X73689704Y-43161243D01*
X73713088Y-43192772D01*
X73733269Y-43226441D01*
X73750052Y-43261927D01*
X73763276Y-43298886D01*
X73772814Y-43336964D01*
X73778574Y-43375793D01*
X73780500Y-43415000D01*
X73780500Y-44215000D01*
X73778574Y-44254207D01*
X73772814Y-44293036D01*
X73763276Y-44331114D01*
X73750052Y-44368073D01*
X73733269Y-44403559D01*
X73713088Y-44437228D01*
X73689704Y-44468757D01*
X73663343Y-44497843D01*
X73634257Y-44524204D01*
X73602728Y-44547588D01*
X73569059Y-44567769D01*
X73533573Y-44584552D01*
X73496614Y-44597776D01*
X73458536Y-44607314D01*
X73419707Y-44613074D01*
X73380500Y-44615000D01*
X71780500Y-44615000D01*
X71741293Y-44613074D01*
X71702464Y-44607314D01*
X71664386Y-44597776D01*
X71627427Y-44584552D01*
X71591941Y-44567769D01*
X71558272Y-44547588D01*
X71526743Y-44524204D01*
X71497657Y-44497843D01*
X71471296Y-44468757D01*
X71447912Y-44437228D01*
X71427731Y-44403559D01*
X71410948Y-44368073D01*
X71397724Y-44331114D01*
X71388186Y-44293036D01*
X71382426Y-44254207D01*
X71380500Y-44215000D01*
X71380500Y-43415000D01*
X71382426Y-43375793D01*
X71388186Y-43336964D01*
X71397724Y-43298886D01*
X71410948Y-43261927D01*
X71427731Y-43226441D01*
X71447912Y-43192772D01*
X71471296Y-43161243D01*
X71497657Y-43132157D01*
X71526743Y-43105796D01*
X71558272Y-43082412D01*
X71591941Y-43062231D01*
X71627427Y-43045448D01*
X71664386Y-43032224D01*
X71702464Y-43022686D01*
X71741293Y-43016926D01*
X71780500Y-43015000D01*
X73380500Y-43015000D01*
X73419707Y-43016926D01*
X73419707Y-43016926D01*
G37*
D16*
X72580500Y-43815000D03*
D15*
G36*
X81039707Y-43016926D02*
X81078536Y-43022686D01*
X81116614Y-43032224D01*
X81153573Y-43045448D01*
X81189059Y-43062231D01*
X81222728Y-43082412D01*
X81254257Y-43105796D01*
X81283343Y-43132157D01*
X81309704Y-43161243D01*
X81333088Y-43192772D01*
X81353269Y-43226441D01*
X81370052Y-43261927D01*
X81383276Y-43298886D01*
X81392814Y-43336964D01*
X81398574Y-43375793D01*
X81400500Y-43415000D01*
X81400500Y-44215000D01*
X81398574Y-44254207D01*
X81392814Y-44293036D01*
X81383276Y-44331114D01*
X81370052Y-44368073D01*
X81353269Y-44403559D01*
X81333088Y-44437228D01*
X81309704Y-44468757D01*
X81283343Y-44497843D01*
X81254257Y-44524204D01*
X81222728Y-44547588D01*
X81189059Y-44567769D01*
X81153573Y-44584552D01*
X81116614Y-44597776D01*
X81078536Y-44607314D01*
X81039707Y-44613074D01*
X81000500Y-44615000D01*
X79400500Y-44615000D01*
X79361293Y-44613074D01*
X79322464Y-44607314D01*
X79284386Y-44597776D01*
X79247427Y-44584552D01*
X79211941Y-44567769D01*
X79178272Y-44547588D01*
X79146743Y-44524204D01*
X79117657Y-44497843D01*
X79091296Y-44468757D01*
X79067912Y-44437228D01*
X79047731Y-44403559D01*
X79030948Y-44368073D01*
X79017724Y-44331114D01*
X79008186Y-44293036D01*
X79002426Y-44254207D01*
X79000500Y-44215000D01*
X79000500Y-43415000D01*
X79002426Y-43375793D01*
X79008186Y-43336964D01*
X79017724Y-43298886D01*
X79030948Y-43261927D01*
X79047731Y-43226441D01*
X79067912Y-43192772D01*
X79091296Y-43161243D01*
X79117657Y-43132157D01*
X79146743Y-43105796D01*
X79178272Y-43082412D01*
X79211941Y-43062231D01*
X79247427Y-43045448D01*
X79284386Y-43032224D01*
X79322464Y-43022686D01*
X79361293Y-43016926D01*
X79400500Y-43015000D01*
X81000500Y-43015000D01*
X81039707Y-43016926D01*
X81039707Y-43016926D01*
G37*
D16*
X80200500Y-43815000D03*
D15*
G36*
X73419707Y-45556926D02*
X73458536Y-45562686D01*
X73496614Y-45572224D01*
X73533573Y-45585448D01*
X73569059Y-45602231D01*
X73602728Y-45622412D01*
X73634257Y-45645796D01*
X73663343Y-45672157D01*
X73689704Y-45701243D01*
X73713088Y-45732772D01*
X73733269Y-45766441D01*
X73750052Y-45801927D01*
X73763276Y-45838886D01*
X73772814Y-45876964D01*
X73778574Y-45915793D01*
X73780500Y-45955000D01*
X73780500Y-46755000D01*
X73778574Y-46794207D01*
X73772814Y-46833036D01*
X73763276Y-46871114D01*
X73750052Y-46908073D01*
X73733269Y-46943559D01*
X73713088Y-46977228D01*
X73689704Y-47008757D01*
X73663343Y-47037843D01*
X73634257Y-47064204D01*
X73602728Y-47087588D01*
X73569059Y-47107769D01*
X73533573Y-47124552D01*
X73496614Y-47137776D01*
X73458536Y-47147314D01*
X73419707Y-47153074D01*
X73380500Y-47155000D01*
X71780500Y-47155000D01*
X71741293Y-47153074D01*
X71702464Y-47147314D01*
X71664386Y-47137776D01*
X71627427Y-47124552D01*
X71591941Y-47107769D01*
X71558272Y-47087588D01*
X71526743Y-47064204D01*
X71497657Y-47037843D01*
X71471296Y-47008757D01*
X71447912Y-46977228D01*
X71427731Y-46943559D01*
X71410948Y-46908073D01*
X71397724Y-46871114D01*
X71388186Y-46833036D01*
X71382426Y-46794207D01*
X71380500Y-46755000D01*
X71380500Y-45955000D01*
X71382426Y-45915793D01*
X71388186Y-45876964D01*
X71397724Y-45838886D01*
X71410948Y-45801927D01*
X71427731Y-45766441D01*
X71447912Y-45732772D01*
X71471296Y-45701243D01*
X71497657Y-45672157D01*
X71526743Y-45645796D01*
X71558272Y-45622412D01*
X71591941Y-45602231D01*
X71627427Y-45585448D01*
X71664386Y-45572224D01*
X71702464Y-45562686D01*
X71741293Y-45556926D01*
X71780500Y-45555000D01*
X73380500Y-45555000D01*
X73419707Y-45556926D01*
X73419707Y-45556926D01*
G37*
D16*
X72580500Y-46355000D03*
D15*
G36*
X81039707Y-40476926D02*
X81078536Y-40482686D01*
X81116614Y-40492224D01*
X81153573Y-40505448D01*
X81189059Y-40522231D01*
X81222728Y-40542412D01*
X81254257Y-40565796D01*
X81283343Y-40592157D01*
X81309704Y-40621243D01*
X81333088Y-40652772D01*
X81353269Y-40686441D01*
X81370052Y-40721927D01*
X81383276Y-40758886D01*
X81392814Y-40796964D01*
X81398574Y-40835793D01*
X81400500Y-40875000D01*
X81400500Y-41675000D01*
X81398574Y-41714207D01*
X81392814Y-41753036D01*
X81383276Y-41791114D01*
X81370052Y-41828073D01*
X81353269Y-41863559D01*
X81333088Y-41897228D01*
X81309704Y-41928757D01*
X81283343Y-41957843D01*
X81254257Y-41984204D01*
X81222728Y-42007588D01*
X81189059Y-42027769D01*
X81153573Y-42044552D01*
X81116614Y-42057776D01*
X81078536Y-42067314D01*
X81039707Y-42073074D01*
X81000500Y-42075000D01*
X79400500Y-42075000D01*
X79361293Y-42073074D01*
X79322464Y-42067314D01*
X79284386Y-42057776D01*
X79247427Y-42044552D01*
X79211941Y-42027769D01*
X79178272Y-42007588D01*
X79146743Y-41984204D01*
X79117657Y-41957843D01*
X79091296Y-41928757D01*
X79067912Y-41897228D01*
X79047731Y-41863559D01*
X79030948Y-41828073D01*
X79017724Y-41791114D01*
X79008186Y-41753036D01*
X79002426Y-41714207D01*
X79000500Y-41675000D01*
X79000500Y-40875000D01*
X79002426Y-40835793D01*
X79008186Y-40796964D01*
X79017724Y-40758886D01*
X79030948Y-40721927D01*
X79047731Y-40686441D01*
X79067912Y-40652772D01*
X79091296Y-40621243D01*
X79117657Y-40592157D01*
X79146743Y-40565796D01*
X79178272Y-40542412D01*
X79211941Y-40522231D01*
X79247427Y-40505448D01*
X79284386Y-40492224D01*
X79322464Y-40482686D01*
X79361293Y-40476926D01*
X79400500Y-40475000D01*
X81000500Y-40475000D01*
X81039707Y-40476926D01*
X81039707Y-40476926D01*
G37*
D16*
X80200500Y-41275000D03*
G04 #@! TD*
D18*
G04 #@! TO.C,J11*
X90424000Y-89217500D03*
D19*
X95504000Y-89217500D03*
G04 #@! TD*
G04 #@! TO.C,J10*
X108394500Y-73977500D03*
D18*
X108394500Y-79057500D03*
G04 #@! TD*
D19*
G04 #@! TO.C,J9*
X108394500Y-63309500D03*
D18*
X108394500Y-68389500D03*
G04 #@! TD*
D19*
G04 #@! TO.C,J8*
X108394500Y-52641500D03*
D18*
X108394500Y-57721500D03*
G04 #@! TD*
D19*
G04 #@! TO.C,J7*
X108394500Y-41973500D03*
D18*
X108394500Y-47053500D03*
G04 #@! TD*
G04 #@! TO.C,J6*
X108394500Y-36385500D03*
D19*
X108394500Y-31305500D03*
G04 #@! TD*
G04 #@! TO.C,J5*
X50673000Y-78867000D03*
D18*
X50673000Y-73787000D03*
G04 #@! TD*
G04 #@! TO.C,J4*
X50673000Y-63119000D03*
D19*
X50673000Y-68199000D03*
G04 #@! TD*
D18*
G04 #@! TO.C,J3*
X50673000Y-52451000D03*
D19*
X50673000Y-57531000D03*
G04 #@! TD*
D18*
G04 #@! TO.C,J2*
X50673000Y-41783000D03*
D19*
X50673000Y-46863000D03*
G04 #@! TD*
D11*
G04 #@! TO.C,D5*
X60452000Y-76517500D03*
D14*
X57912000Y-76517500D03*
G04 #@! TD*
G04 #@! TO.C,D4*
X57912000Y-65659000D03*
D11*
X60452000Y-65659000D03*
G04 #@! TD*
D14*
G04 #@! TO.C,D3*
X57912000Y-54927500D03*
D11*
X60452000Y-54927500D03*
G04 #@! TD*
G04 #@! TO.C,D2*
X60452000Y-44323000D03*
D14*
X57912000Y-44323000D03*
G04 #@! TD*
D11*
G04 #@! TO.C,D1*
X60452000Y-33655000D03*
D14*
X57912000Y-33655000D03*
G04 #@! TD*
G04 #@! TO.C,U6*
X94742000Y-34290000D03*
D13*
X97282000Y-34290000D03*
X99822000Y-34290000D03*
G04 #@! TD*
D18*
G04 #@! TO.C,J1*
X50673000Y-31115000D03*
D19*
X50673000Y-36195000D03*
G04 #@! TD*
D15*
G04 #@! TO.C,U1*
G36*
X81039707Y-29554926D02*
X81078536Y-29560686D01*
X81116614Y-29570224D01*
X81153573Y-29583448D01*
X81189059Y-29600231D01*
X81222728Y-29620412D01*
X81254257Y-29643796D01*
X81283343Y-29670157D01*
X81309704Y-29699243D01*
X81333088Y-29730772D01*
X81353269Y-29764441D01*
X81370052Y-29799927D01*
X81383276Y-29836886D01*
X81392814Y-29874964D01*
X81398574Y-29913793D01*
X81400500Y-29953000D01*
X81400500Y-30753000D01*
X81398574Y-30792207D01*
X81392814Y-30831036D01*
X81383276Y-30869114D01*
X81370052Y-30906073D01*
X81353269Y-30941559D01*
X81333088Y-30975228D01*
X81309704Y-31006757D01*
X81283343Y-31035843D01*
X81254257Y-31062204D01*
X81222728Y-31085588D01*
X81189059Y-31105769D01*
X81153573Y-31122552D01*
X81116614Y-31135776D01*
X81078536Y-31145314D01*
X81039707Y-31151074D01*
X81000500Y-31153000D01*
X79400500Y-31153000D01*
X79361293Y-31151074D01*
X79322464Y-31145314D01*
X79284386Y-31135776D01*
X79247427Y-31122552D01*
X79211941Y-31105769D01*
X79178272Y-31085588D01*
X79146743Y-31062204D01*
X79117657Y-31035843D01*
X79091296Y-31006757D01*
X79067912Y-30975228D01*
X79047731Y-30941559D01*
X79030948Y-30906073D01*
X79017724Y-30869114D01*
X79008186Y-30831036D01*
X79002426Y-30792207D01*
X79000500Y-30753000D01*
X79000500Y-29953000D01*
X79002426Y-29913793D01*
X79008186Y-29874964D01*
X79017724Y-29836886D01*
X79030948Y-29799927D01*
X79047731Y-29764441D01*
X79067912Y-29730772D01*
X79091296Y-29699243D01*
X79117657Y-29670157D01*
X79146743Y-29643796D01*
X79178272Y-29620412D01*
X79211941Y-29600231D01*
X79247427Y-29583448D01*
X79284386Y-29570224D01*
X79322464Y-29560686D01*
X79361293Y-29554926D01*
X79400500Y-29553000D01*
X81000500Y-29553000D01*
X81039707Y-29554926D01*
X81039707Y-29554926D01*
G37*
D16*
X80200500Y-30353000D03*
D15*
G36*
X73419707Y-34634926D02*
X73458536Y-34640686D01*
X73496614Y-34650224D01*
X73533573Y-34663448D01*
X73569059Y-34680231D01*
X73602728Y-34700412D01*
X73634257Y-34723796D01*
X73663343Y-34750157D01*
X73689704Y-34779243D01*
X73713088Y-34810772D01*
X73733269Y-34844441D01*
X73750052Y-34879927D01*
X73763276Y-34916886D01*
X73772814Y-34954964D01*
X73778574Y-34993793D01*
X73780500Y-35033000D01*
X73780500Y-35833000D01*
X73778574Y-35872207D01*
X73772814Y-35911036D01*
X73763276Y-35949114D01*
X73750052Y-35986073D01*
X73733269Y-36021559D01*
X73713088Y-36055228D01*
X73689704Y-36086757D01*
X73663343Y-36115843D01*
X73634257Y-36142204D01*
X73602728Y-36165588D01*
X73569059Y-36185769D01*
X73533573Y-36202552D01*
X73496614Y-36215776D01*
X73458536Y-36225314D01*
X73419707Y-36231074D01*
X73380500Y-36233000D01*
X71780500Y-36233000D01*
X71741293Y-36231074D01*
X71702464Y-36225314D01*
X71664386Y-36215776D01*
X71627427Y-36202552D01*
X71591941Y-36185769D01*
X71558272Y-36165588D01*
X71526743Y-36142204D01*
X71497657Y-36115843D01*
X71471296Y-36086757D01*
X71447912Y-36055228D01*
X71427731Y-36021559D01*
X71410948Y-35986073D01*
X71397724Y-35949114D01*
X71388186Y-35911036D01*
X71382426Y-35872207D01*
X71380500Y-35833000D01*
X71380500Y-35033000D01*
X71382426Y-34993793D01*
X71388186Y-34954964D01*
X71397724Y-34916886D01*
X71410948Y-34879927D01*
X71427731Y-34844441D01*
X71447912Y-34810772D01*
X71471296Y-34779243D01*
X71497657Y-34750157D01*
X71526743Y-34723796D01*
X71558272Y-34700412D01*
X71591941Y-34680231D01*
X71627427Y-34663448D01*
X71664386Y-34650224D01*
X71702464Y-34640686D01*
X71741293Y-34634926D01*
X71780500Y-34633000D01*
X73380500Y-34633000D01*
X73419707Y-34634926D01*
X73419707Y-34634926D01*
G37*
D16*
X72580500Y-35433000D03*
D15*
G36*
X81039707Y-32094926D02*
X81078536Y-32100686D01*
X81116614Y-32110224D01*
X81153573Y-32123448D01*
X81189059Y-32140231D01*
X81222728Y-32160412D01*
X81254257Y-32183796D01*
X81283343Y-32210157D01*
X81309704Y-32239243D01*
X81333088Y-32270772D01*
X81353269Y-32304441D01*
X81370052Y-32339927D01*
X81383276Y-32376886D01*
X81392814Y-32414964D01*
X81398574Y-32453793D01*
X81400500Y-32493000D01*
X81400500Y-33293000D01*
X81398574Y-33332207D01*
X81392814Y-33371036D01*
X81383276Y-33409114D01*
X81370052Y-33446073D01*
X81353269Y-33481559D01*
X81333088Y-33515228D01*
X81309704Y-33546757D01*
X81283343Y-33575843D01*
X81254257Y-33602204D01*
X81222728Y-33625588D01*
X81189059Y-33645769D01*
X81153573Y-33662552D01*
X81116614Y-33675776D01*
X81078536Y-33685314D01*
X81039707Y-33691074D01*
X81000500Y-33693000D01*
X79400500Y-33693000D01*
X79361293Y-33691074D01*
X79322464Y-33685314D01*
X79284386Y-33675776D01*
X79247427Y-33662552D01*
X79211941Y-33645769D01*
X79178272Y-33625588D01*
X79146743Y-33602204D01*
X79117657Y-33575843D01*
X79091296Y-33546757D01*
X79067912Y-33515228D01*
X79047731Y-33481559D01*
X79030948Y-33446073D01*
X79017724Y-33409114D01*
X79008186Y-33371036D01*
X79002426Y-33332207D01*
X79000500Y-33293000D01*
X79000500Y-32493000D01*
X79002426Y-32453793D01*
X79008186Y-32414964D01*
X79017724Y-32376886D01*
X79030948Y-32339927D01*
X79047731Y-32304441D01*
X79067912Y-32270772D01*
X79091296Y-32239243D01*
X79117657Y-32210157D01*
X79146743Y-32183796D01*
X79178272Y-32160412D01*
X79211941Y-32140231D01*
X79247427Y-32123448D01*
X79284386Y-32110224D01*
X79322464Y-32100686D01*
X79361293Y-32094926D01*
X79400500Y-32093000D01*
X81000500Y-32093000D01*
X81039707Y-32094926D01*
X81039707Y-32094926D01*
G37*
D16*
X80200500Y-32893000D03*
D15*
G36*
X73419707Y-32094926D02*
X73458536Y-32100686D01*
X73496614Y-32110224D01*
X73533573Y-32123448D01*
X73569059Y-32140231D01*
X73602728Y-32160412D01*
X73634257Y-32183796D01*
X73663343Y-32210157D01*
X73689704Y-32239243D01*
X73713088Y-32270772D01*
X73733269Y-32304441D01*
X73750052Y-32339927D01*
X73763276Y-32376886D01*
X73772814Y-32414964D01*
X73778574Y-32453793D01*
X73780500Y-32493000D01*
X73780500Y-33293000D01*
X73778574Y-33332207D01*
X73772814Y-33371036D01*
X73763276Y-33409114D01*
X73750052Y-33446073D01*
X73733269Y-33481559D01*
X73713088Y-33515228D01*
X73689704Y-33546757D01*
X73663343Y-33575843D01*
X73634257Y-33602204D01*
X73602728Y-33625588D01*
X73569059Y-33645769D01*
X73533573Y-33662552D01*
X73496614Y-33675776D01*
X73458536Y-33685314D01*
X73419707Y-33691074D01*
X73380500Y-33693000D01*
X71780500Y-33693000D01*
X71741293Y-33691074D01*
X71702464Y-33685314D01*
X71664386Y-33675776D01*
X71627427Y-33662552D01*
X71591941Y-33645769D01*
X71558272Y-33625588D01*
X71526743Y-33602204D01*
X71497657Y-33575843D01*
X71471296Y-33546757D01*
X71447912Y-33515228D01*
X71427731Y-33481559D01*
X71410948Y-33446073D01*
X71397724Y-33409114D01*
X71388186Y-33371036D01*
X71382426Y-33332207D01*
X71380500Y-33293000D01*
X71380500Y-32493000D01*
X71382426Y-32453793D01*
X71388186Y-32414964D01*
X71397724Y-32376886D01*
X71410948Y-32339927D01*
X71427731Y-32304441D01*
X71447912Y-32270772D01*
X71471296Y-32239243D01*
X71497657Y-32210157D01*
X71526743Y-32183796D01*
X71558272Y-32160412D01*
X71591941Y-32140231D01*
X71627427Y-32123448D01*
X71664386Y-32110224D01*
X71702464Y-32100686D01*
X71741293Y-32094926D01*
X71780500Y-32093000D01*
X73380500Y-32093000D01*
X73419707Y-32094926D01*
X73419707Y-32094926D01*
G37*
D16*
X72580500Y-32893000D03*
D15*
G36*
X81039707Y-34634926D02*
X81078536Y-34640686D01*
X81116614Y-34650224D01*
X81153573Y-34663448D01*
X81189059Y-34680231D01*
X81222728Y-34700412D01*
X81254257Y-34723796D01*
X81283343Y-34750157D01*
X81309704Y-34779243D01*
X81333088Y-34810772D01*
X81353269Y-34844441D01*
X81370052Y-34879927D01*
X81383276Y-34916886D01*
X81392814Y-34954964D01*
X81398574Y-34993793D01*
X81400500Y-35033000D01*
X81400500Y-35833000D01*
X81398574Y-35872207D01*
X81392814Y-35911036D01*
X81383276Y-35949114D01*
X81370052Y-35986073D01*
X81353269Y-36021559D01*
X81333088Y-36055228D01*
X81309704Y-36086757D01*
X81283343Y-36115843D01*
X81254257Y-36142204D01*
X81222728Y-36165588D01*
X81189059Y-36185769D01*
X81153573Y-36202552D01*
X81116614Y-36215776D01*
X81078536Y-36225314D01*
X81039707Y-36231074D01*
X81000500Y-36233000D01*
X79400500Y-36233000D01*
X79361293Y-36231074D01*
X79322464Y-36225314D01*
X79284386Y-36215776D01*
X79247427Y-36202552D01*
X79211941Y-36185769D01*
X79178272Y-36165588D01*
X79146743Y-36142204D01*
X79117657Y-36115843D01*
X79091296Y-36086757D01*
X79067912Y-36055228D01*
X79047731Y-36021559D01*
X79030948Y-35986073D01*
X79017724Y-35949114D01*
X79008186Y-35911036D01*
X79002426Y-35872207D01*
X79000500Y-35833000D01*
X79000500Y-35033000D01*
X79002426Y-34993793D01*
X79008186Y-34954964D01*
X79017724Y-34916886D01*
X79030948Y-34879927D01*
X79047731Y-34844441D01*
X79067912Y-34810772D01*
X79091296Y-34779243D01*
X79117657Y-34750157D01*
X79146743Y-34723796D01*
X79178272Y-34700412D01*
X79211941Y-34680231D01*
X79247427Y-34663448D01*
X79284386Y-34650224D01*
X79322464Y-34640686D01*
X79361293Y-34634926D01*
X79400500Y-34633000D01*
X81000500Y-34633000D01*
X81039707Y-34634926D01*
X81039707Y-34634926D01*
G37*
D16*
X80200500Y-35433000D03*
D17*
X72580500Y-30353000D03*
G04 #@! TD*
M02*
