M48
;DRILL file {KiCad (5.0.0)} date 11/08/18 10:35:30
;FORMAT={-:-/ absolute / metric / decimal}
FMAT,2
METRIC,TZ
T1C0.600
T2C0.800
T3C1.000
T4C1.520
T5C3.000
%
G90
G05
M71
T1
X105.461Y-83.769
T2
X62.357Y-48.26
X69.541Y-41.076
X57.912Y-33.655
X60.452Y-33.655
X82.931Y-59.436
X90.115Y-52.252
X62.357Y-58.864
X69.541Y-51.68
X72.581Y-30.353
X72.581Y-32.893
X72.581Y-35.433
X80.2Y-30.353
X80.2Y-32.893
X80.2Y-35.433
X82.859Y-81.098
X90.043Y-73.914
X72.581Y-41.275
X72.581Y-43.815
X72.581Y-46.355
X80.2Y-41.275
X80.2Y-43.815
X80.2Y-46.355
X62.357Y-80.454
X69.541Y-73.27
X57.912Y-76.517
X60.452Y-76.517
X82.931Y-48.959
X90.115Y-41.774
X72.581Y-52.197
X72.581Y-54.737
X72.581Y-57.277
X80.2Y-52.197
X80.2Y-54.737
X80.2Y-57.277
X57.912Y-44.323
X60.452Y-44.323
X82.931Y-70.04
X90.115Y-62.856
X72.581Y-73.977
X72.581Y-76.517
X72.581Y-79.057
X80.2Y-73.977
X80.2Y-76.517
X80.2Y-79.057
X57.912Y-54.927
X60.452Y-54.927
X62.357Y-69.596
X69.541Y-62.412
X82.995Y-38.354
X90.179Y-31.17
X72.581Y-63.094
X72.581Y-65.634
X72.581Y-68.174
X80.2Y-63.094
X80.2Y-65.634
X80.2Y-68.174
X62.357Y-37.592
X69.541Y-30.408
X57.912Y-65.659
X60.452Y-65.659
T3
X94.742Y-65.977
X97.282Y-65.977
X99.822Y-65.977
X94.742Y-34.29
X97.282Y-34.29
X99.822Y-34.29
X94.678Y-77.025
X97.218Y-77.025
X99.758Y-77.025
X94.742Y-44.895
X97.282Y-44.895
X99.822Y-44.895
X94.742Y-55.372
X97.282Y-55.372
X99.822Y-55.372
T4
X108.394Y-73.977
X108.394Y-79.057
X50.673Y-73.787
X50.673Y-78.867
X108.394Y-31.305
X108.394Y-36.386
X50.673Y-63.119
X50.673Y-68.199
X50.673Y-31.115
X50.673Y-36.195
X108.394Y-52.642
X108.394Y-57.721
X90.424Y-89.218
X95.504Y-89.218
X108.394Y-63.309
X108.394Y-68.389
X50.673Y-52.451
X50.673Y-57.531
X50.673Y-41.783
X50.673Y-46.863
X108.394Y-41.974
X108.394Y-47.053
T5
X57.15Y-26.416
X102.108Y-26.416
X105.054Y-89.611
T0
M30
