G04 #@! TF.GenerationSoftware,KiCad,Pcbnew,(5.0.0)*
G04 #@! TF.CreationDate,2018-11-08T10:35:27-05:00*
G04 #@! TF.ProjectId,Tarjeta de potencia con moc,5461726A65746120646520706F74656E,rev?*
G04 #@! TF.SameCoordinates,Original*
G04 #@! TF.FileFunction,Legend,Bot*
G04 #@! TF.FilePolarity,Positive*
%FSLAX46Y46*%
G04 Gerber Fmt 4.6, Leading zero omitted, Abs format (unit mm)*
G04 Created by KiCad (PCBNEW (5.0.0)) date 11/08/18 10:35:27*
%MOMM*%
%LPD*%
G01*
G04 APERTURE LIST*
%ADD10C,0.300000*%
%ADD11C,0.425000*%
%ADD12C,0.150000*%
%ADD13C,0.200000*%
%ADD14C,0.600000*%
%ADD15C,0.375000*%
%ADD16C,0.010000*%
G04 APERTURE END LIST*
D10*
X110490000Y-71120000D02*
X106324400Y-71120000D01*
X110540800Y-60553600D02*
X106375200Y-60553600D01*
X110540800Y-49834800D02*
X106375200Y-49834800D01*
X110540800Y-39166800D02*
X106426000Y-39166800D01*
X110540800Y-81026000D02*
X110540800Y-81229200D01*
X110540800Y-29210000D02*
X110540800Y-81127600D01*
X106375200Y-29210000D02*
X110490000Y-29210000D01*
X106324400Y-81229200D02*
X106375200Y-29210000D01*
X110540800Y-81229200D02*
X106324400Y-81229200D01*
X48514000Y-71018400D02*
X52679600Y-71018400D01*
X48564800Y-60350400D02*
X52679600Y-60350400D01*
X48615600Y-49631600D02*
X52781200Y-49631600D01*
X48564800Y-38862000D02*
X52781200Y-38862000D01*
X48514000Y-81076800D02*
X48514000Y-29006800D01*
X52781200Y-81076800D02*
X48514000Y-81076800D01*
X52832000Y-29057600D02*
X52781200Y-81026000D01*
X48564800Y-29006800D02*
X52832000Y-29006800D01*
D11*
X63664583Y-61680742D02*
X64331250Y-61680742D01*
X64462202Y-62728361D02*
X64212202Y-60728361D01*
X63259821Y-60728361D01*
X62747916Y-62728361D02*
X62581250Y-61395028D01*
X62497916Y-60728361D02*
X62605059Y-60823600D01*
X62521726Y-60918838D01*
X62414583Y-60823600D01*
X62497916Y-60728361D01*
X62521726Y-60918838D01*
X61795536Y-62728361D02*
X61628869Y-61395028D01*
X61676488Y-61775980D02*
X61557440Y-61585504D01*
X61450297Y-61490266D01*
X61247916Y-61395028D01*
X61057440Y-61395028D01*
X59533631Y-61395028D02*
X59700297Y-62728361D01*
X60390774Y-61395028D02*
X60521726Y-62442647D01*
X60450297Y-62633123D01*
X60271726Y-62728361D01*
X59986012Y-62728361D01*
X59783631Y-62633123D01*
X59676488Y-62537885D01*
X58938393Y-62728361D02*
X57724107Y-61395028D01*
X58771726Y-61395028D02*
X57890774Y-62728361D01*
D10*
X85445600Y-64617600D02*
X85445600Y-56743600D01*
X103784400Y-64617600D02*
X85445600Y-64617600D01*
X103733600Y-56743600D02*
X103784400Y-64617600D01*
X85445600Y-56743600D02*
X103733600Y-56743600D01*
D12*
X108129428Y-76019085D02*
X108558000Y-76019085D01*
X108643714Y-75990514D01*
X108700857Y-75933371D01*
X108729428Y-75847657D01*
X108729428Y-75790514D01*
X108729428Y-76619085D02*
X108729428Y-76276228D01*
X108729428Y-76447657D02*
X108129428Y-76447657D01*
X108215142Y-76390514D01*
X108272285Y-76333371D01*
X108300857Y-76276228D01*
X108129428Y-76990514D02*
X108129428Y-77047657D01*
X108158000Y-77104800D01*
X108186571Y-77133371D01*
X108243714Y-77161942D01*
X108358000Y-77190514D01*
X108500857Y-77190514D01*
X108615142Y-77161942D01*
X108672285Y-77133371D01*
X108700857Y-77104800D01*
X108729428Y-77047657D01*
X108729428Y-76990514D01*
X108700857Y-76933371D01*
X108672285Y-76904800D01*
X108615142Y-76876228D01*
X108500857Y-76847657D01*
X108358000Y-76847657D01*
X108243714Y-76876228D01*
X108186571Y-76904800D01*
X108158000Y-76933371D01*
X108129428Y-76990514D01*
X108078628Y-65687600D02*
X108507200Y-65687600D01*
X108592914Y-65659028D01*
X108650057Y-65601885D01*
X108678628Y-65516171D01*
X108678628Y-65459028D01*
X108678628Y-66001885D02*
X108678628Y-66116171D01*
X108650057Y-66173314D01*
X108621485Y-66201885D01*
X108535771Y-66259028D01*
X108421485Y-66287600D01*
X108192914Y-66287600D01*
X108135771Y-66259028D01*
X108107200Y-66230457D01*
X108078628Y-66173314D01*
X108078628Y-66059028D01*
X108107200Y-66001885D01*
X108135771Y-65973314D01*
X108192914Y-65944742D01*
X108335771Y-65944742D01*
X108392914Y-65973314D01*
X108421485Y-66001885D01*
X108450057Y-66059028D01*
X108450057Y-66173314D01*
X108421485Y-66230457D01*
X108392914Y-66259028D01*
X108335771Y-66287600D01*
X108129428Y-55019600D02*
X108558000Y-55019600D01*
X108643714Y-54991028D01*
X108700857Y-54933885D01*
X108729428Y-54848171D01*
X108729428Y-54791028D01*
X108386571Y-55391028D02*
X108358000Y-55333885D01*
X108329428Y-55305314D01*
X108272285Y-55276742D01*
X108243714Y-55276742D01*
X108186571Y-55305314D01*
X108158000Y-55333885D01*
X108129428Y-55391028D01*
X108129428Y-55505314D01*
X108158000Y-55562457D01*
X108186571Y-55591028D01*
X108243714Y-55619600D01*
X108272285Y-55619600D01*
X108329428Y-55591028D01*
X108358000Y-55562457D01*
X108386571Y-55505314D01*
X108386571Y-55391028D01*
X108415142Y-55333885D01*
X108443714Y-55305314D01*
X108500857Y-55276742D01*
X108615142Y-55276742D01*
X108672285Y-55305314D01*
X108700857Y-55333885D01*
X108729428Y-55391028D01*
X108729428Y-55505314D01*
X108700857Y-55562457D01*
X108672285Y-55591028D01*
X108615142Y-55619600D01*
X108500857Y-55619600D01*
X108443714Y-55591028D01*
X108415142Y-55562457D01*
X108386571Y-55505314D01*
X108129428Y-44300800D02*
X108558000Y-44300800D01*
X108643714Y-44272228D01*
X108700857Y-44215085D01*
X108729428Y-44129371D01*
X108729428Y-44072228D01*
X108129428Y-44529371D02*
X108129428Y-44929371D01*
X108729428Y-44672228D01*
X108129428Y-33632800D02*
X108558000Y-33632800D01*
X108643714Y-33604228D01*
X108700857Y-33547085D01*
X108729428Y-33461371D01*
X108729428Y-33404228D01*
X108129428Y-34175657D02*
X108129428Y-34061371D01*
X108158000Y-34004228D01*
X108186571Y-33975657D01*
X108272285Y-33918514D01*
X108386571Y-33889942D01*
X108615142Y-33889942D01*
X108672285Y-33918514D01*
X108700857Y-33947085D01*
X108729428Y-34004228D01*
X108729428Y-34118514D01*
X108700857Y-34175657D01*
X108672285Y-34204228D01*
X108615142Y-34232800D01*
X108472285Y-34232800D01*
X108415142Y-34204228D01*
X108386571Y-34175657D01*
X108358000Y-34118514D01*
X108358000Y-34004228D01*
X108386571Y-33947085D01*
X108415142Y-33918514D01*
X108472285Y-33889942D01*
X50976171Y-76501600D02*
X50547600Y-76501600D01*
X50461885Y-76530171D01*
X50404742Y-76587314D01*
X50376171Y-76673028D01*
X50376171Y-76730171D01*
X50976171Y-75930171D02*
X50976171Y-76215885D01*
X50690457Y-76244457D01*
X50719028Y-76215885D01*
X50747600Y-76158742D01*
X50747600Y-76015885D01*
X50719028Y-75958742D01*
X50690457Y-75930171D01*
X50633314Y-75901600D01*
X50490457Y-75901600D01*
X50433314Y-75930171D01*
X50404742Y-75958742D01*
X50376171Y-76015885D01*
X50376171Y-76158742D01*
X50404742Y-76215885D01*
X50433314Y-76244457D01*
X50925371Y-65833600D02*
X50496800Y-65833600D01*
X50411085Y-65862171D01*
X50353942Y-65919314D01*
X50325371Y-66005028D01*
X50325371Y-66062171D01*
X50725371Y-65290742D02*
X50325371Y-65290742D01*
X50953942Y-65433600D02*
X50525371Y-65576457D01*
X50525371Y-65205028D01*
X50976171Y-55165600D02*
X50547600Y-55165600D01*
X50461885Y-55194171D01*
X50404742Y-55251314D01*
X50376171Y-55337028D01*
X50376171Y-55394171D01*
X50976171Y-54937028D02*
X50976171Y-54565600D01*
X50747600Y-54765600D01*
X50747600Y-54679885D01*
X50719028Y-54622742D01*
X50690457Y-54594171D01*
X50633314Y-54565600D01*
X50490457Y-54565600D01*
X50433314Y-54594171D01*
X50404742Y-54622742D01*
X50376171Y-54679885D01*
X50376171Y-54851314D01*
X50404742Y-54908457D01*
X50433314Y-54937028D01*
X50976171Y-44548400D02*
X50547600Y-44548400D01*
X50461885Y-44576971D01*
X50404742Y-44634114D01*
X50376171Y-44719828D01*
X50376171Y-44776971D01*
X50919028Y-44291257D02*
X50947600Y-44262685D01*
X50976171Y-44205542D01*
X50976171Y-44062685D01*
X50947600Y-44005542D01*
X50919028Y-43976971D01*
X50861885Y-43948400D01*
X50804742Y-43948400D01*
X50719028Y-43976971D01*
X50376171Y-44319828D01*
X50376171Y-43948400D01*
X51026971Y-33778800D02*
X50598400Y-33778800D01*
X50512685Y-33807371D01*
X50455542Y-33864514D01*
X50426971Y-33950228D01*
X50426971Y-34007371D01*
X50426971Y-33178800D02*
X50426971Y-33521657D01*
X50426971Y-33350228D02*
X51026971Y-33350228D01*
X50941257Y-33407371D01*
X50884114Y-33464514D01*
X50855542Y-33521657D01*
D13*
X104556945Y-26507055D02*
G75*
G03X104556945Y-26507055I-2448945J0D01*
G01*
X107503345Y-89662000D02*
G75*
G03X107503345Y-89662000I-2448945J0D01*
G01*
D10*
X87579200Y-90982800D02*
X87579200Y-87934800D01*
X84988400Y-90982800D02*
X87579200Y-90982800D01*
X84988400Y-87884000D02*
X84988400Y-90982800D01*
X87579200Y-87884000D02*
X84988400Y-87884000D01*
X97891600Y-90982800D02*
X97891600Y-87782400D01*
X100431600Y-91033600D02*
X97891600Y-91033600D01*
X100431600Y-87782400D02*
X100431600Y-91033600D01*
X97891600Y-87782400D02*
X100431600Y-87782400D01*
X94217885Y-58725657D02*
X94217885Y-57525657D01*
X93932171Y-57525657D01*
X93760742Y-57582800D01*
X93646457Y-57697085D01*
X93589314Y-57811371D01*
X93532171Y-58039942D01*
X93532171Y-58211371D01*
X93589314Y-58439942D01*
X93646457Y-58554228D01*
X93760742Y-58668514D01*
X93932171Y-58725657D01*
X94217885Y-58725657D01*
X92503600Y-58725657D02*
X92503600Y-58097085D01*
X92560742Y-57982800D01*
X92675028Y-57925657D01*
X92903600Y-57925657D01*
X93017885Y-57982800D01*
X92503600Y-58668514D02*
X92617885Y-58725657D01*
X92903600Y-58725657D01*
X93017885Y-58668514D01*
X93075028Y-58554228D01*
X93075028Y-58439942D01*
X93017885Y-58325657D01*
X92903600Y-58268514D01*
X92617885Y-58268514D01*
X92503600Y-58211371D01*
X91932171Y-57925657D02*
X91932171Y-58725657D01*
X91932171Y-58039942D02*
X91875028Y-57982800D01*
X91760742Y-57925657D01*
X91589314Y-57925657D01*
X91475028Y-57982800D01*
X91417885Y-58097085D01*
X91417885Y-58725657D01*
X90332171Y-57925657D02*
X90332171Y-58897085D01*
X90389314Y-59011371D01*
X90446457Y-59068514D01*
X90560742Y-59125657D01*
X90732171Y-59125657D01*
X90846457Y-59068514D01*
X90332171Y-58668514D02*
X90446457Y-58725657D01*
X90675028Y-58725657D01*
X90789314Y-58668514D01*
X90846457Y-58611371D01*
X90903600Y-58497085D01*
X90903600Y-58154228D01*
X90846457Y-58039942D01*
X90789314Y-57982800D01*
X90675028Y-57925657D01*
X90446457Y-57925657D01*
X90332171Y-57982800D01*
X89303600Y-58668514D02*
X89417885Y-58725657D01*
X89646457Y-58725657D01*
X89760742Y-58668514D01*
X89817885Y-58554228D01*
X89817885Y-58097085D01*
X89760742Y-57982800D01*
X89646457Y-57925657D01*
X89417885Y-57925657D01*
X89303600Y-57982800D01*
X89246457Y-58097085D01*
X89246457Y-58211371D01*
X89817885Y-58325657D01*
X88732171Y-58725657D02*
X88732171Y-57925657D01*
X88732171Y-58154228D02*
X88675028Y-58039942D01*
X88617885Y-57982800D01*
X88503600Y-57925657D01*
X88389314Y-57925657D01*
X97646457Y-60825657D02*
X97646457Y-59625657D01*
X97132171Y-60825657D02*
X97132171Y-60197085D01*
X97189314Y-60082800D01*
X97303600Y-60025657D01*
X97475028Y-60025657D01*
X97589314Y-60082800D01*
X97646457Y-60139942D01*
X96560742Y-60825657D02*
X96560742Y-60025657D01*
X96560742Y-59625657D02*
X96617885Y-59682800D01*
X96560742Y-59739942D01*
X96503600Y-59682800D01*
X96560742Y-59625657D01*
X96560742Y-59739942D01*
X95475028Y-60025657D02*
X95475028Y-60997085D01*
X95532171Y-61111371D01*
X95589314Y-61168514D01*
X95703600Y-61225657D01*
X95875028Y-61225657D01*
X95989314Y-61168514D01*
X95475028Y-60768514D02*
X95589314Y-60825657D01*
X95817885Y-60825657D01*
X95932171Y-60768514D01*
X95989314Y-60711371D01*
X96046457Y-60597085D01*
X96046457Y-60254228D01*
X95989314Y-60139942D01*
X95932171Y-60082800D01*
X95817885Y-60025657D01*
X95589314Y-60025657D01*
X95475028Y-60082800D01*
X94903600Y-60825657D02*
X94903600Y-59625657D01*
X94389314Y-60825657D02*
X94389314Y-60197085D01*
X94446457Y-60082800D01*
X94560742Y-60025657D01*
X94732171Y-60025657D01*
X94846457Y-60082800D01*
X94903600Y-60139942D01*
X93017885Y-60025657D02*
X92732171Y-60825657D01*
X92446457Y-60025657D01*
X91817885Y-60825657D02*
X91932171Y-60768514D01*
X91989314Y-60711371D01*
X92046457Y-60597085D01*
X92046457Y-60254228D01*
X91989314Y-60139942D01*
X91932171Y-60082800D01*
X91817885Y-60025657D01*
X91646457Y-60025657D01*
X91532171Y-60082800D01*
X91475028Y-60139942D01*
X91417885Y-60254228D01*
X91417885Y-60597085D01*
X91475028Y-60711371D01*
X91532171Y-60768514D01*
X91646457Y-60825657D01*
X91817885Y-60825657D01*
X90732171Y-60825657D02*
X90846457Y-60768514D01*
X90903600Y-60654228D01*
X90903600Y-59625657D01*
X90446457Y-60025657D02*
X89989314Y-60025657D01*
X90275028Y-59625657D02*
X90275028Y-60654228D01*
X90217885Y-60768514D01*
X90103600Y-60825657D01*
X89989314Y-60825657D01*
X89075028Y-60825657D02*
X89075028Y-60197085D01*
X89132171Y-60082800D01*
X89246457Y-60025657D01*
X89475028Y-60025657D01*
X89589314Y-60082800D01*
X89075028Y-60768514D02*
X89189314Y-60825657D01*
X89475028Y-60825657D01*
X89589314Y-60768514D01*
X89646457Y-60654228D01*
X89646457Y-60539942D01*
X89589314Y-60425657D01*
X89475028Y-60368514D01*
X89189314Y-60368514D01*
X89075028Y-60311371D01*
X87989314Y-60025657D02*
X87989314Y-60997085D01*
X88046457Y-61111371D01*
X88103600Y-61168514D01*
X88217885Y-61225657D01*
X88389314Y-61225657D01*
X88503600Y-61168514D01*
X87989314Y-60768514D02*
X88103600Y-60825657D01*
X88332171Y-60825657D01*
X88446457Y-60768514D01*
X88503600Y-60711371D01*
X88560742Y-60597085D01*
X88560742Y-60254228D01*
X88503600Y-60139942D01*
X88446457Y-60082800D01*
X88332171Y-60025657D01*
X88103600Y-60025657D01*
X87989314Y-60082800D01*
X86960742Y-60768514D02*
X87075028Y-60825657D01*
X87303600Y-60825657D01*
X87417885Y-60768514D01*
X87475028Y-60654228D01*
X87475028Y-60197085D01*
X87417885Y-60082800D01*
X87303600Y-60025657D01*
X87075028Y-60025657D01*
X86960742Y-60082800D01*
X86903600Y-60197085D01*
X86903600Y-60311371D01*
X87475028Y-60425657D01*
D14*
X76403200Y-27940000D02*
X76454000Y-84328000D01*
D13*
X58318400Y-71221600D02*
X57607200Y-71221600D01*
X58369200Y-71221600D02*
X58318400Y-71221600D01*
X57607200Y-74726800D02*
X57607200Y-71221600D01*
X65024000Y-74726800D02*
X57607200Y-74726800D01*
X65024000Y-71221600D02*
X65024000Y-74726800D01*
X58318400Y-71221600D02*
X65024000Y-71221600D01*
X97739200Y-81127600D02*
X90779600Y-81127600D01*
X97739200Y-84175600D02*
X97739200Y-81127600D01*
X90779600Y-84175600D02*
X97739200Y-84175600D01*
X90779600Y-81127600D02*
X90779600Y-84175600D01*
D10*
X85844914Y-90035771D02*
X86559200Y-90035771D01*
X86559200Y-88535771D01*
X99590171Y-90035771D02*
X99590171Y-88535771D01*
X98733028Y-90035771D01*
X98733028Y-88535771D01*
D15*
X63248171Y-73382914D02*
X63319600Y-73454342D01*
X63533885Y-73525771D01*
X63676742Y-73525771D01*
X63891028Y-73454342D01*
X64033885Y-73311485D01*
X64105314Y-73168628D01*
X64176742Y-72882914D01*
X64176742Y-72668628D01*
X64105314Y-72382914D01*
X64033885Y-72240057D01*
X63891028Y-72097200D01*
X63676742Y-72025771D01*
X63533885Y-72025771D01*
X63319600Y-72097200D01*
X63248171Y-72168628D01*
X62319600Y-72025771D02*
X62033885Y-72025771D01*
X61891028Y-72097200D01*
X61748171Y-72240057D01*
X61676742Y-72525771D01*
X61676742Y-73025771D01*
X61748171Y-73311485D01*
X61891028Y-73454342D01*
X62033885Y-73525771D01*
X62319600Y-73525771D01*
X62462457Y-73454342D01*
X62605314Y-73311485D01*
X62676742Y-73025771D01*
X62676742Y-72525771D01*
X62605314Y-72240057D01*
X62462457Y-72097200D01*
X62319600Y-72025771D01*
X60319600Y-73525771D02*
X61033885Y-73525771D01*
X61033885Y-72025771D01*
X59819600Y-73525771D02*
X59819600Y-72025771D01*
X59462457Y-72025771D01*
X59248171Y-72097200D01*
X59105314Y-72240057D01*
X59033885Y-72382914D01*
X58962457Y-72668628D01*
X58962457Y-72882914D01*
X59033885Y-73168628D01*
X59105314Y-73311485D01*
X59248171Y-73454342D01*
X59462457Y-73525771D01*
X59819600Y-73525771D01*
X95867314Y-83330171D02*
X95867314Y-81830171D01*
X95867314Y-82544457D02*
X95010171Y-82544457D01*
X95010171Y-83330171D02*
X95010171Y-81830171D01*
X94010171Y-81830171D02*
X93724457Y-81830171D01*
X93581600Y-81901600D01*
X93438742Y-82044457D01*
X93367314Y-82330171D01*
X93367314Y-82830171D01*
X93438742Y-83115885D01*
X93581600Y-83258742D01*
X93724457Y-83330171D01*
X94010171Y-83330171D01*
X94153028Y-83258742D01*
X94295885Y-83115885D01*
X94367314Y-82830171D01*
X94367314Y-82330171D01*
X94295885Y-82044457D01*
X94153028Y-81901600D01*
X94010171Y-81830171D01*
X92938742Y-81830171D02*
X92081600Y-81830171D01*
X92510171Y-83330171D02*
X92510171Y-81830171D01*
D16*
G04 #@! TO.C,*
G36*
X59804256Y-41543918D02*
X59748799Y-41571568D01*
X59699852Y-41622480D01*
X59686371Y-41641338D01*
X59671686Y-41666015D01*
X59662158Y-41692816D01*
X59656707Y-41728587D01*
X59654253Y-41780169D01*
X59653714Y-41848267D01*
X59656148Y-41941588D01*
X59664606Y-42011657D01*
X59680826Y-42063931D01*
X59706546Y-42103869D01*
X59743503Y-42136929D01*
X59746218Y-42138886D01*
X59782640Y-42158908D01*
X59826498Y-42168815D01*
X59882276Y-42171257D01*
X59972952Y-42171257D01*
X59972990Y-42259283D01*
X59973834Y-42308308D01*
X59978976Y-42337065D01*
X59992413Y-42354311D01*
X60018142Y-42368808D01*
X60024321Y-42371769D01*
X60053236Y-42385648D01*
X60075624Y-42394414D01*
X60092271Y-42395171D01*
X60103964Y-42385023D01*
X60111490Y-42361073D01*
X60115634Y-42320426D01*
X60117185Y-42260186D01*
X60116929Y-42177455D01*
X60115651Y-42069339D01*
X60115252Y-42037000D01*
X60113815Y-41925524D01*
X60112528Y-41852603D01*
X59973029Y-41852603D01*
X59972245Y-41914499D01*
X59968760Y-41954997D01*
X59960876Y-41981708D01*
X59946895Y-42002244D01*
X59937403Y-42012260D01*
X59898596Y-42041567D01*
X59864237Y-42043952D01*
X59828784Y-42019750D01*
X59827886Y-42018857D01*
X59813461Y-42000153D01*
X59804687Y-41974732D01*
X59800261Y-41935584D01*
X59798882Y-41875697D01*
X59798857Y-41862430D01*
X59802188Y-41779901D01*
X59813031Y-41722691D01*
X59832660Y-41687766D01*
X59862350Y-41672094D01*
X59879509Y-41670514D01*
X59920234Y-41677926D01*
X59948168Y-41702330D01*
X59964983Y-41746980D01*
X59972350Y-41815130D01*
X59973029Y-41852603D01*
X60112528Y-41852603D01*
X60112292Y-41839245D01*
X60110323Y-41774333D01*
X60107550Y-41726958D01*
X60103612Y-41693290D01*
X60098151Y-41669498D01*
X60090808Y-41651753D01*
X60081223Y-41636224D01*
X60077113Y-41630381D01*
X60022595Y-41575185D01*
X59953664Y-41543890D01*
X59873928Y-41535165D01*
X59804256Y-41543918D01*
X59804256Y-41543918D01*
G37*
X59804256Y-41543918D02*
X59748799Y-41571568D01*
X59699852Y-41622480D01*
X59686371Y-41641338D01*
X59671686Y-41666015D01*
X59662158Y-41692816D01*
X59656707Y-41728587D01*
X59654253Y-41780169D01*
X59653714Y-41848267D01*
X59656148Y-41941588D01*
X59664606Y-42011657D01*
X59680826Y-42063931D01*
X59706546Y-42103869D01*
X59743503Y-42136929D01*
X59746218Y-42138886D01*
X59782640Y-42158908D01*
X59826498Y-42168815D01*
X59882276Y-42171257D01*
X59972952Y-42171257D01*
X59972990Y-42259283D01*
X59973834Y-42308308D01*
X59978976Y-42337065D01*
X59992413Y-42354311D01*
X60018142Y-42368808D01*
X60024321Y-42371769D01*
X60053236Y-42385648D01*
X60075624Y-42394414D01*
X60092271Y-42395171D01*
X60103964Y-42385023D01*
X60111490Y-42361073D01*
X60115634Y-42320426D01*
X60117185Y-42260186D01*
X60116929Y-42177455D01*
X60115651Y-42069339D01*
X60115252Y-42037000D01*
X60113815Y-41925524D01*
X60112528Y-41852603D01*
X59973029Y-41852603D01*
X59972245Y-41914499D01*
X59968760Y-41954997D01*
X59960876Y-41981708D01*
X59946895Y-42002244D01*
X59937403Y-42012260D01*
X59898596Y-42041567D01*
X59864237Y-42043952D01*
X59828784Y-42019750D01*
X59827886Y-42018857D01*
X59813461Y-42000153D01*
X59804687Y-41974732D01*
X59800261Y-41935584D01*
X59798882Y-41875697D01*
X59798857Y-41862430D01*
X59802188Y-41779901D01*
X59813031Y-41722691D01*
X59832660Y-41687766D01*
X59862350Y-41672094D01*
X59879509Y-41670514D01*
X59920234Y-41677926D01*
X59948168Y-41702330D01*
X59964983Y-41746980D01*
X59972350Y-41815130D01*
X59973029Y-41852603D01*
X60112528Y-41852603D01*
X60112292Y-41839245D01*
X60110323Y-41774333D01*
X60107550Y-41726958D01*
X60103612Y-41693290D01*
X60098151Y-41669498D01*
X60090808Y-41651753D01*
X60081223Y-41636224D01*
X60077113Y-41630381D01*
X60022595Y-41575185D01*
X59953664Y-41543890D01*
X59873928Y-41535165D01*
X59804256Y-41543918D01*
G36*
X58687907Y-41551780D02*
X58641328Y-41578723D01*
X58608943Y-41605466D01*
X58585258Y-41633484D01*
X58568941Y-41667748D01*
X58558661Y-41713227D01*
X58553086Y-41774892D01*
X58550884Y-41857711D01*
X58550629Y-41917246D01*
X58550629Y-42136391D01*
X58612314Y-42164044D01*
X58674000Y-42191697D01*
X58681257Y-41951670D01*
X58684256Y-41862028D01*
X58687402Y-41796962D01*
X58691299Y-41752026D01*
X58696553Y-41722770D01*
X58703769Y-41704748D01*
X58713550Y-41693511D01*
X58716688Y-41691079D01*
X58764239Y-41672083D01*
X58812303Y-41679600D01*
X58840914Y-41699543D01*
X58852553Y-41713675D01*
X58860609Y-41732220D01*
X58865729Y-41760334D01*
X58868559Y-41803173D01*
X58869744Y-41865895D01*
X58869943Y-41931261D01*
X58869982Y-42013268D01*
X58871386Y-42071316D01*
X58876086Y-42110465D01*
X58886013Y-42135780D01*
X58903097Y-42152323D01*
X58929268Y-42165156D01*
X58964225Y-42178491D01*
X59002404Y-42193007D01*
X58997859Y-41935389D01*
X58996029Y-41842519D01*
X58993888Y-41773889D01*
X58990819Y-41724711D01*
X58986206Y-41690198D01*
X58979432Y-41665562D01*
X58969881Y-41646016D01*
X58958366Y-41628770D01*
X58902810Y-41573680D01*
X58835020Y-41541822D01*
X58761287Y-41534191D01*
X58687907Y-41551780D01*
X58687907Y-41551780D01*
G37*
X58687907Y-41551780D02*
X58641328Y-41578723D01*
X58608943Y-41605466D01*
X58585258Y-41633484D01*
X58568941Y-41667748D01*
X58558661Y-41713227D01*
X58553086Y-41774892D01*
X58550884Y-41857711D01*
X58550629Y-41917246D01*
X58550629Y-42136391D01*
X58612314Y-42164044D01*
X58674000Y-42191697D01*
X58681257Y-41951670D01*
X58684256Y-41862028D01*
X58687402Y-41796962D01*
X58691299Y-41752026D01*
X58696553Y-41722770D01*
X58703769Y-41704748D01*
X58713550Y-41693511D01*
X58716688Y-41691079D01*
X58764239Y-41672083D01*
X58812303Y-41679600D01*
X58840914Y-41699543D01*
X58852553Y-41713675D01*
X58860609Y-41732220D01*
X58865729Y-41760334D01*
X58868559Y-41803173D01*
X58869744Y-41865895D01*
X58869943Y-41931261D01*
X58869982Y-42013268D01*
X58871386Y-42071316D01*
X58876086Y-42110465D01*
X58886013Y-42135780D01*
X58903097Y-42152323D01*
X58929268Y-42165156D01*
X58964225Y-42178491D01*
X59002404Y-42193007D01*
X58997859Y-41935389D01*
X58996029Y-41842519D01*
X58993888Y-41773889D01*
X58990819Y-41724711D01*
X58986206Y-41690198D01*
X58979432Y-41665562D01*
X58969881Y-41646016D01*
X58958366Y-41628770D01*
X58902810Y-41573680D01*
X58835020Y-41541822D01*
X58761287Y-41534191D01*
X58687907Y-41551780D01*
G36*
X60362885Y-41545962D02*
X60294855Y-41581733D01*
X60244649Y-41639301D01*
X60226815Y-41676312D01*
X60212937Y-41731882D01*
X60205833Y-41802096D01*
X60205160Y-41878727D01*
X60210573Y-41953552D01*
X60221730Y-42018342D01*
X60238286Y-42064873D01*
X60243374Y-42072887D01*
X60303645Y-42132707D01*
X60375231Y-42168535D01*
X60452908Y-42179020D01*
X60531452Y-42162810D01*
X60553311Y-42153092D01*
X60595878Y-42123143D01*
X60633237Y-42083433D01*
X60636768Y-42078397D01*
X60651119Y-42054124D01*
X60660606Y-42028178D01*
X60666210Y-41994022D01*
X60668914Y-41945119D01*
X60669701Y-41874935D01*
X60669714Y-41859200D01*
X60669678Y-41854192D01*
X60524571Y-41854192D01*
X60523727Y-41920430D01*
X60520404Y-41964386D01*
X60513417Y-41992779D01*
X60501584Y-42012325D01*
X60495543Y-42018857D01*
X60460814Y-42043680D01*
X60427097Y-42042548D01*
X60393005Y-42021016D01*
X60372671Y-41998029D01*
X60360629Y-41964478D01*
X60353866Y-41911569D01*
X60353402Y-41905399D01*
X60352248Y-41809513D01*
X60364312Y-41738299D01*
X60389430Y-41692194D01*
X60427440Y-41671635D01*
X60441008Y-41670514D01*
X60476636Y-41676152D01*
X60501006Y-41695686D01*
X60515907Y-41733042D01*
X60523125Y-41792150D01*
X60524571Y-41854192D01*
X60669678Y-41854192D01*
X60669174Y-41784413D01*
X60666904Y-41732159D01*
X60661932Y-41695949D01*
X60653287Y-41669299D01*
X60639995Y-41645722D01*
X60637057Y-41641338D01*
X60587687Y-41582249D01*
X60533891Y-41547947D01*
X60468398Y-41534331D01*
X60446158Y-41533665D01*
X60362885Y-41545962D01*
X60362885Y-41545962D01*
G37*
X60362885Y-41545962D02*
X60294855Y-41581733D01*
X60244649Y-41639301D01*
X60226815Y-41676312D01*
X60212937Y-41731882D01*
X60205833Y-41802096D01*
X60205160Y-41878727D01*
X60210573Y-41953552D01*
X60221730Y-42018342D01*
X60238286Y-42064873D01*
X60243374Y-42072887D01*
X60303645Y-42132707D01*
X60375231Y-42168535D01*
X60452908Y-42179020D01*
X60531452Y-42162810D01*
X60553311Y-42153092D01*
X60595878Y-42123143D01*
X60633237Y-42083433D01*
X60636768Y-42078397D01*
X60651119Y-42054124D01*
X60660606Y-42028178D01*
X60666210Y-41994022D01*
X60668914Y-41945119D01*
X60669701Y-41874935D01*
X60669714Y-41859200D01*
X60669678Y-41854192D01*
X60524571Y-41854192D01*
X60523727Y-41920430D01*
X60520404Y-41964386D01*
X60513417Y-41992779D01*
X60501584Y-42012325D01*
X60495543Y-42018857D01*
X60460814Y-42043680D01*
X60427097Y-42042548D01*
X60393005Y-42021016D01*
X60372671Y-41998029D01*
X60360629Y-41964478D01*
X60353866Y-41911569D01*
X60353402Y-41905399D01*
X60352248Y-41809513D01*
X60364312Y-41738299D01*
X60389430Y-41692194D01*
X60427440Y-41671635D01*
X60441008Y-41670514D01*
X60476636Y-41676152D01*
X60501006Y-41695686D01*
X60515907Y-41733042D01*
X60523125Y-41792150D01*
X60524571Y-41854192D01*
X60669678Y-41854192D01*
X60669174Y-41784413D01*
X60666904Y-41732159D01*
X60661932Y-41695949D01*
X60653287Y-41669299D01*
X60639995Y-41645722D01*
X60637057Y-41641338D01*
X60587687Y-41582249D01*
X60533891Y-41547947D01*
X60468398Y-41534331D01*
X60446158Y-41533665D01*
X60362885Y-41545962D01*
G36*
X59235697Y-41555239D02*
X59178473Y-41593735D01*
X59134251Y-41649335D01*
X59107833Y-41720086D01*
X59102490Y-41772162D01*
X59103097Y-41793893D01*
X59108178Y-41810531D01*
X59122145Y-41825437D01*
X59149411Y-41841973D01*
X59194388Y-41863498D01*
X59261489Y-41893374D01*
X59261829Y-41893524D01*
X59323593Y-41921813D01*
X59374241Y-41946933D01*
X59408596Y-41966179D01*
X59421482Y-41976848D01*
X59421486Y-41976934D01*
X59410128Y-42000166D01*
X59383569Y-42025774D01*
X59353077Y-42044221D01*
X59337630Y-42047886D01*
X59295485Y-42035212D01*
X59259192Y-42003471D01*
X59241483Y-41968572D01*
X59224448Y-41942845D01*
X59191078Y-41913546D01*
X59151851Y-41888235D01*
X59117244Y-41874471D01*
X59110007Y-41873714D01*
X59101861Y-41886160D01*
X59101370Y-41917972D01*
X59107357Y-41960866D01*
X59118643Y-42006558D01*
X59134050Y-42046761D01*
X59134829Y-42048322D01*
X59181196Y-42113062D01*
X59241289Y-42157097D01*
X59309535Y-42178711D01*
X59380362Y-42176185D01*
X59448196Y-42147804D01*
X59451212Y-42145808D01*
X59504573Y-42097448D01*
X59539660Y-42034352D01*
X59559078Y-41951387D01*
X59561684Y-41928078D01*
X59566299Y-41818055D01*
X59560767Y-41766748D01*
X59421486Y-41766748D01*
X59419676Y-41798753D01*
X59409778Y-41808093D01*
X59385102Y-41801105D01*
X59346205Y-41784587D01*
X59302725Y-41763881D01*
X59301644Y-41763333D01*
X59264791Y-41743949D01*
X59250000Y-41731013D01*
X59253647Y-41717451D01*
X59269005Y-41699632D01*
X59308077Y-41673845D01*
X59350154Y-41671950D01*
X59387897Y-41690717D01*
X59413966Y-41726915D01*
X59421486Y-41766748D01*
X59560767Y-41766748D01*
X59556806Y-41730027D01*
X59532450Y-41660212D01*
X59498544Y-41611302D01*
X59437347Y-41561878D01*
X59369937Y-41537359D01*
X59301120Y-41535797D01*
X59235697Y-41555239D01*
X59235697Y-41555239D01*
G37*
X59235697Y-41555239D02*
X59178473Y-41593735D01*
X59134251Y-41649335D01*
X59107833Y-41720086D01*
X59102490Y-41772162D01*
X59103097Y-41793893D01*
X59108178Y-41810531D01*
X59122145Y-41825437D01*
X59149411Y-41841973D01*
X59194388Y-41863498D01*
X59261489Y-41893374D01*
X59261829Y-41893524D01*
X59323593Y-41921813D01*
X59374241Y-41946933D01*
X59408596Y-41966179D01*
X59421482Y-41976848D01*
X59421486Y-41976934D01*
X59410128Y-42000166D01*
X59383569Y-42025774D01*
X59353077Y-42044221D01*
X59337630Y-42047886D01*
X59295485Y-42035212D01*
X59259192Y-42003471D01*
X59241483Y-41968572D01*
X59224448Y-41942845D01*
X59191078Y-41913546D01*
X59151851Y-41888235D01*
X59117244Y-41874471D01*
X59110007Y-41873714D01*
X59101861Y-41886160D01*
X59101370Y-41917972D01*
X59107357Y-41960866D01*
X59118643Y-42006558D01*
X59134050Y-42046761D01*
X59134829Y-42048322D01*
X59181196Y-42113062D01*
X59241289Y-42157097D01*
X59309535Y-42178711D01*
X59380362Y-42176185D01*
X59448196Y-42147804D01*
X59451212Y-42145808D01*
X59504573Y-42097448D01*
X59539660Y-42034352D01*
X59559078Y-41951387D01*
X59561684Y-41928078D01*
X59566299Y-41818055D01*
X59560767Y-41766748D01*
X59421486Y-41766748D01*
X59419676Y-41798753D01*
X59409778Y-41808093D01*
X59385102Y-41801105D01*
X59346205Y-41784587D01*
X59302725Y-41763881D01*
X59301644Y-41763333D01*
X59264791Y-41743949D01*
X59250000Y-41731013D01*
X59253647Y-41717451D01*
X59269005Y-41699632D01*
X59308077Y-41673845D01*
X59350154Y-41671950D01*
X59387897Y-41690717D01*
X59413966Y-41726915D01*
X59421486Y-41766748D01*
X59560767Y-41766748D01*
X59556806Y-41730027D01*
X59532450Y-41660212D01*
X59498544Y-41611302D01*
X59437347Y-41561878D01*
X59369937Y-41537359D01*
X59301120Y-41535797D01*
X59235697Y-41555239D01*
G36*
X58028114Y-41475289D02*
X58023861Y-41534613D01*
X58018975Y-41569572D01*
X58012205Y-41584820D01*
X58002298Y-41585015D01*
X57999086Y-41583195D01*
X57956356Y-41570015D01*
X57900773Y-41570785D01*
X57844263Y-41584333D01*
X57808918Y-41601861D01*
X57772679Y-41629861D01*
X57746187Y-41661549D01*
X57728001Y-41701813D01*
X57716678Y-41755543D01*
X57710778Y-41827626D01*
X57708857Y-41922951D01*
X57708823Y-41941237D01*
X57708800Y-42146646D01*
X57754509Y-42162580D01*
X57786973Y-42173420D01*
X57804785Y-42178468D01*
X57805309Y-42178514D01*
X57807063Y-42164828D01*
X57808556Y-42127076D01*
X57809674Y-42070224D01*
X57810303Y-41999234D01*
X57810400Y-41956073D01*
X57810602Y-41870973D01*
X57811642Y-41809981D01*
X57814169Y-41768177D01*
X57818836Y-41740642D01*
X57826293Y-41722456D01*
X57837189Y-41708698D01*
X57843993Y-41702073D01*
X57890728Y-41675375D01*
X57941728Y-41673375D01*
X57987999Y-41695955D01*
X57996556Y-41704107D01*
X58009107Y-41719436D01*
X58017812Y-41737618D01*
X58023369Y-41763909D01*
X58026474Y-41803562D01*
X58027824Y-41861832D01*
X58028114Y-41942173D01*
X58028114Y-42146646D01*
X58073823Y-42162580D01*
X58106287Y-42173420D01*
X58124099Y-42178468D01*
X58124623Y-42178514D01*
X58125963Y-42164623D01*
X58127172Y-42125439D01*
X58128199Y-42064700D01*
X58128998Y-41986141D01*
X58129519Y-41893498D01*
X58129714Y-41790509D01*
X58129714Y-41393342D01*
X58082543Y-41373444D01*
X58035371Y-41353547D01*
X58028114Y-41475289D01*
X58028114Y-41475289D01*
G37*
X58028114Y-41475289D02*
X58023861Y-41534613D01*
X58018975Y-41569572D01*
X58012205Y-41584820D01*
X58002298Y-41585015D01*
X57999086Y-41583195D01*
X57956356Y-41570015D01*
X57900773Y-41570785D01*
X57844263Y-41584333D01*
X57808918Y-41601861D01*
X57772679Y-41629861D01*
X57746187Y-41661549D01*
X57728001Y-41701813D01*
X57716678Y-41755543D01*
X57710778Y-41827626D01*
X57708857Y-41922951D01*
X57708823Y-41941237D01*
X57708800Y-42146646D01*
X57754509Y-42162580D01*
X57786973Y-42173420D01*
X57804785Y-42178468D01*
X57805309Y-42178514D01*
X57807063Y-42164828D01*
X57808556Y-42127076D01*
X57809674Y-42070224D01*
X57810303Y-41999234D01*
X57810400Y-41956073D01*
X57810602Y-41870973D01*
X57811642Y-41809981D01*
X57814169Y-41768177D01*
X57818836Y-41740642D01*
X57826293Y-41722456D01*
X57837189Y-41708698D01*
X57843993Y-41702073D01*
X57890728Y-41675375D01*
X57941728Y-41673375D01*
X57987999Y-41695955D01*
X57996556Y-41704107D01*
X58009107Y-41719436D01*
X58017812Y-41737618D01*
X58023369Y-41763909D01*
X58026474Y-41803562D01*
X58027824Y-41861832D01*
X58028114Y-41942173D01*
X58028114Y-42146646D01*
X58073823Y-42162580D01*
X58106287Y-42173420D01*
X58124099Y-42178468D01*
X58124623Y-42178514D01*
X58125963Y-42164623D01*
X58127172Y-42125439D01*
X58128199Y-42064700D01*
X58128998Y-41986141D01*
X58129519Y-41893498D01*
X58129714Y-41790509D01*
X58129714Y-41393342D01*
X58082543Y-41373444D01*
X58035371Y-41353547D01*
X58028114Y-41475289D01*
G36*
X57364256Y-41574968D02*
X57307384Y-41596087D01*
X57306733Y-41596493D01*
X57271560Y-41622380D01*
X57245593Y-41652633D01*
X57227330Y-41692058D01*
X57215268Y-41745462D01*
X57207904Y-41817651D01*
X57203736Y-41913432D01*
X57203371Y-41927078D01*
X57198124Y-42132842D01*
X57242284Y-42155678D01*
X57274237Y-42171110D01*
X57293530Y-42178423D01*
X57294422Y-42178514D01*
X57297761Y-42165022D01*
X57300413Y-42128626D01*
X57302044Y-42075452D01*
X57302400Y-42032393D01*
X57302408Y-41962641D01*
X57305597Y-41918837D01*
X57316712Y-41897944D01*
X57340499Y-41896925D01*
X57381704Y-41912741D01*
X57443914Y-41941815D01*
X57489659Y-41965963D01*
X57513187Y-41986913D01*
X57520104Y-42009747D01*
X57520114Y-42010877D01*
X57508701Y-42050212D01*
X57474908Y-42071462D01*
X57423191Y-42074539D01*
X57385939Y-42074006D01*
X57366297Y-42084735D01*
X57354048Y-42110505D01*
X57346998Y-42143337D01*
X57357158Y-42161966D01*
X57360983Y-42164632D01*
X57396999Y-42175340D01*
X57447434Y-42176856D01*
X57499374Y-42169759D01*
X57536178Y-42156788D01*
X57587062Y-42113585D01*
X57615986Y-42053446D01*
X57621714Y-42006462D01*
X57617343Y-41964082D01*
X57601525Y-41929488D01*
X57570203Y-41898763D01*
X57519322Y-41867990D01*
X57444824Y-41833252D01*
X57440286Y-41831288D01*
X57373179Y-41800287D01*
X57331768Y-41774862D01*
X57314019Y-41752014D01*
X57317893Y-41728745D01*
X57341357Y-41702056D01*
X57348373Y-41695914D01*
X57395370Y-41672100D01*
X57444067Y-41673103D01*
X57486478Y-41696451D01*
X57514616Y-41739675D01*
X57517231Y-41748160D01*
X57542692Y-41789308D01*
X57574999Y-41809128D01*
X57621714Y-41828770D01*
X57621714Y-41777950D01*
X57607504Y-41704082D01*
X57565325Y-41636327D01*
X57543376Y-41613661D01*
X57493483Y-41584569D01*
X57430033Y-41571400D01*
X57364256Y-41574968D01*
X57364256Y-41574968D01*
G37*
X57364256Y-41574968D02*
X57307384Y-41596087D01*
X57306733Y-41596493D01*
X57271560Y-41622380D01*
X57245593Y-41652633D01*
X57227330Y-41692058D01*
X57215268Y-41745462D01*
X57207904Y-41817651D01*
X57203736Y-41913432D01*
X57203371Y-41927078D01*
X57198124Y-42132842D01*
X57242284Y-42155678D01*
X57274237Y-42171110D01*
X57293530Y-42178423D01*
X57294422Y-42178514D01*
X57297761Y-42165022D01*
X57300413Y-42128626D01*
X57302044Y-42075452D01*
X57302400Y-42032393D01*
X57302408Y-41962641D01*
X57305597Y-41918837D01*
X57316712Y-41897944D01*
X57340499Y-41896925D01*
X57381704Y-41912741D01*
X57443914Y-41941815D01*
X57489659Y-41965963D01*
X57513187Y-41986913D01*
X57520104Y-42009747D01*
X57520114Y-42010877D01*
X57508701Y-42050212D01*
X57474908Y-42071462D01*
X57423191Y-42074539D01*
X57385939Y-42074006D01*
X57366297Y-42084735D01*
X57354048Y-42110505D01*
X57346998Y-42143337D01*
X57357158Y-42161966D01*
X57360983Y-42164632D01*
X57396999Y-42175340D01*
X57447434Y-42176856D01*
X57499374Y-42169759D01*
X57536178Y-42156788D01*
X57587062Y-42113585D01*
X57615986Y-42053446D01*
X57621714Y-42006462D01*
X57617343Y-41964082D01*
X57601525Y-41929488D01*
X57570203Y-41898763D01*
X57519322Y-41867990D01*
X57444824Y-41833252D01*
X57440286Y-41831288D01*
X57373179Y-41800287D01*
X57331768Y-41774862D01*
X57314019Y-41752014D01*
X57317893Y-41728745D01*
X57341357Y-41702056D01*
X57348373Y-41695914D01*
X57395370Y-41672100D01*
X57444067Y-41673103D01*
X57486478Y-41696451D01*
X57514616Y-41739675D01*
X57517231Y-41748160D01*
X57542692Y-41789308D01*
X57574999Y-41809128D01*
X57621714Y-41828770D01*
X57621714Y-41777950D01*
X57607504Y-41704082D01*
X57565325Y-41636327D01*
X57543376Y-41613661D01*
X57493483Y-41584569D01*
X57430033Y-41571400D01*
X57364256Y-41574968D01*
G36*
X56874074Y-41573755D02*
X56808142Y-41598084D01*
X56754727Y-41641117D01*
X56733836Y-41671409D01*
X56711061Y-41726994D01*
X56711534Y-41767186D01*
X56735438Y-41794217D01*
X56744283Y-41798813D01*
X56782470Y-41813144D01*
X56801972Y-41809472D01*
X56808578Y-41785407D01*
X56808914Y-41772114D01*
X56821008Y-41723210D01*
X56852529Y-41688999D01*
X56896341Y-41672476D01*
X56945305Y-41676634D01*
X56985106Y-41698227D01*
X56998550Y-41710544D01*
X57008079Y-41725487D01*
X57014515Y-41748075D01*
X57018683Y-41783328D01*
X57021403Y-41836266D01*
X57023498Y-41911907D01*
X57024040Y-41935857D01*
X57026019Y-42017790D01*
X57028269Y-42075455D01*
X57031643Y-42113608D01*
X57036994Y-42137004D01*
X57045176Y-42150398D01*
X57057041Y-42158545D01*
X57064638Y-42162144D01*
X57096898Y-42174452D01*
X57115889Y-42178514D01*
X57122164Y-42164948D01*
X57125994Y-42123934D01*
X57127400Y-42054999D01*
X57126402Y-41957669D01*
X57126092Y-41942657D01*
X57123899Y-41853859D01*
X57121307Y-41789019D01*
X57117618Y-41743067D01*
X57112136Y-41710935D01*
X57104165Y-41687553D01*
X57093007Y-41667852D01*
X57087170Y-41659410D01*
X57053704Y-41622057D01*
X57016273Y-41593003D01*
X57011691Y-41590467D01*
X56944574Y-41570443D01*
X56874074Y-41573755D01*
X56874074Y-41573755D01*
G37*
X56874074Y-41573755D02*
X56808142Y-41598084D01*
X56754727Y-41641117D01*
X56733836Y-41671409D01*
X56711061Y-41726994D01*
X56711534Y-41767186D01*
X56735438Y-41794217D01*
X56744283Y-41798813D01*
X56782470Y-41813144D01*
X56801972Y-41809472D01*
X56808578Y-41785407D01*
X56808914Y-41772114D01*
X56821008Y-41723210D01*
X56852529Y-41688999D01*
X56896341Y-41672476D01*
X56945305Y-41676634D01*
X56985106Y-41698227D01*
X56998550Y-41710544D01*
X57008079Y-41725487D01*
X57014515Y-41748075D01*
X57018683Y-41783328D01*
X57021403Y-41836266D01*
X57023498Y-41911907D01*
X57024040Y-41935857D01*
X57026019Y-42017790D01*
X57028269Y-42075455D01*
X57031643Y-42113608D01*
X57036994Y-42137004D01*
X57045176Y-42150398D01*
X57057041Y-42158545D01*
X57064638Y-42162144D01*
X57096898Y-42174452D01*
X57115889Y-42178514D01*
X57122164Y-42164948D01*
X57125994Y-42123934D01*
X57127400Y-42054999D01*
X57126402Y-41957669D01*
X57126092Y-41942657D01*
X57123899Y-41853859D01*
X57121307Y-41789019D01*
X57117618Y-41743067D01*
X57112136Y-41710935D01*
X57104165Y-41687553D01*
X57093007Y-41667852D01*
X57087170Y-41659410D01*
X57053704Y-41622057D01*
X57016273Y-41593003D01*
X57011691Y-41590467D01*
X56944574Y-41570443D01*
X56874074Y-41573755D01*
G36*
X56213883Y-41689358D02*
X56214067Y-41797837D01*
X56214781Y-41881287D01*
X56216325Y-41943704D01*
X56218999Y-41989085D01*
X56223106Y-42021429D01*
X56228945Y-42044733D01*
X56236818Y-42062995D01*
X56242779Y-42073418D01*
X56292145Y-42129945D01*
X56354736Y-42165377D01*
X56423987Y-42178090D01*
X56493332Y-42166463D01*
X56534625Y-42145568D01*
X56577975Y-42109422D01*
X56607519Y-42065276D01*
X56625345Y-42007462D01*
X56633537Y-41930313D01*
X56634698Y-41873714D01*
X56634542Y-41869647D01*
X56533143Y-41869647D01*
X56532524Y-41934550D01*
X56529686Y-41977514D01*
X56523160Y-42005622D01*
X56511477Y-42025953D01*
X56497517Y-42041288D01*
X56450635Y-42070890D01*
X56400299Y-42073419D01*
X56352724Y-42048705D01*
X56349021Y-42045356D01*
X56333217Y-42027935D01*
X56323307Y-42007209D01*
X56317942Y-41976362D01*
X56315772Y-41928577D01*
X56315429Y-41875748D01*
X56316173Y-41809381D01*
X56319252Y-41765106D01*
X56325939Y-41736009D01*
X56337504Y-41715173D01*
X56346987Y-41704107D01*
X56391040Y-41676198D01*
X56441776Y-41672843D01*
X56490204Y-41694159D01*
X56499550Y-41702073D01*
X56515460Y-41719647D01*
X56525390Y-41740587D01*
X56530722Y-41771782D01*
X56532837Y-41820122D01*
X56533143Y-41869647D01*
X56634542Y-41869647D01*
X56631190Y-41782568D01*
X56619274Y-41714086D01*
X56596865Y-41662600D01*
X56561876Y-41622443D01*
X56534625Y-41601861D01*
X56485093Y-41579625D01*
X56427684Y-41569304D01*
X56374318Y-41572067D01*
X56344457Y-41583212D01*
X56332739Y-41586383D01*
X56324963Y-41574557D01*
X56319535Y-41542866D01*
X56315429Y-41494593D01*
X56310933Y-41440829D01*
X56304687Y-41408482D01*
X56293324Y-41389985D01*
X56273472Y-41377770D01*
X56261000Y-41372362D01*
X56213829Y-41352601D01*
X56213883Y-41689358D01*
X56213883Y-41689358D01*
G37*
X56213883Y-41689358D02*
X56214067Y-41797837D01*
X56214781Y-41881287D01*
X56216325Y-41943704D01*
X56218999Y-41989085D01*
X56223106Y-42021429D01*
X56228945Y-42044733D01*
X56236818Y-42062995D01*
X56242779Y-42073418D01*
X56292145Y-42129945D01*
X56354736Y-42165377D01*
X56423987Y-42178090D01*
X56493332Y-42166463D01*
X56534625Y-42145568D01*
X56577975Y-42109422D01*
X56607519Y-42065276D01*
X56625345Y-42007462D01*
X56633537Y-41930313D01*
X56634698Y-41873714D01*
X56634542Y-41869647D01*
X56533143Y-41869647D01*
X56532524Y-41934550D01*
X56529686Y-41977514D01*
X56523160Y-42005622D01*
X56511477Y-42025953D01*
X56497517Y-42041288D01*
X56450635Y-42070890D01*
X56400299Y-42073419D01*
X56352724Y-42048705D01*
X56349021Y-42045356D01*
X56333217Y-42027935D01*
X56323307Y-42007209D01*
X56317942Y-41976362D01*
X56315772Y-41928577D01*
X56315429Y-41875748D01*
X56316173Y-41809381D01*
X56319252Y-41765106D01*
X56325939Y-41736009D01*
X56337504Y-41715173D01*
X56346987Y-41704107D01*
X56391040Y-41676198D01*
X56441776Y-41672843D01*
X56490204Y-41694159D01*
X56499550Y-41702073D01*
X56515460Y-41719647D01*
X56525390Y-41740587D01*
X56530722Y-41771782D01*
X56532837Y-41820122D01*
X56533143Y-41869647D01*
X56634542Y-41869647D01*
X56631190Y-41782568D01*
X56619274Y-41714086D01*
X56596865Y-41662600D01*
X56561876Y-41622443D01*
X56534625Y-41601861D01*
X56485093Y-41579625D01*
X56427684Y-41569304D01*
X56374318Y-41572067D01*
X56344457Y-41583212D01*
X56332739Y-41586383D01*
X56324963Y-41574557D01*
X56319535Y-41542866D01*
X56315429Y-41494593D01*
X56310933Y-41440829D01*
X56304687Y-41408482D01*
X56293324Y-41389985D01*
X56273472Y-41377770D01*
X56261000Y-41372362D01*
X56213829Y-41352601D01*
X56213883Y-41689358D01*
G36*
X55624167Y-41582663D02*
X55621952Y-41620850D01*
X55620216Y-41678886D01*
X55619101Y-41752180D01*
X55618743Y-41829055D01*
X55618743Y-42089196D01*
X55664674Y-42135127D01*
X55696325Y-42163429D01*
X55724110Y-42174893D01*
X55762085Y-42174168D01*
X55777160Y-42172321D01*
X55824274Y-42166948D01*
X55863244Y-42163869D01*
X55872743Y-42163585D01*
X55904767Y-42165445D01*
X55950568Y-42170114D01*
X55968326Y-42172321D01*
X56011943Y-42175735D01*
X56041255Y-42168320D01*
X56070320Y-42145427D01*
X56080812Y-42135127D01*
X56126743Y-42089196D01*
X56126743Y-41602602D01*
X56089774Y-41585758D01*
X56057941Y-41573282D01*
X56039317Y-41568914D01*
X56034542Y-41582718D01*
X56030079Y-41621286D01*
X56026225Y-41680356D01*
X56023278Y-41755663D01*
X56021857Y-41819286D01*
X56017886Y-42069657D01*
X55983241Y-42074556D01*
X55951732Y-42071131D01*
X55936292Y-42060041D01*
X55931977Y-42039308D01*
X55928292Y-41995145D01*
X55925531Y-41933146D01*
X55923988Y-41858909D01*
X55923765Y-41820706D01*
X55923543Y-41600783D01*
X55877834Y-41584849D01*
X55845482Y-41574015D01*
X55827885Y-41568962D01*
X55827377Y-41568914D01*
X55825612Y-41582648D01*
X55823671Y-41620730D01*
X55821718Y-41678482D01*
X55819916Y-41751227D01*
X55818657Y-41819286D01*
X55814686Y-42069657D01*
X55727600Y-42069657D01*
X55723604Y-41841240D01*
X55719608Y-41612822D01*
X55677153Y-41590868D01*
X55645808Y-41575793D01*
X55627256Y-41568951D01*
X55626721Y-41568914D01*
X55624167Y-41582663D01*
X55624167Y-41582663D01*
G37*
X55624167Y-41582663D02*
X55621952Y-41620850D01*
X55620216Y-41678886D01*
X55619101Y-41752180D01*
X55618743Y-41829055D01*
X55618743Y-42089196D01*
X55664674Y-42135127D01*
X55696325Y-42163429D01*
X55724110Y-42174893D01*
X55762085Y-42174168D01*
X55777160Y-42172321D01*
X55824274Y-42166948D01*
X55863244Y-42163869D01*
X55872743Y-42163585D01*
X55904767Y-42165445D01*
X55950568Y-42170114D01*
X55968326Y-42172321D01*
X56011943Y-42175735D01*
X56041255Y-42168320D01*
X56070320Y-42145427D01*
X56080812Y-42135127D01*
X56126743Y-42089196D01*
X56126743Y-41602602D01*
X56089774Y-41585758D01*
X56057941Y-41573282D01*
X56039317Y-41568914D01*
X56034542Y-41582718D01*
X56030079Y-41621286D01*
X56026225Y-41680356D01*
X56023278Y-41755663D01*
X56021857Y-41819286D01*
X56017886Y-42069657D01*
X55983241Y-42074556D01*
X55951732Y-42071131D01*
X55936292Y-42060041D01*
X55931977Y-42039308D01*
X55928292Y-41995145D01*
X55925531Y-41933146D01*
X55923988Y-41858909D01*
X55923765Y-41820706D01*
X55923543Y-41600783D01*
X55877834Y-41584849D01*
X55845482Y-41574015D01*
X55827885Y-41568962D01*
X55827377Y-41568914D01*
X55825612Y-41582648D01*
X55823671Y-41620730D01*
X55821718Y-41678482D01*
X55819916Y-41751227D01*
X55818657Y-41819286D01*
X55814686Y-42069657D01*
X55727600Y-42069657D01*
X55723604Y-41841240D01*
X55719608Y-41612822D01*
X55677153Y-41590868D01*
X55645808Y-41575793D01*
X55627256Y-41568951D01*
X55626721Y-41568914D01*
X55624167Y-41582663D01*
G36*
X55259124Y-41580335D02*
X55217333Y-41599344D01*
X55184531Y-41622378D01*
X55160497Y-41648133D01*
X55143903Y-41681358D01*
X55133423Y-41726800D01*
X55127729Y-41789207D01*
X55125493Y-41873327D01*
X55125257Y-41928721D01*
X55125257Y-42144826D01*
X55162226Y-42161670D01*
X55191344Y-42173981D01*
X55205769Y-42178514D01*
X55208528Y-42165025D01*
X55210718Y-42128653D01*
X55212058Y-42075542D01*
X55212343Y-42033372D01*
X55213566Y-41972447D01*
X55216864Y-41924115D01*
X55221679Y-41894518D01*
X55225504Y-41888229D01*
X55251217Y-41894652D01*
X55291582Y-41911125D01*
X55338321Y-41933458D01*
X55383155Y-41957457D01*
X55417807Y-41978930D01*
X55433998Y-41993685D01*
X55434062Y-41993845D01*
X55432670Y-42021152D01*
X55420182Y-42047219D01*
X55398257Y-42068392D01*
X55366257Y-42075474D01*
X55338908Y-42074649D01*
X55300174Y-42074042D01*
X55279842Y-42083116D01*
X55267631Y-42107092D01*
X55266091Y-42111613D01*
X55260797Y-42145806D01*
X55274953Y-42166568D01*
X55311852Y-42176462D01*
X55351711Y-42178292D01*
X55423438Y-42164727D01*
X55460568Y-42145355D01*
X55506424Y-42099845D01*
X55530744Y-42043983D01*
X55532927Y-41984957D01*
X55512371Y-41929953D01*
X55481451Y-41895486D01*
X55450580Y-41876189D01*
X55402058Y-41851759D01*
X55345515Y-41826985D01*
X55336090Y-41823199D01*
X55273981Y-41795791D01*
X55238178Y-41771634D01*
X55226663Y-41747619D01*
X55237420Y-41720635D01*
X55255886Y-41699543D01*
X55299531Y-41673572D01*
X55347554Y-41671624D01*
X55391594Y-41691637D01*
X55423291Y-41731551D01*
X55427451Y-41741848D01*
X55451673Y-41779724D01*
X55487035Y-41807842D01*
X55531657Y-41830917D01*
X55531657Y-41765485D01*
X55529031Y-41725506D01*
X55517770Y-41693997D01*
X55492801Y-41660378D01*
X55468831Y-41634484D01*
X55431559Y-41597817D01*
X55402599Y-41578121D01*
X55371495Y-41570220D01*
X55336287Y-41568914D01*
X55259124Y-41580335D01*
X55259124Y-41580335D01*
G37*
X55259124Y-41580335D02*
X55217333Y-41599344D01*
X55184531Y-41622378D01*
X55160497Y-41648133D01*
X55143903Y-41681358D01*
X55133423Y-41726800D01*
X55127729Y-41789207D01*
X55125493Y-41873327D01*
X55125257Y-41928721D01*
X55125257Y-42144826D01*
X55162226Y-42161670D01*
X55191344Y-42173981D01*
X55205769Y-42178514D01*
X55208528Y-42165025D01*
X55210718Y-42128653D01*
X55212058Y-42075542D01*
X55212343Y-42033372D01*
X55213566Y-41972447D01*
X55216864Y-41924115D01*
X55221679Y-41894518D01*
X55225504Y-41888229D01*
X55251217Y-41894652D01*
X55291582Y-41911125D01*
X55338321Y-41933458D01*
X55383155Y-41957457D01*
X55417807Y-41978930D01*
X55433998Y-41993685D01*
X55434062Y-41993845D01*
X55432670Y-42021152D01*
X55420182Y-42047219D01*
X55398257Y-42068392D01*
X55366257Y-42075474D01*
X55338908Y-42074649D01*
X55300174Y-42074042D01*
X55279842Y-42083116D01*
X55267631Y-42107092D01*
X55266091Y-42111613D01*
X55260797Y-42145806D01*
X55274953Y-42166568D01*
X55311852Y-42176462D01*
X55351711Y-42178292D01*
X55423438Y-42164727D01*
X55460568Y-42145355D01*
X55506424Y-42099845D01*
X55530744Y-42043983D01*
X55532927Y-41984957D01*
X55512371Y-41929953D01*
X55481451Y-41895486D01*
X55450580Y-41876189D01*
X55402058Y-41851759D01*
X55345515Y-41826985D01*
X55336090Y-41823199D01*
X55273981Y-41795791D01*
X55238178Y-41771634D01*
X55226663Y-41747619D01*
X55237420Y-41720635D01*
X55255886Y-41699543D01*
X55299531Y-41673572D01*
X55347554Y-41671624D01*
X55391594Y-41691637D01*
X55423291Y-41731551D01*
X55427451Y-41741848D01*
X55451673Y-41779724D01*
X55487035Y-41807842D01*
X55531657Y-41830917D01*
X55531657Y-41765485D01*
X55529031Y-41725506D01*
X55517770Y-41693997D01*
X55492801Y-41660378D01*
X55468831Y-41634484D01*
X55431559Y-41597817D01*
X55402599Y-41578121D01*
X55371495Y-41570220D01*
X55336287Y-41568914D01*
X55259124Y-41580335D01*
G36*
X54751400Y-41582752D02*
X54734052Y-41590334D01*
X54692644Y-41623128D01*
X54657235Y-41670547D01*
X54635336Y-41721151D01*
X54631771Y-41746098D01*
X54643721Y-41780927D01*
X54669933Y-41799357D01*
X54698036Y-41810516D01*
X54710905Y-41812572D01*
X54717171Y-41797649D01*
X54729544Y-41765175D01*
X54734972Y-41750502D01*
X54765410Y-41699744D01*
X54809480Y-41674427D01*
X54865990Y-41675206D01*
X54870175Y-41676203D01*
X54900345Y-41690507D01*
X54922524Y-41718393D01*
X54937673Y-41763287D01*
X54946750Y-41828615D01*
X54950714Y-41917804D01*
X54951086Y-41965261D01*
X54951270Y-42040071D01*
X54952478Y-42091069D01*
X54955691Y-42123471D01*
X54961891Y-42142495D01*
X54972060Y-42153356D01*
X54987181Y-42161272D01*
X54988054Y-42161670D01*
X55017172Y-42173981D01*
X55031597Y-42178514D01*
X55033814Y-42164809D01*
X55035711Y-42126925D01*
X55037153Y-42069715D01*
X55038002Y-41998027D01*
X55038171Y-41945565D01*
X55037308Y-41844047D01*
X55033930Y-41767032D01*
X55026858Y-41710023D01*
X55014912Y-41668526D01*
X54996910Y-41638043D01*
X54971673Y-41614080D01*
X54946753Y-41597355D01*
X54886829Y-41575097D01*
X54817089Y-41570076D01*
X54751400Y-41582752D01*
X54751400Y-41582752D01*
G37*
X54751400Y-41582752D02*
X54734052Y-41590334D01*
X54692644Y-41623128D01*
X54657235Y-41670547D01*
X54635336Y-41721151D01*
X54631771Y-41746098D01*
X54643721Y-41780927D01*
X54669933Y-41799357D01*
X54698036Y-41810516D01*
X54710905Y-41812572D01*
X54717171Y-41797649D01*
X54729544Y-41765175D01*
X54734972Y-41750502D01*
X54765410Y-41699744D01*
X54809480Y-41674427D01*
X54865990Y-41675206D01*
X54870175Y-41676203D01*
X54900345Y-41690507D01*
X54922524Y-41718393D01*
X54937673Y-41763287D01*
X54946750Y-41828615D01*
X54950714Y-41917804D01*
X54951086Y-41965261D01*
X54951270Y-42040071D01*
X54952478Y-42091069D01*
X54955691Y-42123471D01*
X54961891Y-42142495D01*
X54972060Y-42153356D01*
X54987181Y-42161272D01*
X54988054Y-42161670D01*
X55017172Y-42173981D01*
X55031597Y-42178514D01*
X55033814Y-42164809D01*
X55035711Y-42126925D01*
X55037153Y-42069715D01*
X55038002Y-41998027D01*
X55038171Y-41945565D01*
X55037308Y-41844047D01*
X55033930Y-41767032D01*
X55026858Y-41710023D01*
X55014912Y-41668526D01*
X54996910Y-41638043D01*
X54971673Y-41614080D01*
X54946753Y-41597355D01*
X54886829Y-41575097D01*
X54817089Y-41570076D01*
X54751400Y-41582752D01*
G36*
X54250405Y-41590966D02*
X54192979Y-41628497D01*
X54165281Y-41662096D01*
X54143338Y-41723064D01*
X54141595Y-41771308D01*
X54145543Y-41835816D01*
X54294314Y-41900934D01*
X54366651Y-41934202D01*
X54413916Y-41960964D01*
X54438493Y-41984144D01*
X54442763Y-42006667D01*
X54429111Y-42031455D01*
X54414057Y-42047886D01*
X54370254Y-42074235D01*
X54322611Y-42076081D01*
X54278855Y-42055546D01*
X54246711Y-42014752D01*
X54240962Y-42000347D01*
X54213424Y-41955356D01*
X54181742Y-41936182D01*
X54138286Y-41919779D01*
X54138286Y-41981966D01*
X54142128Y-42024283D01*
X54157177Y-42059969D01*
X54188720Y-42100943D01*
X54193408Y-42106267D01*
X54228494Y-42142720D01*
X54258653Y-42162283D01*
X54296385Y-42171283D01*
X54327665Y-42174230D01*
X54383615Y-42174965D01*
X54423445Y-42165660D01*
X54448292Y-42151846D01*
X54487344Y-42121467D01*
X54514375Y-42088613D01*
X54531483Y-42047294D01*
X54540762Y-41991521D01*
X54544307Y-41915305D01*
X54544590Y-41876622D01*
X54543628Y-41830247D01*
X54455993Y-41830247D01*
X54454977Y-41855126D01*
X54452444Y-41859200D01*
X54435726Y-41853665D01*
X54399751Y-41839017D01*
X54351669Y-41818190D01*
X54341614Y-41813714D01*
X54280848Y-41782814D01*
X54247368Y-41755657D01*
X54240010Y-41730220D01*
X54257609Y-41704481D01*
X54272144Y-41693109D01*
X54324590Y-41670364D01*
X54373678Y-41674122D01*
X54414773Y-41701884D01*
X54443242Y-41751152D01*
X54452369Y-41790257D01*
X54455993Y-41830247D01*
X54543628Y-41830247D01*
X54542715Y-41786249D01*
X54535804Y-41719384D01*
X54522116Y-41670695D01*
X54499904Y-41634849D01*
X54467426Y-41606513D01*
X54453267Y-41597355D01*
X54388947Y-41573507D01*
X54318527Y-41572006D01*
X54250405Y-41590966D01*
X54250405Y-41590966D01*
G37*
X54250405Y-41590966D02*
X54192979Y-41628497D01*
X54165281Y-41662096D01*
X54143338Y-41723064D01*
X54141595Y-41771308D01*
X54145543Y-41835816D01*
X54294314Y-41900934D01*
X54366651Y-41934202D01*
X54413916Y-41960964D01*
X54438493Y-41984144D01*
X54442763Y-42006667D01*
X54429111Y-42031455D01*
X54414057Y-42047886D01*
X54370254Y-42074235D01*
X54322611Y-42076081D01*
X54278855Y-42055546D01*
X54246711Y-42014752D01*
X54240962Y-42000347D01*
X54213424Y-41955356D01*
X54181742Y-41936182D01*
X54138286Y-41919779D01*
X54138286Y-41981966D01*
X54142128Y-42024283D01*
X54157177Y-42059969D01*
X54188720Y-42100943D01*
X54193408Y-42106267D01*
X54228494Y-42142720D01*
X54258653Y-42162283D01*
X54296385Y-42171283D01*
X54327665Y-42174230D01*
X54383615Y-42174965D01*
X54423445Y-42165660D01*
X54448292Y-42151846D01*
X54487344Y-42121467D01*
X54514375Y-42088613D01*
X54531483Y-42047294D01*
X54540762Y-41991521D01*
X54544307Y-41915305D01*
X54544590Y-41876622D01*
X54543628Y-41830247D01*
X54455993Y-41830247D01*
X54454977Y-41855126D01*
X54452444Y-41859200D01*
X54435726Y-41853665D01*
X54399751Y-41839017D01*
X54351669Y-41818190D01*
X54341614Y-41813714D01*
X54280848Y-41782814D01*
X54247368Y-41755657D01*
X54240010Y-41730220D01*
X54257609Y-41704481D01*
X54272144Y-41693109D01*
X54324590Y-41670364D01*
X54373678Y-41674122D01*
X54414773Y-41701884D01*
X54443242Y-41751152D01*
X54452369Y-41790257D01*
X54455993Y-41830247D01*
X54543628Y-41830247D01*
X54542715Y-41786249D01*
X54535804Y-41719384D01*
X54522116Y-41670695D01*
X54499904Y-41634849D01*
X54467426Y-41606513D01*
X54453267Y-41597355D01*
X54388947Y-41573507D01*
X54318527Y-41572006D01*
X54250405Y-41590966D01*
G36*
X57300090Y-36866348D02*
X57221546Y-36866778D01*
X57164702Y-36867942D01*
X57125895Y-36870207D01*
X57101462Y-36873940D01*
X57087738Y-36879506D01*
X57081060Y-36887273D01*
X57077764Y-36897605D01*
X57077444Y-36898943D01*
X57072438Y-36923079D01*
X57063171Y-36970701D01*
X57050608Y-37036741D01*
X57035713Y-37116128D01*
X57019449Y-37203796D01*
X57018881Y-37206875D01*
X57002590Y-37292789D01*
X56987348Y-37368696D01*
X56974139Y-37430045D01*
X56963946Y-37472282D01*
X56957752Y-37490855D01*
X56957457Y-37491184D01*
X56939212Y-37500253D01*
X56901595Y-37515367D01*
X56852729Y-37533262D01*
X56852457Y-37533358D01*
X56790907Y-37556493D01*
X56718343Y-37585965D01*
X56649943Y-37615597D01*
X56646706Y-37617062D01*
X56535298Y-37667626D01*
X56288601Y-37499160D01*
X56212923Y-37447803D01*
X56144369Y-37401889D01*
X56086912Y-37364030D01*
X56044524Y-37336837D01*
X56021175Y-37322921D01*
X56018958Y-37321889D01*
X56001990Y-37326484D01*
X55970299Y-37348655D01*
X55922648Y-37389447D01*
X55857802Y-37449905D01*
X55791603Y-37514227D01*
X55727786Y-37577612D01*
X55670671Y-37635451D01*
X55623695Y-37684175D01*
X55590297Y-37720210D01*
X55573915Y-37739984D01*
X55573306Y-37741002D01*
X55571495Y-37754572D01*
X55578317Y-37776733D01*
X55595460Y-37810478D01*
X55624607Y-37858800D01*
X55667445Y-37924692D01*
X55724552Y-38009517D01*
X55775234Y-38084177D01*
X55820539Y-38151140D01*
X55857850Y-38206516D01*
X55884548Y-38246420D01*
X55898015Y-38266962D01*
X55898863Y-38268356D01*
X55897219Y-38288038D01*
X55884755Y-38326293D01*
X55863952Y-38375889D01*
X55856538Y-38391728D01*
X55824186Y-38462290D01*
X55789672Y-38542353D01*
X55761635Y-38611629D01*
X55741432Y-38663045D01*
X55725385Y-38702119D01*
X55716112Y-38722541D01*
X55714959Y-38724114D01*
X55697904Y-38726721D01*
X55657702Y-38733863D01*
X55599698Y-38744523D01*
X55529237Y-38757685D01*
X55451665Y-38772333D01*
X55372328Y-38787449D01*
X55296569Y-38802018D01*
X55229736Y-38815022D01*
X55177172Y-38825445D01*
X55144224Y-38832270D01*
X55136143Y-38834199D01*
X55127795Y-38838962D01*
X55121494Y-38849718D01*
X55116955Y-38870098D01*
X55113896Y-38903734D01*
X55112033Y-38954255D01*
X55111082Y-39025292D01*
X55110760Y-39120476D01*
X55110743Y-39159492D01*
X55110743Y-39476799D01*
X55186943Y-39491839D01*
X55229337Y-39499995D01*
X55292600Y-39511899D01*
X55369038Y-39526116D01*
X55450957Y-39541210D01*
X55473600Y-39545355D01*
X55549194Y-39560053D01*
X55615047Y-39574505D01*
X55665634Y-39587375D01*
X55695426Y-39597322D01*
X55700388Y-39600287D01*
X55712574Y-39621283D01*
X55730047Y-39661967D01*
X55749423Y-39714322D01*
X55753266Y-39725600D01*
X55778661Y-39795523D01*
X55810183Y-39874418D01*
X55841031Y-39945266D01*
X55841183Y-39945595D01*
X55892553Y-40056733D01*
X55723601Y-40305253D01*
X55554648Y-40553772D01*
X55771571Y-40771058D01*
X55837181Y-40835726D01*
X55897021Y-40892733D01*
X55947733Y-40939033D01*
X55985954Y-40971584D01*
X56008325Y-40987343D01*
X56011534Y-40988343D01*
X56030374Y-40980469D01*
X56068820Y-40958578D01*
X56122670Y-40925267D01*
X56187724Y-40883131D01*
X56258060Y-40835943D01*
X56329445Y-40787810D01*
X56393092Y-40745928D01*
X56444959Y-40712871D01*
X56481005Y-40691218D01*
X56497133Y-40683543D01*
X56516811Y-40690037D01*
X56554125Y-40707150D01*
X56601379Y-40731326D01*
X56606388Y-40734013D01*
X56670023Y-40765927D01*
X56713659Y-40781579D01*
X56740798Y-40781745D01*
X56754943Y-40767204D01*
X56755025Y-40767000D01*
X56762095Y-40749779D01*
X56778958Y-40708899D01*
X56804305Y-40647525D01*
X56836829Y-40568819D01*
X56875222Y-40475947D01*
X56918178Y-40372072D01*
X56959778Y-40271502D01*
X57005496Y-40160516D01*
X57047474Y-40057703D01*
X57084452Y-39966215D01*
X57115173Y-39889201D01*
X57138378Y-39829815D01*
X57152810Y-39791209D01*
X57157257Y-39776800D01*
X57146104Y-39760272D01*
X57116931Y-39733930D01*
X57078029Y-39704887D01*
X56967243Y-39613039D01*
X56880649Y-39507759D01*
X56819284Y-39391266D01*
X56784185Y-39265776D01*
X56776392Y-39133507D01*
X56782057Y-39072457D01*
X56812922Y-38945795D01*
X56866080Y-38833941D01*
X56938233Y-38738001D01*
X57026083Y-38659076D01*
X57126335Y-38598270D01*
X57235690Y-38556687D01*
X57350853Y-38535428D01*
X57468525Y-38535599D01*
X57585410Y-38558301D01*
X57698211Y-38604638D01*
X57803631Y-38675713D01*
X57847632Y-38715911D01*
X57932021Y-38819129D01*
X57990778Y-38931925D01*
X58024296Y-39051010D01*
X58032965Y-39173095D01*
X58017177Y-39294893D01*
X57977322Y-39413116D01*
X57913793Y-39524475D01*
X57826979Y-39625684D01*
X57729971Y-39704887D01*
X57689563Y-39735162D01*
X57661018Y-39761219D01*
X57650743Y-39776825D01*
X57656123Y-39793843D01*
X57671425Y-39834500D01*
X57695388Y-39895642D01*
X57726756Y-39974119D01*
X57764268Y-40066780D01*
X57806667Y-40170472D01*
X57848337Y-40271526D01*
X57894310Y-40382607D01*
X57936893Y-40485541D01*
X57974779Y-40577165D01*
X58006660Y-40654316D01*
X58031229Y-40713831D01*
X58047180Y-40752544D01*
X58053090Y-40767000D01*
X58067052Y-40781685D01*
X58094060Y-40781642D01*
X58137587Y-40766099D01*
X58201110Y-40734284D01*
X58201612Y-40734013D01*
X58249440Y-40709323D01*
X58288103Y-40691338D01*
X58309905Y-40683614D01*
X58310867Y-40683543D01*
X58327279Y-40691378D01*
X58363513Y-40713165D01*
X58415526Y-40746328D01*
X58479275Y-40788291D01*
X58549940Y-40835943D01*
X58621884Y-40884191D01*
X58686726Y-40926151D01*
X58740265Y-40959227D01*
X58778303Y-40980821D01*
X58796467Y-40988343D01*
X58813192Y-40978457D01*
X58846820Y-40950826D01*
X58893990Y-40908495D01*
X58951342Y-40854505D01*
X59015516Y-40791899D01*
X59036503Y-40770983D01*
X59253501Y-40553623D01*
X59088332Y-40311220D01*
X59038136Y-40236781D01*
X58994081Y-40169972D01*
X58958638Y-40114665D01*
X58934281Y-40074729D01*
X58923478Y-40054036D01*
X58923162Y-40052563D01*
X58928857Y-40033058D01*
X58944174Y-39993822D01*
X58966463Y-39941430D01*
X58982107Y-39906355D01*
X59011359Y-39839201D01*
X59038906Y-39771358D01*
X59060263Y-39714034D01*
X59066065Y-39696572D01*
X59082548Y-39649938D01*
X59098660Y-39613905D01*
X59107510Y-39600287D01*
X59127040Y-39591952D01*
X59169666Y-39580137D01*
X59229855Y-39566181D01*
X59302078Y-39551422D01*
X59334400Y-39545355D01*
X59416478Y-39530273D01*
X59495205Y-39515669D01*
X59562891Y-39502980D01*
X59611840Y-39493642D01*
X59621057Y-39491839D01*
X59697257Y-39476799D01*
X59697257Y-39159492D01*
X59697086Y-39055154D01*
X59696384Y-38976213D01*
X59694866Y-38919038D01*
X59692251Y-38879999D01*
X59688254Y-38855465D01*
X59682591Y-38841805D01*
X59674980Y-38835389D01*
X59671857Y-38834199D01*
X59653022Y-38829980D01*
X59611412Y-38821562D01*
X59552370Y-38809961D01*
X59481243Y-38796195D01*
X59403375Y-38781280D01*
X59324113Y-38766232D01*
X59248802Y-38752069D01*
X59182787Y-38739806D01*
X59131413Y-38730461D01*
X59100025Y-38725050D01*
X59093041Y-38724114D01*
X59086715Y-38711596D01*
X59072710Y-38678246D01*
X59053645Y-38630377D01*
X59046366Y-38611629D01*
X59017004Y-38539195D01*
X58982429Y-38459170D01*
X58951463Y-38391728D01*
X58928677Y-38340159D01*
X58913518Y-38297785D01*
X58908458Y-38271834D01*
X58909264Y-38268356D01*
X58919959Y-38251936D01*
X58944380Y-38215417D01*
X58979905Y-38162687D01*
X59023913Y-38097635D01*
X59073783Y-38024151D01*
X59083644Y-38009645D01*
X59141508Y-37923704D01*
X59184044Y-37858261D01*
X59212946Y-37810304D01*
X59229910Y-37776820D01*
X59236633Y-37754795D01*
X59234810Y-37741217D01*
X59234764Y-37741131D01*
X59220414Y-37723297D01*
X59188677Y-37688817D01*
X59142990Y-37641268D01*
X59086796Y-37584222D01*
X59023532Y-37521255D01*
X59016398Y-37514227D01*
X58936670Y-37437020D01*
X58875143Y-37380330D01*
X58830579Y-37343110D01*
X58801743Y-37324315D01*
X58789042Y-37321889D01*
X58770506Y-37332471D01*
X58732039Y-37356916D01*
X58677614Y-37392612D01*
X58611202Y-37436947D01*
X58536775Y-37487311D01*
X58519399Y-37499160D01*
X58272703Y-37667626D01*
X58161294Y-37617062D01*
X58093543Y-37587595D01*
X58020817Y-37557959D01*
X57958297Y-37534330D01*
X57955543Y-37533358D01*
X57906640Y-37515457D01*
X57868943Y-37500320D01*
X57850575Y-37491210D01*
X57850544Y-37491184D01*
X57844715Y-37474717D01*
X57834808Y-37434219D01*
X57821805Y-37374242D01*
X57806691Y-37299340D01*
X57790448Y-37214064D01*
X57789119Y-37206875D01*
X57772825Y-37119014D01*
X57757867Y-37039260D01*
X57745209Y-36972681D01*
X57735814Y-36924347D01*
X57730646Y-36899325D01*
X57730556Y-36898943D01*
X57727411Y-36888299D01*
X57721296Y-36880262D01*
X57708547Y-36874467D01*
X57685500Y-36870547D01*
X57648491Y-36868135D01*
X57593856Y-36866865D01*
X57517933Y-36866371D01*
X57417056Y-36866286D01*
X57404000Y-36866286D01*
X57300090Y-36866348D01*
X57300090Y-36866348D01*
G37*
X57300090Y-36866348D02*
X57221546Y-36866778D01*
X57164702Y-36867942D01*
X57125895Y-36870207D01*
X57101462Y-36873940D01*
X57087738Y-36879506D01*
X57081060Y-36887273D01*
X57077764Y-36897605D01*
X57077444Y-36898943D01*
X57072438Y-36923079D01*
X57063171Y-36970701D01*
X57050608Y-37036741D01*
X57035713Y-37116128D01*
X57019449Y-37203796D01*
X57018881Y-37206875D01*
X57002590Y-37292789D01*
X56987348Y-37368696D01*
X56974139Y-37430045D01*
X56963946Y-37472282D01*
X56957752Y-37490855D01*
X56957457Y-37491184D01*
X56939212Y-37500253D01*
X56901595Y-37515367D01*
X56852729Y-37533262D01*
X56852457Y-37533358D01*
X56790907Y-37556493D01*
X56718343Y-37585965D01*
X56649943Y-37615597D01*
X56646706Y-37617062D01*
X56535298Y-37667626D01*
X56288601Y-37499160D01*
X56212923Y-37447803D01*
X56144369Y-37401889D01*
X56086912Y-37364030D01*
X56044524Y-37336837D01*
X56021175Y-37322921D01*
X56018958Y-37321889D01*
X56001990Y-37326484D01*
X55970299Y-37348655D01*
X55922648Y-37389447D01*
X55857802Y-37449905D01*
X55791603Y-37514227D01*
X55727786Y-37577612D01*
X55670671Y-37635451D01*
X55623695Y-37684175D01*
X55590297Y-37720210D01*
X55573915Y-37739984D01*
X55573306Y-37741002D01*
X55571495Y-37754572D01*
X55578317Y-37776733D01*
X55595460Y-37810478D01*
X55624607Y-37858800D01*
X55667445Y-37924692D01*
X55724552Y-38009517D01*
X55775234Y-38084177D01*
X55820539Y-38151140D01*
X55857850Y-38206516D01*
X55884548Y-38246420D01*
X55898015Y-38266962D01*
X55898863Y-38268356D01*
X55897219Y-38288038D01*
X55884755Y-38326293D01*
X55863952Y-38375889D01*
X55856538Y-38391728D01*
X55824186Y-38462290D01*
X55789672Y-38542353D01*
X55761635Y-38611629D01*
X55741432Y-38663045D01*
X55725385Y-38702119D01*
X55716112Y-38722541D01*
X55714959Y-38724114D01*
X55697904Y-38726721D01*
X55657702Y-38733863D01*
X55599698Y-38744523D01*
X55529237Y-38757685D01*
X55451665Y-38772333D01*
X55372328Y-38787449D01*
X55296569Y-38802018D01*
X55229736Y-38815022D01*
X55177172Y-38825445D01*
X55144224Y-38832270D01*
X55136143Y-38834199D01*
X55127795Y-38838962D01*
X55121494Y-38849718D01*
X55116955Y-38870098D01*
X55113896Y-38903734D01*
X55112033Y-38954255D01*
X55111082Y-39025292D01*
X55110760Y-39120476D01*
X55110743Y-39159492D01*
X55110743Y-39476799D01*
X55186943Y-39491839D01*
X55229337Y-39499995D01*
X55292600Y-39511899D01*
X55369038Y-39526116D01*
X55450957Y-39541210D01*
X55473600Y-39545355D01*
X55549194Y-39560053D01*
X55615047Y-39574505D01*
X55665634Y-39587375D01*
X55695426Y-39597322D01*
X55700388Y-39600287D01*
X55712574Y-39621283D01*
X55730047Y-39661967D01*
X55749423Y-39714322D01*
X55753266Y-39725600D01*
X55778661Y-39795523D01*
X55810183Y-39874418D01*
X55841031Y-39945266D01*
X55841183Y-39945595D01*
X55892553Y-40056733D01*
X55723601Y-40305253D01*
X55554648Y-40553772D01*
X55771571Y-40771058D01*
X55837181Y-40835726D01*
X55897021Y-40892733D01*
X55947733Y-40939033D01*
X55985954Y-40971584D01*
X56008325Y-40987343D01*
X56011534Y-40988343D01*
X56030374Y-40980469D01*
X56068820Y-40958578D01*
X56122670Y-40925267D01*
X56187724Y-40883131D01*
X56258060Y-40835943D01*
X56329445Y-40787810D01*
X56393092Y-40745928D01*
X56444959Y-40712871D01*
X56481005Y-40691218D01*
X56497133Y-40683543D01*
X56516811Y-40690037D01*
X56554125Y-40707150D01*
X56601379Y-40731326D01*
X56606388Y-40734013D01*
X56670023Y-40765927D01*
X56713659Y-40781579D01*
X56740798Y-40781745D01*
X56754943Y-40767204D01*
X56755025Y-40767000D01*
X56762095Y-40749779D01*
X56778958Y-40708899D01*
X56804305Y-40647525D01*
X56836829Y-40568819D01*
X56875222Y-40475947D01*
X56918178Y-40372072D01*
X56959778Y-40271502D01*
X57005496Y-40160516D01*
X57047474Y-40057703D01*
X57084452Y-39966215D01*
X57115173Y-39889201D01*
X57138378Y-39829815D01*
X57152810Y-39791209D01*
X57157257Y-39776800D01*
X57146104Y-39760272D01*
X57116931Y-39733930D01*
X57078029Y-39704887D01*
X56967243Y-39613039D01*
X56880649Y-39507759D01*
X56819284Y-39391266D01*
X56784185Y-39265776D01*
X56776392Y-39133507D01*
X56782057Y-39072457D01*
X56812922Y-38945795D01*
X56866080Y-38833941D01*
X56938233Y-38738001D01*
X57026083Y-38659076D01*
X57126335Y-38598270D01*
X57235690Y-38556687D01*
X57350853Y-38535428D01*
X57468525Y-38535599D01*
X57585410Y-38558301D01*
X57698211Y-38604638D01*
X57803631Y-38675713D01*
X57847632Y-38715911D01*
X57932021Y-38819129D01*
X57990778Y-38931925D01*
X58024296Y-39051010D01*
X58032965Y-39173095D01*
X58017177Y-39294893D01*
X57977322Y-39413116D01*
X57913793Y-39524475D01*
X57826979Y-39625684D01*
X57729971Y-39704887D01*
X57689563Y-39735162D01*
X57661018Y-39761219D01*
X57650743Y-39776825D01*
X57656123Y-39793843D01*
X57671425Y-39834500D01*
X57695388Y-39895642D01*
X57726756Y-39974119D01*
X57764268Y-40066780D01*
X57806667Y-40170472D01*
X57848337Y-40271526D01*
X57894310Y-40382607D01*
X57936893Y-40485541D01*
X57974779Y-40577165D01*
X58006660Y-40654316D01*
X58031229Y-40713831D01*
X58047180Y-40752544D01*
X58053090Y-40767000D01*
X58067052Y-40781685D01*
X58094060Y-40781642D01*
X58137587Y-40766099D01*
X58201110Y-40734284D01*
X58201612Y-40734013D01*
X58249440Y-40709323D01*
X58288103Y-40691338D01*
X58309905Y-40683614D01*
X58310867Y-40683543D01*
X58327279Y-40691378D01*
X58363513Y-40713165D01*
X58415526Y-40746328D01*
X58479275Y-40788291D01*
X58549940Y-40835943D01*
X58621884Y-40884191D01*
X58686726Y-40926151D01*
X58740265Y-40959227D01*
X58778303Y-40980821D01*
X58796467Y-40988343D01*
X58813192Y-40978457D01*
X58846820Y-40950826D01*
X58893990Y-40908495D01*
X58951342Y-40854505D01*
X59015516Y-40791899D01*
X59036503Y-40770983D01*
X59253501Y-40553623D01*
X59088332Y-40311220D01*
X59038136Y-40236781D01*
X58994081Y-40169972D01*
X58958638Y-40114665D01*
X58934281Y-40074729D01*
X58923478Y-40054036D01*
X58923162Y-40052563D01*
X58928857Y-40033058D01*
X58944174Y-39993822D01*
X58966463Y-39941430D01*
X58982107Y-39906355D01*
X59011359Y-39839201D01*
X59038906Y-39771358D01*
X59060263Y-39714034D01*
X59066065Y-39696572D01*
X59082548Y-39649938D01*
X59098660Y-39613905D01*
X59107510Y-39600287D01*
X59127040Y-39591952D01*
X59169666Y-39580137D01*
X59229855Y-39566181D01*
X59302078Y-39551422D01*
X59334400Y-39545355D01*
X59416478Y-39530273D01*
X59495205Y-39515669D01*
X59562891Y-39502980D01*
X59611840Y-39493642D01*
X59621057Y-39491839D01*
X59697257Y-39476799D01*
X59697257Y-39159492D01*
X59697086Y-39055154D01*
X59696384Y-38976213D01*
X59694866Y-38919038D01*
X59692251Y-38879999D01*
X59688254Y-38855465D01*
X59682591Y-38841805D01*
X59674980Y-38835389D01*
X59671857Y-38834199D01*
X59653022Y-38829980D01*
X59611412Y-38821562D01*
X59552370Y-38809961D01*
X59481243Y-38796195D01*
X59403375Y-38781280D01*
X59324113Y-38766232D01*
X59248802Y-38752069D01*
X59182787Y-38739806D01*
X59131413Y-38730461D01*
X59100025Y-38725050D01*
X59093041Y-38724114D01*
X59086715Y-38711596D01*
X59072710Y-38678246D01*
X59053645Y-38630377D01*
X59046366Y-38611629D01*
X59017004Y-38539195D01*
X58982429Y-38459170D01*
X58951463Y-38391728D01*
X58928677Y-38340159D01*
X58913518Y-38297785D01*
X58908458Y-38271834D01*
X58909264Y-38268356D01*
X58919959Y-38251936D01*
X58944380Y-38215417D01*
X58979905Y-38162687D01*
X59023913Y-38097635D01*
X59073783Y-38024151D01*
X59083644Y-38009645D01*
X59141508Y-37923704D01*
X59184044Y-37858261D01*
X59212946Y-37810304D01*
X59229910Y-37776820D01*
X59236633Y-37754795D01*
X59234810Y-37741217D01*
X59234764Y-37741131D01*
X59220414Y-37723297D01*
X59188677Y-37688817D01*
X59142990Y-37641268D01*
X59086796Y-37584222D01*
X59023532Y-37521255D01*
X59016398Y-37514227D01*
X58936670Y-37437020D01*
X58875143Y-37380330D01*
X58830579Y-37343110D01*
X58801743Y-37324315D01*
X58789042Y-37321889D01*
X58770506Y-37332471D01*
X58732039Y-37356916D01*
X58677614Y-37392612D01*
X58611202Y-37436947D01*
X58536775Y-37487311D01*
X58519399Y-37499160D01*
X58272703Y-37667626D01*
X58161294Y-37617062D01*
X58093543Y-37587595D01*
X58020817Y-37557959D01*
X57958297Y-37534330D01*
X57955543Y-37533358D01*
X57906640Y-37515457D01*
X57868943Y-37500320D01*
X57850575Y-37491210D01*
X57850544Y-37491184D01*
X57844715Y-37474717D01*
X57834808Y-37434219D01*
X57821805Y-37374242D01*
X57806691Y-37299340D01*
X57790448Y-37214064D01*
X57789119Y-37206875D01*
X57772825Y-37119014D01*
X57757867Y-37039260D01*
X57745209Y-36972681D01*
X57735814Y-36924347D01*
X57730646Y-36899325D01*
X57730556Y-36898943D01*
X57727411Y-36888299D01*
X57721296Y-36880262D01*
X57708547Y-36874467D01*
X57685500Y-36870547D01*
X57648491Y-36868135D01*
X57593856Y-36866865D01*
X57517933Y-36866371D01*
X57417056Y-36866286D01*
X57404000Y-36866286D01*
X57300090Y-36866348D01*
G04 #@! TO.C,REF\002A\002A\002A*
G36*
X86542578Y-38831822D02*
X90063371Y-38831822D01*
X90063371Y-37964198D01*
X86542578Y-37964198D01*
X86542578Y-38831822D01*
X86542578Y-38831822D01*
G37*
X86542578Y-38831822D02*
X90063371Y-38831822D01*
X90063371Y-37964198D01*
X86542578Y-37964198D01*
X86542578Y-38831822D01*
G36*
X86165970Y-32878848D02*
X86166589Y-32965931D01*
X86618314Y-33424891D01*
X87070039Y-33883852D01*
X87070368Y-34094471D01*
X87070697Y-34305089D01*
X87345790Y-34305089D01*
X87352878Y-34358530D01*
X87355562Y-34382888D01*
X87360087Y-34428759D01*
X87366209Y-34493405D01*
X87373688Y-34574091D01*
X87382281Y-34668081D01*
X87391746Y-34772637D01*
X87401842Y-34885025D01*
X87412326Y-35002507D01*
X87422956Y-35122348D01*
X87433491Y-35241811D01*
X87443687Y-35358159D01*
X87453305Y-35468657D01*
X87462100Y-35570569D01*
X87469832Y-35661158D01*
X87476258Y-35737687D01*
X87481137Y-35797421D01*
X87484225Y-35837624D01*
X87485283Y-35855559D01*
X87485282Y-35855644D01*
X87477573Y-35870035D01*
X87454419Y-35899748D01*
X87415505Y-35945131D01*
X87360516Y-36006529D01*
X87289136Y-36084288D01*
X87201051Y-36178754D01*
X87095946Y-36290272D01*
X86973505Y-36419188D01*
X86939090Y-36455287D01*
X86393263Y-37027416D01*
X86481519Y-37115436D01*
X86552915Y-37037758D01*
X86579034Y-37009686D01*
X86619834Y-36966274D01*
X86672623Y-36910366D01*
X86734709Y-36844808D01*
X86803400Y-36772441D01*
X86876004Y-36696112D01*
X86919440Y-36650524D01*
X87000984Y-36565119D01*
X87066896Y-36496710D01*
X87118856Y-36444053D01*
X87158545Y-36405905D01*
X87187643Y-36381020D01*
X87207831Y-36368156D01*
X87220790Y-36366068D01*
X87228200Y-36373513D01*
X87231742Y-36389246D01*
X87233097Y-36412023D01*
X87233279Y-36418239D01*
X87242697Y-36461061D01*
X87265903Y-36512819D01*
X87298264Y-36565328D01*
X87335148Y-36610403D01*
X87349907Y-36624328D01*
X87425633Y-36673047D01*
X87514092Y-36700306D01*
X87592300Y-36706773D01*
X87680932Y-36694576D01*
X87762788Y-36658813D01*
X87835236Y-36600722D01*
X87848603Y-36586262D01*
X87897482Y-36530733D01*
X88743074Y-36530733D01*
X88743074Y-36706773D01*
X88969410Y-36706773D01*
X88969410Y-36624531D01*
X88972250Y-36568386D01*
X88981793Y-36529416D01*
X88993391Y-36508219D01*
X89001677Y-36493052D01*
X89008773Y-36471062D01*
X89015148Y-36438987D01*
X89021272Y-36393569D01*
X89027616Y-36331548D01*
X89034650Y-36249662D01*
X89039466Y-36188746D01*
X89061561Y-35903343D01*
X89603965Y-36452805D01*
X89702037Y-36552228D01*
X89796184Y-36647815D01*
X89884685Y-36737810D01*
X89965820Y-36820457D01*
X90037869Y-36894001D01*
X90099112Y-36956684D01*
X90147827Y-37006752D01*
X90182296Y-37042448D01*
X90200779Y-37061995D01*
X90231143Y-37092944D01*
X90256471Y-37114530D01*
X90270095Y-37121723D01*
X90287495Y-37113297D01*
X90312860Y-37092245D01*
X90321458Y-37083671D01*
X90357914Y-37045620D01*
X90157202Y-36841658D01*
X90105996Y-36789699D01*
X90039969Y-36722820D01*
X89962018Y-36643950D01*
X89875038Y-36556014D01*
X89781926Y-36461941D01*
X89685579Y-36364658D01*
X89588892Y-36267093D01*
X89519534Y-36197145D01*
X89414103Y-36090550D01*
X89325529Y-36000307D01*
X89252681Y-35925192D01*
X89194423Y-35863986D01*
X89149625Y-35815466D01*
X89127421Y-35790129D01*
X88949124Y-35790129D01*
X88926801Y-36075555D01*
X88920069Y-36159219D01*
X88913557Y-36235727D01*
X88907634Y-36301081D01*
X88902668Y-36351281D01*
X88899029Y-36382329D01*
X88897858Y-36389273D01*
X88891238Y-36417565D01*
X87941764Y-36417565D01*
X87935426Y-36338606D01*
X87916290Y-36245315D01*
X87876246Y-36162791D01*
X87817818Y-36094038D01*
X87743529Y-36042063D01*
X87660148Y-36010863D01*
X87633098Y-35996228D01*
X87619556Y-35964819D01*
X87619272Y-35963434D01*
X87617647Y-35950174D01*
X87619656Y-35936595D01*
X87627258Y-35920181D01*
X87642416Y-35898411D01*
X87667088Y-35868767D01*
X87703236Y-35828732D01*
X87752820Y-35775785D01*
X87817801Y-35707409D01*
X87821999Y-35703005D01*
X87891893Y-35629611D01*
X87966200Y-35551437D01*
X88039814Y-35473864D01*
X88107629Y-35402275D01*
X88164540Y-35342051D01*
X88177232Y-35328587D01*
X88225887Y-35277820D01*
X88269109Y-35234375D01*
X88303795Y-35201241D01*
X88326844Y-35181405D01*
X88334582Y-35177046D01*
X88346122Y-35186170D01*
X88373110Y-35211200D01*
X88413421Y-35250052D01*
X88464929Y-35300643D01*
X88525509Y-35360888D01*
X88593036Y-35428704D01*
X88648226Y-35484565D01*
X88949124Y-35790129D01*
X89127421Y-35790129D01*
X89117151Y-35778411D01*
X89095871Y-35751599D01*
X89084651Y-35733808D01*
X89082154Y-35725570D01*
X89083100Y-35707590D01*
X89085973Y-35666892D01*
X89090587Y-35605819D01*
X89096758Y-35526713D01*
X89104298Y-35431914D01*
X89113021Y-35323767D01*
X89122743Y-35204612D01*
X89133276Y-35076791D01*
X89141765Y-34974635D01*
X89189796Y-34398674D01*
X89066205Y-34398674D01*
X89065673Y-34411104D01*
X89063169Y-34446110D01*
X89058896Y-34501215D01*
X89053053Y-34573943D01*
X89045843Y-34661814D01*
X89037466Y-34762351D01*
X89028123Y-34873077D01*
X89019158Y-34978205D01*
X89009002Y-35097483D01*
X88999542Y-35210080D01*
X88990996Y-35313305D01*
X88983579Y-35404473D01*
X88977508Y-35480895D01*
X88973001Y-35539883D01*
X88970273Y-35578749D01*
X88969516Y-35593844D01*
X88968335Y-35603238D01*
X88963656Y-35606966D01*
X88953676Y-35603471D01*
X88936590Y-35591199D01*
X88910596Y-35568594D01*
X88873890Y-35534100D01*
X88824667Y-35486162D01*
X88761126Y-35423224D01*
X88693705Y-35355968D01*
X88418001Y-35080477D01*
X88419933Y-35078406D01*
X88237690Y-35078406D01*
X88229384Y-35089780D01*
X88206133Y-35116563D01*
X88170265Y-35156292D01*
X88124113Y-35206507D01*
X88070006Y-35264746D01*
X88010274Y-35328547D01*
X87947248Y-35395449D01*
X87883258Y-35462990D01*
X87820636Y-35528710D01*
X87761710Y-35590146D01*
X87708812Y-35644837D01*
X87664272Y-35690322D01*
X87630420Y-35724138D01*
X87609588Y-35743826D01*
X87603906Y-35747837D01*
X87602034Y-35734891D01*
X87598146Y-35699134D01*
X87592457Y-35642804D01*
X87585181Y-35568140D01*
X87576531Y-35477380D01*
X87566722Y-35372762D01*
X87555966Y-35256526D01*
X87544479Y-35130908D01*
X87535307Y-35029618D01*
X87523574Y-34898279D01*
X87512735Y-34774552D01*
X87502970Y-34660681D01*
X87494463Y-34558911D01*
X87487395Y-34471487D01*
X87481949Y-34400653D01*
X87478308Y-34348653D01*
X87476653Y-34317732D01*
X87476842Y-34309703D01*
X87486734Y-34316854D01*
X87511924Y-34339841D01*
X87550210Y-34376439D01*
X87599389Y-34424422D01*
X87657261Y-34481566D01*
X87721622Y-34545647D01*
X87790271Y-34614438D01*
X87861005Y-34685716D01*
X87931622Y-34757255D01*
X87999920Y-34826830D01*
X88063696Y-34892217D01*
X88120750Y-34951191D01*
X88168878Y-35001527D01*
X88205878Y-35040999D01*
X88229548Y-35067383D01*
X88237690Y-35078406D01*
X88419933Y-35078406D01*
X88520809Y-34970295D01*
X88573168Y-34914377D01*
X88631935Y-34851948D01*
X88694785Y-34785443D01*
X88759395Y-34717298D01*
X88823442Y-34649948D01*
X88884603Y-34585828D01*
X88940553Y-34527372D01*
X88988970Y-34477018D01*
X89027530Y-34437198D01*
X89053909Y-34410350D01*
X89065784Y-34398908D01*
X89066205Y-34398674D01*
X89189796Y-34398674D01*
X89201801Y-34254726D01*
X89802338Y-33623158D01*
X90402875Y-32991589D01*
X90402434Y-32903315D01*
X90401992Y-32815040D01*
X90304983Y-32918666D01*
X90250691Y-32976463D01*
X90186592Y-33044368D01*
X90114416Y-33120572D01*
X90035892Y-33203269D01*
X89952749Y-33290653D01*
X89866719Y-33380915D01*
X89779530Y-33472250D01*
X89692913Y-33562849D01*
X89608597Y-33650907D01*
X89528312Y-33734615D01*
X89453787Y-33812167D01*
X89386754Y-33881757D01*
X89328941Y-33941576D01*
X89282079Y-33989818D01*
X89247896Y-34024676D01*
X89228124Y-34044343D01*
X89223790Y-34048116D01*
X89223492Y-34034992D01*
X89225131Y-34001389D01*
X89228423Y-33951880D01*
X89233082Y-33891037D01*
X89235082Y-33866732D01*
X89249977Y-33688951D01*
X89133355Y-33688951D01*
X89127334Y-33717243D01*
X89124263Y-33739618D01*
X89119948Y-33781717D01*
X89114888Y-33838178D01*
X89109581Y-33903635D01*
X89107744Y-33927862D01*
X89102327Y-33997421D01*
X89096859Y-34062018D01*
X89091888Y-34115548D01*
X89087961Y-34151910D01*
X89087075Y-34158509D01*
X89083734Y-34172056D01*
X89076501Y-34187914D01*
X89063840Y-34207861D01*
X89044211Y-34233673D01*
X89016078Y-34267129D01*
X88977902Y-34310007D01*
X88928146Y-34364083D01*
X88865271Y-34431136D01*
X88787741Y-34512943D01*
X88708651Y-34595950D01*
X88629964Y-34678094D01*
X88556512Y-34754169D01*
X88490124Y-34822325D01*
X88432627Y-34880712D01*
X88385851Y-34927481D01*
X88351624Y-34960782D01*
X88331773Y-34978767D01*
X88327540Y-34981442D01*
X88316403Y-34971741D01*
X88290371Y-34946441D01*
X88251970Y-34908082D01*
X88203728Y-34859200D01*
X88148170Y-34802334D01*
X88107992Y-34760906D01*
X87898231Y-34544000D01*
X88516737Y-34544000D01*
X88516737Y-34305089D01*
X87762281Y-34305089D01*
X87762281Y-34411542D01*
X87623965Y-34273654D01*
X87525847Y-34175840D01*
X87334757Y-34175840D01*
X87332929Y-34191270D01*
X87323677Y-34199867D01*
X87301350Y-34203613D01*
X87260295Y-34204489D01*
X87253024Y-34204495D01*
X87171291Y-34204495D01*
X87171291Y-33985172D01*
X87253024Y-34066179D01*
X87299130Y-34115428D01*
X87326706Y-34153159D01*
X87334757Y-34175840D01*
X87525847Y-34175840D01*
X87485648Y-34135766D01*
X87485648Y-34012952D01*
X87485263Y-33956450D01*
X87483500Y-33920505D01*
X87479450Y-33900530D01*
X87472201Y-33891937D01*
X87461270Y-33890139D01*
X87449112Y-33887498D01*
X87440127Y-33876912D01*
X87433226Y-33854381D01*
X87427324Y-33815909D01*
X87421335Y-33757498D01*
X87419413Y-33736104D01*
X87415252Y-33688951D01*
X89133355Y-33688951D01*
X89249977Y-33688951D01*
X89409509Y-33688951D01*
X89409509Y-33575782D01*
X89341714Y-33575782D01*
X89302062Y-33574696D01*
X89280516Y-33569454D01*
X89277880Y-33566334D01*
X89139016Y-33566334D01*
X89131708Y-33573462D01*
X89106393Y-33575662D01*
X89089308Y-33575782D01*
X89032281Y-33575782D01*
X88819621Y-33575782D01*
X87405098Y-33575782D01*
X87452942Y-33526786D01*
X87527250Y-33466324D01*
X87619216Y-33419691D01*
X87730398Y-33386249D01*
X87840871Y-33367753D01*
X87913173Y-33359122D01*
X87913173Y-33450040D01*
X88491588Y-33450040D01*
X88491588Y-33346893D01*
X88576465Y-33355496D01*
X88635768Y-33362756D01*
X88698951Y-33372379D01*
X88736786Y-33379252D01*
X88812232Y-33394407D01*
X88815926Y-33485095D01*
X88819621Y-33575782D01*
X89032281Y-33575782D01*
X89032281Y-33525485D01*
X89033944Y-33493976D01*
X89038097Y-33476463D01*
X89039771Y-33475188D01*
X89058387Y-33483254D01*
X89085583Y-33502820D01*
X89112848Y-33526944D01*
X89131667Y-33548682D01*
X89133343Y-33551508D01*
X89139016Y-33566334D01*
X89277880Y-33566334D01*
X89270062Y-33557081D01*
X89265842Y-33543604D01*
X89248619Y-33508627D01*
X89215538Y-33466579D01*
X89172293Y-33423356D01*
X89124574Y-33384854D01*
X89093230Y-33364801D01*
X89057523Y-33342851D01*
X89039219Y-33324411D01*
X89032788Y-33302668D01*
X89032294Y-33289718D01*
X89032294Y-33286575D01*
X88390994Y-33286575D01*
X88390994Y-33349446D01*
X88013767Y-33349446D01*
X88013767Y-33286575D01*
X88390994Y-33286575D01*
X89032294Y-33286575D01*
X89032281Y-33248852D01*
X88926448Y-33248852D01*
X88877755Y-33250029D01*
X88839805Y-33253165D01*
X88818708Y-33257671D01*
X88816423Y-33259495D01*
X88803041Y-33262295D01*
X88770474Y-33261148D01*
X88724316Y-33256393D01*
X88692776Y-33252003D01*
X88635588Y-33243378D01*
X88583286Y-33235591D01*
X88543982Y-33229847D01*
X88532455Y-33228215D01*
X88502337Y-33218888D01*
X88491588Y-33204272D01*
X88488320Y-33198320D01*
X88476630Y-33193778D01*
X88453688Y-33190470D01*
X88416665Y-33188215D01*
X88362732Y-33186834D01*
X88289060Y-33186150D01*
X88202380Y-33185980D01*
X88109871Y-33186077D01*
X88039494Y-33186530D01*
X87988236Y-33187590D01*
X87953080Y-33189503D01*
X87931011Y-33192519D01*
X87919015Y-33196885D01*
X87914076Y-33202849D01*
X87913173Y-33209784D01*
X87905479Y-33231795D01*
X87880279Y-33244321D01*
X87834391Y-33248788D01*
X87826136Y-33248852D01*
X87748427Y-33256868D01*
X87660167Y-33278936D01*
X87569315Y-33312084D01*
X87483830Y-33353339D01*
X87411674Y-33399731D01*
X87402328Y-33407082D01*
X87371867Y-33430998D01*
X87353828Y-33440576D01*
X87341231Y-33437480D01*
X87328300Y-33424704D01*
X87290107Y-33399678D01*
X87240402Y-33390071D01*
X87186876Y-33395067D01*
X87137222Y-33413851D01*
X87099133Y-33445606D01*
X87096375Y-33449297D01*
X87067874Y-33508575D01*
X87062572Y-33569934D01*
X87079882Y-33628427D01*
X87119220Y-33679104D01*
X87124030Y-33683289D01*
X87151960Y-33703167D01*
X87180298Y-33711921D01*
X87220137Y-33712553D01*
X87230089Y-33711992D01*
X87269068Y-33710562D01*
X87289146Y-33713839D01*
X87296415Y-33723728D01*
X87297160Y-33732961D01*
X87298684Y-33759744D01*
X87302465Y-33800025D01*
X87305182Y-33824124D01*
X87309123Y-33862401D01*
X87307484Y-33881996D01*
X87297979Y-33889158D01*
X87281049Y-33890139D01*
X87271008Y-33886901D01*
X87254810Y-33876420D01*
X87231255Y-33857548D01*
X87199143Y-33829135D01*
X87157272Y-33790035D01*
X87104443Y-33739097D01*
X87039455Y-33675173D01*
X86961109Y-33597114D01*
X86868203Y-33503772D01*
X86759537Y-33393998D01*
X86707169Y-33340952D01*
X86165351Y-32791767D01*
X86165970Y-32878848D01*
X86165970Y-32878848D01*
G37*
X86165970Y-32878848D02*
X86166589Y-32965931D01*
X86618314Y-33424891D01*
X87070039Y-33883852D01*
X87070368Y-34094471D01*
X87070697Y-34305089D01*
X87345790Y-34305089D01*
X87352878Y-34358530D01*
X87355562Y-34382888D01*
X87360087Y-34428759D01*
X87366209Y-34493405D01*
X87373688Y-34574091D01*
X87382281Y-34668081D01*
X87391746Y-34772637D01*
X87401842Y-34885025D01*
X87412326Y-35002507D01*
X87422956Y-35122348D01*
X87433491Y-35241811D01*
X87443687Y-35358159D01*
X87453305Y-35468657D01*
X87462100Y-35570569D01*
X87469832Y-35661158D01*
X87476258Y-35737687D01*
X87481137Y-35797421D01*
X87484225Y-35837624D01*
X87485283Y-35855559D01*
X87485282Y-35855644D01*
X87477573Y-35870035D01*
X87454419Y-35899748D01*
X87415505Y-35945131D01*
X87360516Y-36006529D01*
X87289136Y-36084288D01*
X87201051Y-36178754D01*
X87095946Y-36290272D01*
X86973505Y-36419188D01*
X86939090Y-36455287D01*
X86393263Y-37027416D01*
X86481519Y-37115436D01*
X86552915Y-37037758D01*
X86579034Y-37009686D01*
X86619834Y-36966274D01*
X86672623Y-36910366D01*
X86734709Y-36844808D01*
X86803400Y-36772441D01*
X86876004Y-36696112D01*
X86919440Y-36650524D01*
X87000984Y-36565119D01*
X87066896Y-36496710D01*
X87118856Y-36444053D01*
X87158545Y-36405905D01*
X87187643Y-36381020D01*
X87207831Y-36368156D01*
X87220790Y-36366068D01*
X87228200Y-36373513D01*
X87231742Y-36389246D01*
X87233097Y-36412023D01*
X87233279Y-36418239D01*
X87242697Y-36461061D01*
X87265903Y-36512819D01*
X87298264Y-36565328D01*
X87335148Y-36610403D01*
X87349907Y-36624328D01*
X87425633Y-36673047D01*
X87514092Y-36700306D01*
X87592300Y-36706773D01*
X87680932Y-36694576D01*
X87762788Y-36658813D01*
X87835236Y-36600722D01*
X87848603Y-36586262D01*
X87897482Y-36530733D01*
X88743074Y-36530733D01*
X88743074Y-36706773D01*
X88969410Y-36706773D01*
X88969410Y-36624531D01*
X88972250Y-36568386D01*
X88981793Y-36529416D01*
X88993391Y-36508219D01*
X89001677Y-36493052D01*
X89008773Y-36471062D01*
X89015148Y-36438987D01*
X89021272Y-36393569D01*
X89027616Y-36331548D01*
X89034650Y-36249662D01*
X89039466Y-36188746D01*
X89061561Y-35903343D01*
X89603965Y-36452805D01*
X89702037Y-36552228D01*
X89796184Y-36647815D01*
X89884685Y-36737810D01*
X89965820Y-36820457D01*
X90037869Y-36894001D01*
X90099112Y-36956684D01*
X90147827Y-37006752D01*
X90182296Y-37042448D01*
X90200779Y-37061995D01*
X90231143Y-37092944D01*
X90256471Y-37114530D01*
X90270095Y-37121723D01*
X90287495Y-37113297D01*
X90312860Y-37092245D01*
X90321458Y-37083671D01*
X90357914Y-37045620D01*
X90157202Y-36841658D01*
X90105996Y-36789699D01*
X90039969Y-36722820D01*
X89962018Y-36643950D01*
X89875038Y-36556014D01*
X89781926Y-36461941D01*
X89685579Y-36364658D01*
X89588892Y-36267093D01*
X89519534Y-36197145D01*
X89414103Y-36090550D01*
X89325529Y-36000307D01*
X89252681Y-35925192D01*
X89194423Y-35863986D01*
X89149625Y-35815466D01*
X89127421Y-35790129D01*
X88949124Y-35790129D01*
X88926801Y-36075555D01*
X88920069Y-36159219D01*
X88913557Y-36235727D01*
X88907634Y-36301081D01*
X88902668Y-36351281D01*
X88899029Y-36382329D01*
X88897858Y-36389273D01*
X88891238Y-36417565D01*
X87941764Y-36417565D01*
X87935426Y-36338606D01*
X87916290Y-36245315D01*
X87876246Y-36162791D01*
X87817818Y-36094038D01*
X87743529Y-36042063D01*
X87660148Y-36010863D01*
X87633098Y-35996228D01*
X87619556Y-35964819D01*
X87619272Y-35963434D01*
X87617647Y-35950174D01*
X87619656Y-35936595D01*
X87627258Y-35920181D01*
X87642416Y-35898411D01*
X87667088Y-35868767D01*
X87703236Y-35828732D01*
X87752820Y-35775785D01*
X87817801Y-35707409D01*
X87821999Y-35703005D01*
X87891893Y-35629611D01*
X87966200Y-35551437D01*
X88039814Y-35473864D01*
X88107629Y-35402275D01*
X88164540Y-35342051D01*
X88177232Y-35328587D01*
X88225887Y-35277820D01*
X88269109Y-35234375D01*
X88303795Y-35201241D01*
X88326844Y-35181405D01*
X88334582Y-35177046D01*
X88346122Y-35186170D01*
X88373110Y-35211200D01*
X88413421Y-35250052D01*
X88464929Y-35300643D01*
X88525509Y-35360888D01*
X88593036Y-35428704D01*
X88648226Y-35484565D01*
X88949124Y-35790129D01*
X89127421Y-35790129D01*
X89117151Y-35778411D01*
X89095871Y-35751599D01*
X89084651Y-35733808D01*
X89082154Y-35725570D01*
X89083100Y-35707590D01*
X89085973Y-35666892D01*
X89090587Y-35605819D01*
X89096758Y-35526713D01*
X89104298Y-35431914D01*
X89113021Y-35323767D01*
X89122743Y-35204612D01*
X89133276Y-35076791D01*
X89141765Y-34974635D01*
X89189796Y-34398674D01*
X89066205Y-34398674D01*
X89065673Y-34411104D01*
X89063169Y-34446110D01*
X89058896Y-34501215D01*
X89053053Y-34573943D01*
X89045843Y-34661814D01*
X89037466Y-34762351D01*
X89028123Y-34873077D01*
X89019158Y-34978205D01*
X89009002Y-35097483D01*
X88999542Y-35210080D01*
X88990996Y-35313305D01*
X88983579Y-35404473D01*
X88977508Y-35480895D01*
X88973001Y-35539883D01*
X88970273Y-35578749D01*
X88969516Y-35593844D01*
X88968335Y-35603238D01*
X88963656Y-35606966D01*
X88953676Y-35603471D01*
X88936590Y-35591199D01*
X88910596Y-35568594D01*
X88873890Y-35534100D01*
X88824667Y-35486162D01*
X88761126Y-35423224D01*
X88693705Y-35355968D01*
X88418001Y-35080477D01*
X88419933Y-35078406D01*
X88237690Y-35078406D01*
X88229384Y-35089780D01*
X88206133Y-35116563D01*
X88170265Y-35156292D01*
X88124113Y-35206507D01*
X88070006Y-35264746D01*
X88010274Y-35328547D01*
X87947248Y-35395449D01*
X87883258Y-35462990D01*
X87820636Y-35528710D01*
X87761710Y-35590146D01*
X87708812Y-35644837D01*
X87664272Y-35690322D01*
X87630420Y-35724138D01*
X87609588Y-35743826D01*
X87603906Y-35747837D01*
X87602034Y-35734891D01*
X87598146Y-35699134D01*
X87592457Y-35642804D01*
X87585181Y-35568140D01*
X87576531Y-35477380D01*
X87566722Y-35372762D01*
X87555966Y-35256526D01*
X87544479Y-35130908D01*
X87535307Y-35029618D01*
X87523574Y-34898279D01*
X87512735Y-34774552D01*
X87502970Y-34660681D01*
X87494463Y-34558911D01*
X87487395Y-34471487D01*
X87481949Y-34400653D01*
X87478308Y-34348653D01*
X87476653Y-34317732D01*
X87476842Y-34309703D01*
X87486734Y-34316854D01*
X87511924Y-34339841D01*
X87550210Y-34376439D01*
X87599389Y-34424422D01*
X87657261Y-34481566D01*
X87721622Y-34545647D01*
X87790271Y-34614438D01*
X87861005Y-34685716D01*
X87931622Y-34757255D01*
X87999920Y-34826830D01*
X88063696Y-34892217D01*
X88120750Y-34951191D01*
X88168878Y-35001527D01*
X88205878Y-35040999D01*
X88229548Y-35067383D01*
X88237690Y-35078406D01*
X88419933Y-35078406D01*
X88520809Y-34970295D01*
X88573168Y-34914377D01*
X88631935Y-34851948D01*
X88694785Y-34785443D01*
X88759395Y-34717298D01*
X88823442Y-34649948D01*
X88884603Y-34585828D01*
X88940553Y-34527372D01*
X88988970Y-34477018D01*
X89027530Y-34437198D01*
X89053909Y-34410350D01*
X89065784Y-34398908D01*
X89066205Y-34398674D01*
X89189796Y-34398674D01*
X89201801Y-34254726D01*
X89802338Y-33623158D01*
X90402875Y-32991589D01*
X90402434Y-32903315D01*
X90401992Y-32815040D01*
X90304983Y-32918666D01*
X90250691Y-32976463D01*
X90186592Y-33044368D01*
X90114416Y-33120572D01*
X90035892Y-33203269D01*
X89952749Y-33290653D01*
X89866719Y-33380915D01*
X89779530Y-33472250D01*
X89692913Y-33562849D01*
X89608597Y-33650907D01*
X89528312Y-33734615D01*
X89453787Y-33812167D01*
X89386754Y-33881757D01*
X89328941Y-33941576D01*
X89282079Y-33989818D01*
X89247896Y-34024676D01*
X89228124Y-34044343D01*
X89223790Y-34048116D01*
X89223492Y-34034992D01*
X89225131Y-34001389D01*
X89228423Y-33951880D01*
X89233082Y-33891037D01*
X89235082Y-33866732D01*
X89249977Y-33688951D01*
X89133355Y-33688951D01*
X89127334Y-33717243D01*
X89124263Y-33739618D01*
X89119948Y-33781717D01*
X89114888Y-33838178D01*
X89109581Y-33903635D01*
X89107744Y-33927862D01*
X89102327Y-33997421D01*
X89096859Y-34062018D01*
X89091888Y-34115548D01*
X89087961Y-34151910D01*
X89087075Y-34158509D01*
X89083734Y-34172056D01*
X89076501Y-34187914D01*
X89063840Y-34207861D01*
X89044211Y-34233673D01*
X89016078Y-34267129D01*
X88977902Y-34310007D01*
X88928146Y-34364083D01*
X88865271Y-34431136D01*
X88787741Y-34512943D01*
X88708651Y-34595950D01*
X88629964Y-34678094D01*
X88556512Y-34754169D01*
X88490124Y-34822325D01*
X88432627Y-34880712D01*
X88385851Y-34927481D01*
X88351624Y-34960782D01*
X88331773Y-34978767D01*
X88327540Y-34981442D01*
X88316403Y-34971741D01*
X88290371Y-34946441D01*
X88251970Y-34908082D01*
X88203728Y-34859200D01*
X88148170Y-34802334D01*
X88107992Y-34760906D01*
X87898231Y-34544000D01*
X88516737Y-34544000D01*
X88516737Y-34305089D01*
X87762281Y-34305089D01*
X87762281Y-34411542D01*
X87623965Y-34273654D01*
X87525847Y-34175840D01*
X87334757Y-34175840D01*
X87332929Y-34191270D01*
X87323677Y-34199867D01*
X87301350Y-34203613D01*
X87260295Y-34204489D01*
X87253024Y-34204495D01*
X87171291Y-34204495D01*
X87171291Y-33985172D01*
X87253024Y-34066179D01*
X87299130Y-34115428D01*
X87326706Y-34153159D01*
X87334757Y-34175840D01*
X87525847Y-34175840D01*
X87485648Y-34135766D01*
X87485648Y-34012952D01*
X87485263Y-33956450D01*
X87483500Y-33920505D01*
X87479450Y-33900530D01*
X87472201Y-33891937D01*
X87461270Y-33890139D01*
X87449112Y-33887498D01*
X87440127Y-33876912D01*
X87433226Y-33854381D01*
X87427324Y-33815909D01*
X87421335Y-33757498D01*
X87419413Y-33736104D01*
X87415252Y-33688951D01*
X89133355Y-33688951D01*
X89249977Y-33688951D01*
X89409509Y-33688951D01*
X89409509Y-33575782D01*
X89341714Y-33575782D01*
X89302062Y-33574696D01*
X89280516Y-33569454D01*
X89277880Y-33566334D01*
X89139016Y-33566334D01*
X89131708Y-33573462D01*
X89106393Y-33575662D01*
X89089308Y-33575782D01*
X89032281Y-33575782D01*
X88819621Y-33575782D01*
X87405098Y-33575782D01*
X87452942Y-33526786D01*
X87527250Y-33466324D01*
X87619216Y-33419691D01*
X87730398Y-33386249D01*
X87840871Y-33367753D01*
X87913173Y-33359122D01*
X87913173Y-33450040D01*
X88491588Y-33450040D01*
X88491588Y-33346893D01*
X88576465Y-33355496D01*
X88635768Y-33362756D01*
X88698951Y-33372379D01*
X88736786Y-33379252D01*
X88812232Y-33394407D01*
X88815926Y-33485095D01*
X88819621Y-33575782D01*
X89032281Y-33575782D01*
X89032281Y-33525485D01*
X89033944Y-33493976D01*
X89038097Y-33476463D01*
X89039771Y-33475188D01*
X89058387Y-33483254D01*
X89085583Y-33502820D01*
X89112848Y-33526944D01*
X89131667Y-33548682D01*
X89133343Y-33551508D01*
X89139016Y-33566334D01*
X89277880Y-33566334D01*
X89270062Y-33557081D01*
X89265842Y-33543604D01*
X89248619Y-33508627D01*
X89215538Y-33466579D01*
X89172293Y-33423356D01*
X89124574Y-33384854D01*
X89093230Y-33364801D01*
X89057523Y-33342851D01*
X89039219Y-33324411D01*
X89032788Y-33302668D01*
X89032294Y-33289718D01*
X89032294Y-33286575D01*
X88390994Y-33286575D01*
X88390994Y-33349446D01*
X88013767Y-33349446D01*
X88013767Y-33286575D01*
X88390994Y-33286575D01*
X89032294Y-33286575D01*
X89032281Y-33248852D01*
X88926448Y-33248852D01*
X88877755Y-33250029D01*
X88839805Y-33253165D01*
X88818708Y-33257671D01*
X88816423Y-33259495D01*
X88803041Y-33262295D01*
X88770474Y-33261148D01*
X88724316Y-33256393D01*
X88692776Y-33252003D01*
X88635588Y-33243378D01*
X88583286Y-33235591D01*
X88543982Y-33229847D01*
X88532455Y-33228215D01*
X88502337Y-33218888D01*
X88491588Y-33204272D01*
X88488320Y-33198320D01*
X88476630Y-33193778D01*
X88453688Y-33190470D01*
X88416665Y-33188215D01*
X88362732Y-33186834D01*
X88289060Y-33186150D01*
X88202380Y-33185980D01*
X88109871Y-33186077D01*
X88039494Y-33186530D01*
X87988236Y-33187590D01*
X87953080Y-33189503D01*
X87931011Y-33192519D01*
X87919015Y-33196885D01*
X87914076Y-33202849D01*
X87913173Y-33209784D01*
X87905479Y-33231795D01*
X87880279Y-33244321D01*
X87834391Y-33248788D01*
X87826136Y-33248852D01*
X87748427Y-33256868D01*
X87660167Y-33278936D01*
X87569315Y-33312084D01*
X87483830Y-33353339D01*
X87411674Y-33399731D01*
X87402328Y-33407082D01*
X87371867Y-33430998D01*
X87353828Y-33440576D01*
X87341231Y-33437480D01*
X87328300Y-33424704D01*
X87290107Y-33399678D01*
X87240402Y-33390071D01*
X87186876Y-33395067D01*
X87137222Y-33413851D01*
X87099133Y-33445606D01*
X87096375Y-33449297D01*
X87067874Y-33508575D01*
X87062572Y-33569934D01*
X87079882Y-33628427D01*
X87119220Y-33679104D01*
X87124030Y-33683289D01*
X87151960Y-33703167D01*
X87180298Y-33711921D01*
X87220137Y-33712553D01*
X87230089Y-33711992D01*
X87269068Y-33710562D01*
X87289146Y-33713839D01*
X87296415Y-33723728D01*
X87297160Y-33732961D01*
X87298684Y-33759744D01*
X87302465Y-33800025D01*
X87305182Y-33824124D01*
X87309123Y-33862401D01*
X87307484Y-33881996D01*
X87297979Y-33889158D01*
X87281049Y-33890139D01*
X87271008Y-33886901D01*
X87254810Y-33876420D01*
X87231255Y-33857548D01*
X87199143Y-33829135D01*
X87157272Y-33790035D01*
X87104443Y-33739097D01*
X87039455Y-33675173D01*
X86961109Y-33597114D01*
X86868203Y-33503772D01*
X86759537Y-33393998D01*
X86707169Y-33340952D01*
X86165351Y-32791767D01*
X86165970Y-32878848D01*
G04 #@! TO.C,REF\002A\002A*
G36*
X100761037Y-38123899D02*
X100739245Y-38131176D01*
X100720814Y-38147620D01*
X100705465Y-38176397D01*
X100692919Y-38220674D01*
X100682895Y-38283618D01*
X100675117Y-38368394D01*
X100669304Y-38478171D01*
X100665177Y-38616114D01*
X100662457Y-38785391D01*
X100660865Y-38989168D01*
X100660123Y-39230611D01*
X100659950Y-39512887D01*
X100660068Y-39839164D01*
X100660197Y-40212607D01*
X100660200Y-40271700D01*
X100660278Y-40647084D01*
X100660551Y-40974911D01*
X100661082Y-41258421D01*
X100661931Y-41500858D01*
X100663160Y-41705461D01*
X100664831Y-41875474D01*
X100667005Y-42014139D01*
X100669743Y-42124696D01*
X100673108Y-42210388D01*
X100677159Y-42274457D01*
X100681959Y-42320144D01*
X100687569Y-42350692D01*
X100694051Y-42369341D01*
X100700115Y-42378085D01*
X100711191Y-42385192D01*
X100731399Y-42391413D01*
X100763910Y-42396806D01*
X100811897Y-42401429D01*
X100878533Y-42405340D01*
X100966990Y-42408596D01*
X101080440Y-42411256D01*
X101222056Y-42413375D01*
X101395010Y-42415013D01*
X101602476Y-42416228D01*
X101847624Y-42417076D01*
X102133629Y-42417615D01*
X102463661Y-42417903D01*
X102840895Y-42417998D01*
X102895401Y-42418000D01*
X103279224Y-42417926D01*
X103615420Y-42417667D01*
X103907161Y-42417165D01*
X104157619Y-42416362D01*
X104369968Y-42415200D01*
X104547379Y-42413622D01*
X104693025Y-42411571D01*
X104810078Y-42408987D01*
X104901712Y-42405815D01*
X104971097Y-42401995D01*
X105021408Y-42397471D01*
X105055816Y-42392185D01*
X105077493Y-42386079D01*
X105089613Y-42379095D01*
X105090686Y-42378085D01*
X105097935Y-42366827D01*
X105104262Y-42346352D01*
X105109728Y-42313419D01*
X105114394Y-42264786D01*
X105118322Y-42197211D01*
X105121574Y-42107452D01*
X105124210Y-41992268D01*
X105126293Y-41848417D01*
X105127883Y-41672656D01*
X105129042Y-41461744D01*
X105129832Y-41212439D01*
X105130314Y-40921500D01*
X105130549Y-40585684D01*
X105130600Y-40271700D01*
X105130523Y-39896315D01*
X105130250Y-39568488D01*
X105129719Y-39284978D01*
X105128870Y-39042541D01*
X105127641Y-38837938D01*
X105126452Y-38716929D01*
X104851201Y-38716929D01*
X104840763Y-38741838D01*
X104814456Y-38796044D01*
X104800401Y-38823899D01*
X104789468Y-38846974D01*
X104780226Y-38872620D01*
X104772533Y-38905059D01*
X104766248Y-38948508D01*
X104761228Y-39007188D01*
X104757332Y-39085317D01*
X104754417Y-39187117D01*
X104752343Y-39316805D01*
X104750966Y-39478601D01*
X104750146Y-39676725D01*
X104749741Y-39915397D01*
X104749609Y-40198835D01*
X104749601Y-40335490D01*
X104749961Y-40598926D01*
X104750998Y-40847237D01*
X104752644Y-41075756D01*
X104754832Y-41279818D01*
X104757497Y-41454758D01*
X104760570Y-41595911D01*
X104763985Y-41698610D01*
X104767676Y-41758191D01*
X104770176Y-41771570D01*
X104794600Y-41811336D01*
X104820432Y-41865550D01*
X104850111Y-41935400D01*
X104323606Y-41935011D01*
X104168433Y-41934049D01*
X104034050Y-41931581D01*
X103927401Y-41927874D01*
X103855430Y-41923192D01*
X103825081Y-41917800D01*
X103825306Y-41915961D01*
X103855255Y-41882026D01*
X103891068Y-41823826D01*
X103895156Y-41816011D01*
X103910082Y-41778721D01*
X103921093Y-41728467D01*
X103928731Y-41657756D01*
X103933534Y-41559098D01*
X103936044Y-41425000D01*
X103936799Y-41247972D01*
X103936800Y-41238161D01*
X103935567Y-41060547D01*
X103932004Y-40918076D01*
X103926322Y-40814927D01*
X103918728Y-40755278D01*
X103911986Y-40741600D01*
X103882486Y-40760970D01*
X103844759Y-40807944D01*
X103842485Y-40811450D01*
X103801907Y-40868468D01*
X103767701Y-40906700D01*
X103737253Y-40943832D01*
X103697317Y-41006166D01*
X103683729Y-41030033D01*
X103641580Y-41097130D01*
X103578873Y-41185920D01*
X103507808Y-41279264D01*
X103493858Y-41296733D01*
X103385739Y-41439544D01*
X103295262Y-41576167D01*
X103227011Y-41698549D01*
X103185569Y-41798640D01*
X103174800Y-41857123D01*
X103174800Y-41935400D01*
X102048345Y-41935400D01*
X102060471Y-41921688D01*
X101904800Y-41921688D01*
X101880701Y-41925957D01*
X101813604Y-41929685D01*
X101711311Y-41932648D01*
X101581622Y-41934626D01*
X101432339Y-41935396D01*
X101422200Y-41935400D01*
X101245433Y-41934608D01*
X101114299Y-41932006D01*
X101023653Y-41927256D01*
X100968350Y-41920018D01*
X100943244Y-41909952D01*
X100940408Y-41903650D01*
X100955362Y-41859754D01*
X100978508Y-41822595D01*
X100987702Y-41803892D01*
X100995298Y-41771395D01*
X101001441Y-41720698D01*
X101006273Y-41647396D01*
X101009936Y-41547083D01*
X101012574Y-41415354D01*
X101014330Y-41247804D01*
X101015347Y-41040027D01*
X101015767Y-40787618D01*
X101015800Y-40673245D01*
X101015800Y-39573200D01*
X101880705Y-39573200D01*
X101841953Y-39648138D01*
X101831922Y-39674015D01*
X101823733Y-39712292D01*
X101817208Y-39767807D01*
X101812174Y-39845397D01*
X101808453Y-39949900D01*
X101805871Y-40086154D01*
X101804252Y-40258997D01*
X101803421Y-40473267D01*
X101803200Y-40715950D01*
X101803314Y-40967640D01*
X101803815Y-41173711D01*
X101804945Y-41339347D01*
X101806945Y-41469727D01*
X101810055Y-41570035D01*
X101814517Y-41645451D01*
X101820571Y-41701157D01*
X101828459Y-41742335D01*
X101838421Y-41774167D01*
X101850699Y-41801835D01*
X101854000Y-41808400D01*
X101884910Y-41871836D01*
X101902920Y-41914310D01*
X101904800Y-41921688D01*
X102060471Y-41921688D01*
X102109923Y-41865770D01*
X102153845Y-41816466D01*
X102182027Y-41785490D01*
X102184200Y-41783220D01*
X102241955Y-41720105D01*
X102313437Y-41635889D01*
X102388503Y-41543265D01*
X102457009Y-41454925D01*
X102508812Y-41383561D01*
X102529024Y-41351747D01*
X102569245Y-41287784D01*
X102632738Y-41196499D01*
X102710596Y-41089880D01*
X102793913Y-40979915D01*
X102873783Y-40878590D01*
X102936127Y-40803807D01*
X102996571Y-40726748D01*
X103053241Y-40643143D01*
X103057422Y-40636250D01*
X103184763Y-40438136D01*
X103280406Y-40307556D01*
X103350364Y-40216412D01*
X103268932Y-40128960D01*
X103198740Y-40049861D01*
X103108685Y-39943092D01*
X103009343Y-39821651D01*
X102911293Y-39698539D01*
X102825111Y-39586755D01*
X102796249Y-39548015D01*
X102491459Y-39168092D01*
X102252121Y-38910987D01*
X102053341Y-38709600D01*
X102598653Y-38709600D01*
X102783850Y-38709723D01*
X102924402Y-38711061D01*
X103026463Y-38715067D01*
X103096188Y-38723193D01*
X103139731Y-38736891D01*
X103163247Y-38757616D01*
X103172889Y-38786818D01*
X103174814Y-38825951D01*
X103174800Y-38845590D01*
X103190388Y-38899042D01*
X103229459Y-38966321D01*
X103247101Y-38989562D01*
X103305748Y-39066868D01*
X103368510Y-39157786D01*
X103390598Y-39192200D01*
X103433848Y-39258964D01*
X103467488Y-39306131D01*
X103479161Y-39319200D01*
X103508955Y-39348539D01*
X103558155Y-39404218D01*
X103617878Y-39475308D01*
X103679238Y-39550881D01*
X103733353Y-39620008D01*
X103771337Y-39671761D01*
X103784400Y-39694683D01*
X103801218Y-39724174D01*
X103843254Y-39771917D01*
X103860601Y-39789100D01*
X103936801Y-39862104D01*
X103936800Y-39442288D01*
X103935207Y-39259502D01*
X103929505Y-39116676D01*
X103918307Y-39003040D01*
X103900228Y-38907829D01*
X103873882Y-38820275D01*
X103848236Y-38754050D01*
X103845006Y-38738971D01*
X103853751Y-38727738D01*
X103880695Y-38719791D01*
X103932062Y-38714567D01*
X104014076Y-38711503D01*
X104132961Y-38710038D01*
X104294940Y-38709610D01*
X104340483Y-38709600D01*
X104495317Y-38709946D01*
X104631278Y-38710912D01*
X104740783Y-38712390D01*
X104816249Y-38714271D01*
X104850092Y-38716445D01*
X104851201Y-38716929D01*
X105126452Y-38716929D01*
X105125970Y-38667925D01*
X105123796Y-38529260D01*
X105121058Y-38418703D01*
X105117693Y-38333011D01*
X105113642Y-38268942D01*
X105108842Y-38223255D01*
X105103232Y-38192707D01*
X105096750Y-38174058D01*
X105090686Y-38165314D01*
X105078222Y-38157134D01*
X105055963Y-38150138D01*
X105020209Y-38144234D01*
X104967259Y-38139333D01*
X104893412Y-38135344D01*
X104794969Y-38132178D01*
X104668227Y-38129744D01*
X104509487Y-38127952D01*
X104315047Y-38126711D01*
X104081207Y-38125933D01*
X103804265Y-38125526D01*
X103480522Y-38125400D01*
X101854000Y-38125400D01*
X101854000Y-38221618D01*
X101833921Y-38337535D01*
X101780875Y-38456200D01*
X101705646Y-38557191D01*
X101653394Y-38601444D01*
X101539854Y-38648570D01*
X101408900Y-38658836D01*
X101274772Y-38635118D01*
X101151710Y-38580289D01*
X101053952Y-38497223D01*
X101038600Y-38477347D01*
X100991594Y-38376628D01*
X100969961Y-38261077D01*
X100958710Y-38125399D01*
X100849370Y-38125400D01*
X100815820Y-38124177D01*
X100786469Y-38122621D01*
X100761037Y-38123899D01*
X100761037Y-38123899D01*
G37*
X100761037Y-38123899D02*
X100739245Y-38131176D01*
X100720814Y-38147620D01*
X100705465Y-38176397D01*
X100692919Y-38220674D01*
X100682895Y-38283618D01*
X100675117Y-38368394D01*
X100669304Y-38478171D01*
X100665177Y-38616114D01*
X100662457Y-38785391D01*
X100660865Y-38989168D01*
X100660123Y-39230611D01*
X100659950Y-39512887D01*
X100660068Y-39839164D01*
X100660197Y-40212607D01*
X100660200Y-40271700D01*
X100660278Y-40647084D01*
X100660551Y-40974911D01*
X100661082Y-41258421D01*
X100661931Y-41500858D01*
X100663160Y-41705461D01*
X100664831Y-41875474D01*
X100667005Y-42014139D01*
X100669743Y-42124696D01*
X100673108Y-42210388D01*
X100677159Y-42274457D01*
X100681959Y-42320144D01*
X100687569Y-42350692D01*
X100694051Y-42369341D01*
X100700115Y-42378085D01*
X100711191Y-42385192D01*
X100731399Y-42391413D01*
X100763910Y-42396806D01*
X100811897Y-42401429D01*
X100878533Y-42405340D01*
X100966990Y-42408596D01*
X101080440Y-42411256D01*
X101222056Y-42413375D01*
X101395010Y-42415013D01*
X101602476Y-42416228D01*
X101847624Y-42417076D01*
X102133629Y-42417615D01*
X102463661Y-42417903D01*
X102840895Y-42417998D01*
X102895401Y-42418000D01*
X103279224Y-42417926D01*
X103615420Y-42417667D01*
X103907161Y-42417165D01*
X104157619Y-42416362D01*
X104369968Y-42415200D01*
X104547379Y-42413622D01*
X104693025Y-42411571D01*
X104810078Y-42408987D01*
X104901712Y-42405815D01*
X104971097Y-42401995D01*
X105021408Y-42397471D01*
X105055816Y-42392185D01*
X105077493Y-42386079D01*
X105089613Y-42379095D01*
X105090686Y-42378085D01*
X105097935Y-42366827D01*
X105104262Y-42346352D01*
X105109728Y-42313419D01*
X105114394Y-42264786D01*
X105118322Y-42197211D01*
X105121574Y-42107452D01*
X105124210Y-41992268D01*
X105126293Y-41848417D01*
X105127883Y-41672656D01*
X105129042Y-41461744D01*
X105129832Y-41212439D01*
X105130314Y-40921500D01*
X105130549Y-40585684D01*
X105130600Y-40271700D01*
X105130523Y-39896315D01*
X105130250Y-39568488D01*
X105129719Y-39284978D01*
X105128870Y-39042541D01*
X105127641Y-38837938D01*
X105126452Y-38716929D01*
X104851201Y-38716929D01*
X104840763Y-38741838D01*
X104814456Y-38796044D01*
X104800401Y-38823899D01*
X104789468Y-38846974D01*
X104780226Y-38872620D01*
X104772533Y-38905059D01*
X104766248Y-38948508D01*
X104761228Y-39007188D01*
X104757332Y-39085317D01*
X104754417Y-39187117D01*
X104752343Y-39316805D01*
X104750966Y-39478601D01*
X104750146Y-39676725D01*
X104749741Y-39915397D01*
X104749609Y-40198835D01*
X104749601Y-40335490D01*
X104749961Y-40598926D01*
X104750998Y-40847237D01*
X104752644Y-41075756D01*
X104754832Y-41279818D01*
X104757497Y-41454758D01*
X104760570Y-41595911D01*
X104763985Y-41698610D01*
X104767676Y-41758191D01*
X104770176Y-41771570D01*
X104794600Y-41811336D01*
X104820432Y-41865550D01*
X104850111Y-41935400D01*
X104323606Y-41935011D01*
X104168433Y-41934049D01*
X104034050Y-41931581D01*
X103927401Y-41927874D01*
X103855430Y-41923192D01*
X103825081Y-41917800D01*
X103825306Y-41915961D01*
X103855255Y-41882026D01*
X103891068Y-41823826D01*
X103895156Y-41816011D01*
X103910082Y-41778721D01*
X103921093Y-41728467D01*
X103928731Y-41657756D01*
X103933534Y-41559098D01*
X103936044Y-41425000D01*
X103936799Y-41247972D01*
X103936800Y-41238161D01*
X103935567Y-41060547D01*
X103932004Y-40918076D01*
X103926322Y-40814927D01*
X103918728Y-40755278D01*
X103911986Y-40741600D01*
X103882486Y-40760970D01*
X103844759Y-40807944D01*
X103842485Y-40811450D01*
X103801907Y-40868468D01*
X103767701Y-40906700D01*
X103737253Y-40943832D01*
X103697317Y-41006166D01*
X103683729Y-41030033D01*
X103641580Y-41097130D01*
X103578873Y-41185920D01*
X103507808Y-41279264D01*
X103493858Y-41296733D01*
X103385739Y-41439544D01*
X103295262Y-41576167D01*
X103227011Y-41698549D01*
X103185569Y-41798640D01*
X103174800Y-41857123D01*
X103174800Y-41935400D01*
X102048345Y-41935400D01*
X102060471Y-41921688D01*
X101904800Y-41921688D01*
X101880701Y-41925957D01*
X101813604Y-41929685D01*
X101711311Y-41932648D01*
X101581622Y-41934626D01*
X101432339Y-41935396D01*
X101422200Y-41935400D01*
X101245433Y-41934608D01*
X101114299Y-41932006D01*
X101023653Y-41927256D01*
X100968350Y-41920018D01*
X100943244Y-41909952D01*
X100940408Y-41903650D01*
X100955362Y-41859754D01*
X100978508Y-41822595D01*
X100987702Y-41803892D01*
X100995298Y-41771395D01*
X101001441Y-41720698D01*
X101006273Y-41647396D01*
X101009936Y-41547083D01*
X101012574Y-41415354D01*
X101014330Y-41247804D01*
X101015347Y-41040027D01*
X101015767Y-40787618D01*
X101015800Y-40673245D01*
X101015800Y-39573200D01*
X101880705Y-39573200D01*
X101841953Y-39648138D01*
X101831922Y-39674015D01*
X101823733Y-39712292D01*
X101817208Y-39767807D01*
X101812174Y-39845397D01*
X101808453Y-39949900D01*
X101805871Y-40086154D01*
X101804252Y-40258997D01*
X101803421Y-40473267D01*
X101803200Y-40715950D01*
X101803314Y-40967640D01*
X101803815Y-41173711D01*
X101804945Y-41339347D01*
X101806945Y-41469727D01*
X101810055Y-41570035D01*
X101814517Y-41645451D01*
X101820571Y-41701157D01*
X101828459Y-41742335D01*
X101838421Y-41774167D01*
X101850699Y-41801835D01*
X101854000Y-41808400D01*
X101884910Y-41871836D01*
X101902920Y-41914310D01*
X101904800Y-41921688D01*
X102060471Y-41921688D01*
X102109923Y-41865770D01*
X102153845Y-41816466D01*
X102182027Y-41785490D01*
X102184200Y-41783220D01*
X102241955Y-41720105D01*
X102313437Y-41635889D01*
X102388503Y-41543265D01*
X102457009Y-41454925D01*
X102508812Y-41383561D01*
X102529024Y-41351747D01*
X102569245Y-41287784D01*
X102632738Y-41196499D01*
X102710596Y-41089880D01*
X102793913Y-40979915D01*
X102873783Y-40878590D01*
X102936127Y-40803807D01*
X102996571Y-40726748D01*
X103053241Y-40643143D01*
X103057422Y-40636250D01*
X103184763Y-40438136D01*
X103280406Y-40307556D01*
X103350364Y-40216412D01*
X103268932Y-40128960D01*
X103198740Y-40049861D01*
X103108685Y-39943092D01*
X103009343Y-39821651D01*
X102911293Y-39698539D01*
X102825111Y-39586755D01*
X102796249Y-39548015D01*
X102491459Y-39168092D01*
X102252121Y-38910987D01*
X102053341Y-38709600D01*
X102598653Y-38709600D01*
X102783850Y-38709723D01*
X102924402Y-38711061D01*
X103026463Y-38715067D01*
X103096188Y-38723193D01*
X103139731Y-38736891D01*
X103163247Y-38757616D01*
X103172889Y-38786818D01*
X103174814Y-38825951D01*
X103174800Y-38845590D01*
X103190388Y-38899042D01*
X103229459Y-38966321D01*
X103247101Y-38989562D01*
X103305748Y-39066868D01*
X103368510Y-39157786D01*
X103390598Y-39192200D01*
X103433848Y-39258964D01*
X103467488Y-39306131D01*
X103479161Y-39319200D01*
X103508955Y-39348539D01*
X103558155Y-39404218D01*
X103617878Y-39475308D01*
X103679238Y-39550881D01*
X103733353Y-39620008D01*
X103771337Y-39671761D01*
X103784400Y-39694683D01*
X103801218Y-39724174D01*
X103843254Y-39771917D01*
X103860601Y-39789100D01*
X103936801Y-39862104D01*
X103936800Y-39442288D01*
X103935207Y-39259502D01*
X103929505Y-39116676D01*
X103918307Y-39003040D01*
X103900228Y-38907829D01*
X103873882Y-38820275D01*
X103848236Y-38754050D01*
X103845006Y-38738971D01*
X103853751Y-38727738D01*
X103880695Y-38719791D01*
X103932062Y-38714567D01*
X104014076Y-38711503D01*
X104132961Y-38710038D01*
X104294940Y-38709610D01*
X104340483Y-38709600D01*
X104495317Y-38709946D01*
X104631278Y-38710912D01*
X104740783Y-38712390D01*
X104816249Y-38714271D01*
X104850092Y-38716445D01*
X104851201Y-38716929D01*
X105126452Y-38716929D01*
X105125970Y-38667925D01*
X105123796Y-38529260D01*
X105121058Y-38418703D01*
X105117693Y-38333011D01*
X105113642Y-38268942D01*
X105108842Y-38223255D01*
X105103232Y-38192707D01*
X105096750Y-38174058D01*
X105090686Y-38165314D01*
X105078222Y-38157134D01*
X105055963Y-38150138D01*
X105020209Y-38144234D01*
X104967259Y-38139333D01*
X104893412Y-38135344D01*
X104794969Y-38132178D01*
X104668227Y-38129744D01*
X104509487Y-38127952D01*
X104315047Y-38126711D01*
X104081207Y-38125933D01*
X103804265Y-38125526D01*
X103480522Y-38125400D01*
X101854000Y-38125400D01*
X101854000Y-38221618D01*
X101833921Y-38337535D01*
X101780875Y-38456200D01*
X101705646Y-38557191D01*
X101653394Y-38601444D01*
X101539854Y-38648570D01*
X101408900Y-38658836D01*
X101274772Y-38635118D01*
X101151710Y-38580289D01*
X101053952Y-38497223D01*
X101038600Y-38477347D01*
X100991594Y-38376628D01*
X100969961Y-38261077D01*
X100958710Y-38125399D01*
X100849370Y-38125400D01*
X100815820Y-38124177D01*
X100786469Y-38122621D01*
X100761037Y-38123899D01*
G36*
X98667724Y-38687541D02*
X98626489Y-38697343D01*
X98555521Y-38720029D01*
X98460227Y-38756163D01*
X98352879Y-38800387D01*
X98245747Y-38847347D01*
X98151102Y-38891687D01*
X98081215Y-38928051D01*
X98050336Y-38948798D01*
X98060026Y-38971782D01*
X98092364Y-39026708D01*
X98140936Y-39103851D01*
X98199326Y-39193488D01*
X98261119Y-39285895D01*
X98319898Y-39371351D01*
X98369248Y-39440130D01*
X98401723Y-39481359D01*
X98430164Y-39478824D01*
X98482319Y-39448535D01*
X98525993Y-39414512D01*
X98671102Y-39322426D01*
X98835913Y-39276759D01*
X98994302Y-39275484D01*
X99165002Y-39316102D01*
X99309141Y-39399327D01*
X99426155Y-39524125D01*
X99515481Y-39689460D01*
X99576557Y-39894297D01*
X99608819Y-40137601D01*
X99611974Y-40411400D01*
X99590533Y-40659026D01*
X99545416Y-40864941D01*
X99474770Y-41033305D01*
X99376743Y-41168280D01*
X99249483Y-41274026D01*
X99219821Y-41292351D01*
X99142627Y-41332615D01*
X99071162Y-41354076D01*
X98983373Y-41361876D01*
X98920300Y-41362209D01*
X98760583Y-41346554D01*
X98621853Y-41298592D01*
X98487775Y-41211813D01*
X98437554Y-41169863D01*
X98383308Y-41125362D01*
X98346986Y-41101425D01*
X98339345Y-41100169D01*
X98317184Y-41133488D01*
X98277902Y-41197533D01*
X98227170Y-41282548D01*
X98170657Y-41378775D01*
X98114034Y-41476457D01*
X98062969Y-41565836D01*
X98023135Y-41637156D01*
X98000199Y-41680660D01*
X97996947Y-41689380D01*
X98022182Y-41702754D01*
X98080056Y-41733453D01*
X98158338Y-41774986D01*
X98162943Y-41777430D01*
X98325253Y-41857812D01*
X98468188Y-41913128D01*
X98610128Y-41948186D01*
X98769453Y-41967793D01*
X98920300Y-41975540D01*
X99113115Y-41976769D01*
X99265150Y-41967313D01*
X99355964Y-41951765D01*
X99588199Y-41866918D01*
X99801241Y-41737918D01*
X99991034Y-41569106D01*
X100153522Y-41364823D01*
X100284648Y-41129409D01*
X100380356Y-40867205D01*
X100384852Y-40850832D01*
X100421150Y-40664226D01*
X100440055Y-40450120D01*
X100441577Y-40226457D01*
X100425731Y-40011182D01*
X100392528Y-39822240D01*
X100384103Y-39790244D01*
X100282339Y-39516635D01*
X100139668Y-39270668D01*
X99958596Y-39055853D01*
X99741630Y-38875695D01*
X99720400Y-38861282D01*
X99542756Y-38768704D01*
X99334702Y-38702948D01*
X99110202Y-38666107D01*
X98883222Y-38660273D01*
X98667724Y-38687541D01*
X98667724Y-38687541D01*
G37*
X98667724Y-38687541D02*
X98626489Y-38697343D01*
X98555521Y-38720029D01*
X98460227Y-38756163D01*
X98352879Y-38800387D01*
X98245747Y-38847347D01*
X98151102Y-38891687D01*
X98081215Y-38928051D01*
X98050336Y-38948798D01*
X98060026Y-38971782D01*
X98092364Y-39026708D01*
X98140936Y-39103851D01*
X98199326Y-39193488D01*
X98261119Y-39285895D01*
X98319898Y-39371351D01*
X98369248Y-39440130D01*
X98401723Y-39481359D01*
X98430164Y-39478824D01*
X98482319Y-39448535D01*
X98525993Y-39414512D01*
X98671102Y-39322426D01*
X98835913Y-39276759D01*
X98994302Y-39275484D01*
X99165002Y-39316102D01*
X99309141Y-39399327D01*
X99426155Y-39524125D01*
X99515481Y-39689460D01*
X99576557Y-39894297D01*
X99608819Y-40137601D01*
X99611974Y-40411400D01*
X99590533Y-40659026D01*
X99545416Y-40864941D01*
X99474770Y-41033305D01*
X99376743Y-41168280D01*
X99249483Y-41274026D01*
X99219821Y-41292351D01*
X99142627Y-41332615D01*
X99071162Y-41354076D01*
X98983373Y-41361876D01*
X98920300Y-41362209D01*
X98760583Y-41346554D01*
X98621853Y-41298592D01*
X98487775Y-41211813D01*
X98437554Y-41169863D01*
X98383308Y-41125362D01*
X98346986Y-41101425D01*
X98339345Y-41100169D01*
X98317184Y-41133488D01*
X98277902Y-41197533D01*
X98227170Y-41282548D01*
X98170657Y-41378775D01*
X98114034Y-41476457D01*
X98062969Y-41565836D01*
X98023135Y-41637156D01*
X98000199Y-41680660D01*
X97996947Y-41689380D01*
X98022182Y-41702754D01*
X98080056Y-41733453D01*
X98158338Y-41774986D01*
X98162943Y-41777430D01*
X98325253Y-41857812D01*
X98468188Y-41913128D01*
X98610128Y-41948186D01*
X98769453Y-41967793D01*
X98920300Y-41975540D01*
X99113115Y-41976769D01*
X99265150Y-41967313D01*
X99355964Y-41951765D01*
X99588199Y-41866918D01*
X99801241Y-41737918D01*
X99991034Y-41569106D01*
X100153522Y-41364823D01*
X100284648Y-41129409D01*
X100380356Y-40867205D01*
X100384852Y-40850832D01*
X100421150Y-40664226D01*
X100440055Y-40450120D01*
X100441577Y-40226457D01*
X100425731Y-40011182D01*
X100392528Y-39822240D01*
X100384103Y-39790244D01*
X100282339Y-39516635D01*
X100139668Y-39270668D01*
X99958596Y-39055853D01*
X99741630Y-38875695D01*
X99720400Y-38861282D01*
X99542756Y-38768704D01*
X99334702Y-38702948D01*
X99110202Y-38666107D01*
X98883222Y-38660273D01*
X98667724Y-38687541D01*
G36*
X96584780Y-39533559D02*
X96408824Y-39573464D01*
X96289887Y-39618095D01*
X96197302Y-39673978D01*
X96114621Y-39747560D01*
X96061483Y-39802388D01*
X96018004Y-39854029D01*
X95983109Y-39908192D01*
X95955724Y-39970587D01*
X95934776Y-40046923D01*
X95919191Y-40142910D01*
X95907896Y-40264258D01*
X95899815Y-40416675D01*
X95893877Y-40605870D01*
X95889006Y-40837555D01*
X95886851Y-40958677D01*
X95882593Y-41190634D01*
X95878470Y-41377251D01*
X95874124Y-41523985D01*
X95869197Y-41636295D01*
X95863332Y-41719637D01*
X95856169Y-41779469D01*
X95847351Y-41821249D01*
X95836520Y-41850434D01*
X95827265Y-41866727D01*
X95782229Y-41935400D01*
X96592982Y-41935400D01*
X96608900Y-41781898D01*
X96708298Y-41849683D01*
X96864454Y-41928454D01*
X97045308Y-41974378D01*
X97235105Y-41985337D01*
X97418091Y-41959211D01*
X97451566Y-41949636D01*
X97637971Y-41867312D01*
X97788880Y-41749785D01*
X97901748Y-41600521D01*
X97974025Y-41422986D01*
X98003165Y-41220643D01*
X98003612Y-41198800D01*
X98002948Y-41169745D01*
X97274693Y-41169745D01*
X97270437Y-41259084D01*
X97260310Y-41289702D01*
X97197621Y-41370289D01*
X97102677Y-41424681D01*
X96989073Y-41448552D01*
X96870404Y-41437578D01*
X96832804Y-41425708D01*
X96745617Y-41384168D01*
X96689976Y-41331566D01*
X96659506Y-41256480D01*
X96647834Y-41147489D01*
X96647000Y-41092772D01*
X96647000Y-40894000D01*
X96812916Y-40894000D01*
X96976653Y-40909024D01*
X97115272Y-40951933D01*
X97210724Y-41012755D01*
X97253331Y-41079498D01*
X97274693Y-41169745D01*
X98002948Y-41169745D01*
X98000997Y-41084473D01*
X97987349Y-40997174D01*
X97957850Y-40913511D01*
X97934518Y-40863415D01*
X97830177Y-40706836D01*
X97685796Y-40580958D01*
X97502031Y-40486078D01*
X97279538Y-40422491D01*
X97018974Y-40390495D01*
X96878606Y-40386441D01*
X96640312Y-40386000D01*
X96654204Y-40282428D01*
X96690138Y-40169160D01*
X96762056Y-40090707D01*
X96868676Y-40047363D01*
X97008713Y-40039423D01*
X97180884Y-40067180D01*
X97357891Y-40121344D01*
X97442349Y-40148613D01*
X97507342Y-40163573D01*
X97539205Y-40163108D01*
X97539538Y-40162789D01*
X97557124Y-40131072D01*
X97587220Y-40065112D01*
X97624498Y-39977945D01*
X97663627Y-39882604D01*
X97699278Y-39792125D01*
X97726120Y-39719540D01*
X97738825Y-39677885D01*
X97739200Y-39674502D01*
X97717410Y-39655817D01*
X97673953Y-39649400D01*
X97622369Y-39643237D01*
X97535550Y-39626624D01*
X97427297Y-39602375D01*
X97350103Y-39583373D01*
X97084304Y-39532560D01*
X96825624Y-39515918D01*
X96584780Y-39533559D01*
X96584780Y-39533559D01*
G37*
X96584780Y-39533559D02*
X96408824Y-39573464D01*
X96289887Y-39618095D01*
X96197302Y-39673978D01*
X96114621Y-39747560D01*
X96061483Y-39802388D01*
X96018004Y-39854029D01*
X95983109Y-39908192D01*
X95955724Y-39970587D01*
X95934776Y-40046923D01*
X95919191Y-40142910D01*
X95907896Y-40264258D01*
X95899815Y-40416675D01*
X95893877Y-40605870D01*
X95889006Y-40837555D01*
X95886851Y-40958677D01*
X95882593Y-41190634D01*
X95878470Y-41377251D01*
X95874124Y-41523985D01*
X95869197Y-41636295D01*
X95863332Y-41719637D01*
X95856169Y-41779469D01*
X95847351Y-41821249D01*
X95836520Y-41850434D01*
X95827265Y-41866727D01*
X95782229Y-41935400D01*
X96592982Y-41935400D01*
X96608900Y-41781898D01*
X96708298Y-41849683D01*
X96864454Y-41928454D01*
X97045308Y-41974378D01*
X97235105Y-41985337D01*
X97418091Y-41959211D01*
X97451566Y-41949636D01*
X97637971Y-41867312D01*
X97788880Y-41749785D01*
X97901748Y-41600521D01*
X97974025Y-41422986D01*
X98003165Y-41220643D01*
X98003612Y-41198800D01*
X98002948Y-41169745D01*
X97274693Y-41169745D01*
X97270437Y-41259084D01*
X97260310Y-41289702D01*
X97197621Y-41370289D01*
X97102677Y-41424681D01*
X96989073Y-41448552D01*
X96870404Y-41437578D01*
X96832804Y-41425708D01*
X96745617Y-41384168D01*
X96689976Y-41331566D01*
X96659506Y-41256480D01*
X96647834Y-41147489D01*
X96647000Y-41092772D01*
X96647000Y-40894000D01*
X96812916Y-40894000D01*
X96976653Y-40909024D01*
X97115272Y-40951933D01*
X97210724Y-41012755D01*
X97253331Y-41079498D01*
X97274693Y-41169745D01*
X98002948Y-41169745D01*
X98000997Y-41084473D01*
X97987349Y-40997174D01*
X97957850Y-40913511D01*
X97934518Y-40863415D01*
X97830177Y-40706836D01*
X97685796Y-40580958D01*
X97502031Y-40486078D01*
X97279538Y-40422491D01*
X97018974Y-40390495D01*
X96878606Y-40386441D01*
X96640312Y-40386000D01*
X96654204Y-40282428D01*
X96690138Y-40169160D01*
X96762056Y-40090707D01*
X96868676Y-40047363D01*
X97008713Y-40039423D01*
X97180884Y-40067180D01*
X97357891Y-40121344D01*
X97442349Y-40148613D01*
X97507342Y-40163573D01*
X97539205Y-40163108D01*
X97539538Y-40162789D01*
X97557124Y-40131072D01*
X97587220Y-40065112D01*
X97624498Y-39977945D01*
X97663627Y-39882604D01*
X97699278Y-39792125D01*
X97726120Y-39719540D01*
X97738825Y-39677885D01*
X97739200Y-39674502D01*
X97717410Y-39655817D01*
X97673953Y-39649400D01*
X97622369Y-39643237D01*
X97535550Y-39626624D01*
X97427297Y-39602375D01*
X97350103Y-39583373D01*
X97084304Y-39532560D01*
X96825624Y-39515918D01*
X96584780Y-39533559D01*
G36*
X93364936Y-40138350D02*
X93363394Y-40468252D01*
X93361834Y-40751181D01*
X93360139Y-40990961D01*
X93358192Y-41191419D01*
X93355877Y-41356381D01*
X93353078Y-41489672D01*
X93349676Y-41595118D01*
X93345556Y-41676545D01*
X93340601Y-41737780D01*
X93334693Y-41782647D01*
X93327717Y-41814974D01*
X93319555Y-41838585D01*
X93312598Y-41852850D01*
X93267496Y-41935400D01*
X94081600Y-41935400D01*
X94081600Y-41859200D01*
X94084959Y-41805652D01*
X94093049Y-41783004D01*
X94093173Y-41783000D01*
X94119291Y-41795984D01*
X94171674Y-41828737D01*
X94198497Y-41846621D01*
X94330797Y-41913847D01*
X94490463Y-41960789D01*
X94659378Y-41984538D01*
X94819423Y-41982184D01*
X94919800Y-41962447D01*
X95103862Y-41881139D01*
X95268990Y-41759400D01*
X95403883Y-41606710D01*
X95465245Y-41504894D01*
X95532669Y-41347229D01*
X95576545Y-41181151D01*
X95599686Y-40992603D01*
X95605159Y-40806113D01*
X95604398Y-40792400D01*
X94804264Y-40792400D01*
X94799766Y-40968095D01*
X94786151Y-41101614D01*
X94760923Y-41201149D01*
X94721588Y-41274891D01*
X94665649Y-41331031D01*
X94633384Y-41353370D01*
X94526979Y-41391364D01*
X94401256Y-41388376D01*
X94266197Y-41344928D01*
X94241901Y-41332973D01*
X94145100Y-41282757D01*
X94138258Y-40733687D01*
X94131415Y-40184616D01*
X94198509Y-40140654D01*
X94262040Y-40113907D01*
X94351732Y-40093244D01*
X94409767Y-40086265D01*
X94498145Y-40083170D01*
X94557109Y-40093295D01*
X94607415Y-40121883D01*
X94633473Y-40142768D01*
X94700817Y-40216367D01*
X94749736Y-40311937D01*
X94782059Y-40436434D01*
X94799613Y-40596811D01*
X94804264Y-40792400D01*
X95604398Y-40792400D01*
X95588725Y-40510165D01*
X95540858Y-40250334D01*
X95462229Y-40027709D01*
X95353511Y-39843380D01*
X95215375Y-39698437D01*
X95048494Y-39593968D01*
X94853540Y-39531064D01*
X94814230Y-39524035D01*
X94698697Y-39515775D01*
X94571337Y-39522629D01*
X94444739Y-39542052D01*
X94331488Y-39571499D01*
X94244172Y-39608425D01*
X94196138Y-39649015D01*
X94175273Y-39673482D01*
X94159230Y-39668392D01*
X94147475Y-39629857D01*
X94139476Y-39553988D01*
X94134698Y-39436901D01*
X94132607Y-39274706D01*
X94132400Y-39184870D01*
X94132923Y-39010773D01*
X94134931Y-38879417D01*
X94139089Y-38782750D01*
X94146057Y-38712719D01*
X94156499Y-38661273D01*
X94171078Y-38620358D01*
X94180462Y-38600670D01*
X94228524Y-38506400D01*
X93372172Y-38506400D01*
X93364936Y-40138350D01*
X93364936Y-40138350D01*
G37*
X93364936Y-40138350D02*
X93363394Y-40468252D01*
X93361834Y-40751181D01*
X93360139Y-40990961D01*
X93358192Y-41191419D01*
X93355877Y-41356381D01*
X93353078Y-41489672D01*
X93349676Y-41595118D01*
X93345556Y-41676545D01*
X93340601Y-41737780D01*
X93334693Y-41782647D01*
X93327717Y-41814974D01*
X93319555Y-41838585D01*
X93312598Y-41852850D01*
X93267496Y-41935400D01*
X94081600Y-41935400D01*
X94081600Y-41859200D01*
X94084959Y-41805652D01*
X94093049Y-41783004D01*
X94093173Y-41783000D01*
X94119291Y-41795984D01*
X94171674Y-41828737D01*
X94198497Y-41846621D01*
X94330797Y-41913847D01*
X94490463Y-41960789D01*
X94659378Y-41984538D01*
X94819423Y-41982184D01*
X94919800Y-41962447D01*
X95103862Y-41881139D01*
X95268990Y-41759400D01*
X95403883Y-41606710D01*
X95465245Y-41504894D01*
X95532669Y-41347229D01*
X95576545Y-41181151D01*
X95599686Y-40992603D01*
X95605159Y-40806113D01*
X95604398Y-40792400D01*
X94804264Y-40792400D01*
X94799766Y-40968095D01*
X94786151Y-41101614D01*
X94760923Y-41201149D01*
X94721588Y-41274891D01*
X94665649Y-41331031D01*
X94633384Y-41353370D01*
X94526979Y-41391364D01*
X94401256Y-41388376D01*
X94266197Y-41344928D01*
X94241901Y-41332973D01*
X94145100Y-41282757D01*
X94138258Y-40733687D01*
X94131415Y-40184616D01*
X94198509Y-40140654D01*
X94262040Y-40113907D01*
X94351732Y-40093244D01*
X94409767Y-40086265D01*
X94498145Y-40083170D01*
X94557109Y-40093295D01*
X94607415Y-40121883D01*
X94633473Y-40142768D01*
X94700817Y-40216367D01*
X94749736Y-40311937D01*
X94782059Y-40436434D01*
X94799613Y-40596811D01*
X94804264Y-40792400D01*
X95604398Y-40792400D01*
X95588725Y-40510165D01*
X95540858Y-40250334D01*
X95462229Y-40027709D01*
X95353511Y-39843380D01*
X95215375Y-39698437D01*
X95048494Y-39593968D01*
X94853540Y-39531064D01*
X94814230Y-39524035D01*
X94698697Y-39515775D01*
X94571337Y-39522629D01*
X94444739Y-39542052D01*
X94331488Y-39571499D01*
X94244172Y-39608425D01*
X94196138Y-39649015D01*
X94175273Y-39673482D01*
X94159230Y-39668392D01*
X94147475Y-39629857D01*
X94139476Y-39553988D01*
X94134698Y-39436901D01*
X94132607Y-39274706D01*
X94132400Y-39184870D01*
X94132923Y-39010773D01*
X94134931Y-38879417D01*
X94139089Y-38782750D01*
X94146057Y-38712719D01*
X94156499Y-38661273D01*
X94171078Y-38620358D01*
X94180462Y-38600670D01*
X94228524Y-38506400D01*
X93372172Y-38506400D01*
X93364936Y-40138350D01*
G04 #@! TO.C,REF\002A\002A\002A*
G36*
X101855506Y-61098758D02*
X101822981Y-61111336D01*
X101773407Y-61136312D01*
X101702226Y-61175476D01*
X101696684Y-61178588D01*
X101631126Y-61216076D01*
X101575802Y-61248919D01*
X101536145Y-61273805D01*
X101517588Y-61287420D01*
X101517069Y-61288087D01*
X101521552Y-61306990D01*
X101542114Y-61349205D01*
X101577417Y-61412432D01*
X101626120Y-61494372D01*
X101686882Y-61592722D01*
X101758364Y-61705185D01*
X101776155Y-61732765D01*
X101822507Y-61809299D01*
X101856258Y-61875156D01*
X101874447Y-61924382D01*
X101876314Y-61934107D01*
X101875485Y-61976912D01*
X101866206Y-62044809D01*
X101849632Y-62133443D01*
X101826920Y-62238459D01*
X101799227Y-62355502D01*
X101767710Y-62480216D01*
X101733525Y-62608245D01*
X101697829Y-62735234D01*
X101661779Y-62856828D01*
X101626532Y-62968672D01*
X101593244Y-63066410D01*
X101563072Y-63145687D01*
X101542039Y-63192722D01*
X101517263Y-63242825D01*
X101493870Y-63290768D01*
X101492603Y-63293393D01*
X101453901Y-63341820D01*
X101397416Y-63374428D01*
X101331661Y-63390054D01*
X101265149Y-63387537D01*
X101206395Y-63365714D01*
X101173342Y-63336982D01*
X101125741Y-63258183D01*
X101090861Y-63159978D01*
X101071723Y-63052379D01*
X101069012Y-62991380D01*
X101079930Y-62877535D01*
X101111976Y-62783260D01*
X101166874Y-62703979D01*
X101183993Y-62686333D01*
X101234939Y-62636835D01*
X101238437Y-62286962D01*
X101241936Y-61937089D01*
X101152782Y-61802131D01*
X101110946Y-61741045D01*
X101070655Y-61686093D01*
X101037657Y-61644936D01*
X101023474Y-61629792D01*
X100983319Y-61592410D01*
X100928935Y-61621698D01*
X100894561Y-61642684D01*
X100875754Y-61658978D01*
X100874551Y-61661907D01*
X100861697Y-61674328D01*
X100839704Y-61683577D01*
X100818450Y-61691913D01*
X100785906Y-61707749D01*
X100739278Y-61732633D01*
X100675771Y-61768109D01*
X100592592Y-61815723D01*
X100486947Y-61877022D01*
X100429538Y-61910532D01*
X100362006Y-61950671D01*
X100317715Y-61979259D01*
X100292745Y-61999639D01*
X100283177Y-62015153D01*
X100285092Y-62029146D01*
X100286689Y-62032396D01*
X100302224Y-62052866D01*
X100335464Y-62091265D01*
X100382538Y-62143296D01*
X100439572Y-62204666D01*
X100488900Y-62256690D01*
X100602570Y-62380167D01*
X100691495Y-62487191D01*
X100756466Y-62578840D01*
X100798279Y-62656188D01*
X100812383Y-62695466D01*
X100818208Y-62729849D01*
X100824225Y-62788499D01*
X100829904Y-62864717D01*
X100834716Y-62951802D01*
X100836981Y-63006868D01*
X100840141Y-63102064D01*
X100841531Y-63171662D01*
X100840742Y-63221009D01*
X100837365Y-63255454D01*
X100830992Y-63280343D01*
X100821213Y-63301025D01*
X100813533Y-63313653D01*
X100769179Y-63362326D01*
X100712026Y-63396245D01*
X100651892Y-63411038D01*
X100606827Y-63405686D01*
X100566024Y-63382530D01*
X100514876Y-63341062D01*
X100460558Y-63288512D01*
X100410243Y-63232116D01*
X100371106Y-63179105D01*
X100356695Y-63153489D01*
X100335109Y-63118414D01*
X100295847Y-63064989D01*
X100242498Y-62997389D01*
X100178648Y-62919790D01*
X100107885Y-62836368D01*
X100033796Y-62751298D01*
X99959968Y-62668755D01*
X99889989Y-62592916D01*
X99827445Y-62527956D01*
X99778340Y-62480269D01*
X99723821Y-62432632D01*
X99677958Y-62397508D01*
X99645789Y-62378549D01*
X99635111Y-62376464D01*
X99618747Y-62384874D01*
X99577929Y-62407446D01*
X99515014Y-62442824D01*
X99432356Y-62489654D01*
X99332311Y-62546581D01*
X99217234Y-62612249D01*
X99089481Y-62685303D01*
X98951406Y-62764388D01*
X98805366Y-62848148D01*
X98653716Y-62935229D01*
X98498810Y-63024276D01*
X98343005Y-63113932D01*
X98188656Y-63202843D01*
X98038118Y-63289654D01*
X97893746Y-63373009D01*
X97757896Y-63451554D01*
X97632923Y-63523933D01*
X97521183Y-63588790D01*
X97425030Y-63644771D01*
X97346821Y-63690520D01*
X97288911Y-63724683D01*
X97253654Y-63745904D01*
X97243435Y-63752563D01*
X97257198Y-63753880D01*
X97300496Y-63755159D01*
X97371886Y-63756396D01*
X97469927Y-63757583D01*
X97593178Y-63758715D01*
X97740197Y-63759786D01*
X97909543Y-63760789D01*
X98099774Y-63761719D01*
X98309449Y-63762568D01*
X98537127Y-63763332D01*
X98781365Y-63764003D01*
X99040723Y-63764576D01*
X99313759Y-63765044D01*
X99599032Y-63765402D01*
X99895100Y-63765642D01*
X100200521Y-63765759D01*
X100328676Y-63765771D01*
X103428630Y-63765771D01*
X103207547Y-63382447D01*
X103160744Y-63301280D01*
X103100498Y-63196766D01*
X103028822Y-63072401D01*
X102947731Y-62931682D01*
X102859238Y-62778103D01*
X102765360Y-62615162D01*
X102668109Y-62446354D01*
X102569500Y-62275175D01*
X102471547Y-62105121D01*
X102446775Y-62062112D01*
X102356448Y-61905457D01*
X102270311Y-61756403D01*
X102189658Y-61617168D01*
X102115784Y-61489971D01*
X102049983Y-61377032D01*
X101993550Y-61280568D01*
X101947779Y-61202800D01*
X101913965Y-61145946D01*
X101893402Y-61112225D01*
X101887647Y-61103640D01*
X101875542Y-61096789D01*
X101855506Y-61098758D01*
X101855506Y-61098758D01*
G37*
X101855506Y-61098758D02*
X101822981Y-61111336D01*
X101773407Y-61136312D01*
X101702226Y-61175476D01*
X101696684Y-61178588D01*
X101631126Y-61216076D01*
X101575802Y-61248919D01*
X101536145Y-61273805D01*
X101517588Y-61287420D01*
X101517069Y-61288087D01*
X101521552Y-61306990D01*
X101542114Y-61349205D01*
X101577417Y-61412432D01*
X101626120Y-61494372D01*
X101686882Y-61592722D01*
X101758364Y-61705185D01*
X101776155Y-61732765D01*
X101822507Y-61809299D01*
X101856258Y-61875156D01*
X101874447Y-61924382D01*
X101876314Y-61934107D01*
X101875485Y-61976912D01*
X101866206Y-62044809D01*
X101849632Y-62133443D01*
X101826920Y-62238459D01*
X101799227Y-62355502D01*
X101767710Y-62480216D01*
X101733525Y-62608245D01*
X101697829Y-62735234D01*
X101661779Y-62856828D01*
X101626532Y-62968672D01*
X101593244Y-63066410D01*
X101563072Y-63145687D01*
X101542039Y-63192722D01*
X101517263Y-63242825D01*
X101493870Y-63290768D01*
X101492603Y-63293393D01*
X101453901Y-63341820D01*
X101397416Y-63374428D01*
X101331661Y-63390054D01*
X101265149Y-63387537D01*
X101206395Y-63365714D01*
X101173342Y-63336982D01*
X101125741Y-63258183D01*
X101090861Y-63159978D01*
X101071723Y-63052379D01*
X101069012Y-62991380D01*
X101079930Y-62877535D01*
X101111976Y-62783260D01*
X101166874Y-62703979D01*
X101183993Y-62686333D01*
X101234939Y-62636835D01*
X101238437Y-62286962D01*
X101241936Y-61937089D01*
X101152782Y-61802131D01*
X101110946Y-61741045D01*
X101070655Y-61686093D01*
X101037657Y-61644936D01*
X101023474Y-61629792D01*
X100983319Y-61592410D01*
X100928935Y-61621698D01*
X100894561Y-61642684D01*
X100875754Y-61658978D01*
X100874551Y-61661907D01*
X100861697Y-61674328D01*
X100839704Y-61683577D01*
X100818450Y-61691913D01*
X100785906Y-61707749D01*
X100739278Y-61732633D01*
X100675771Y-61768109D01*
X100592592Y-61815723D01*
X100486947Y-61877022D01*
X100429538Y-61910532D01*
X100362006Y-61950671D01*
X100317715Y-61979259D01*
X100292745Y-61999639D01*
X100283177Y-62015153D01*
X100285092Y-62029146D01*
X100286689Y-62032396D01*
X100302224Y-62052866D01*
X100335464Y-62091265D01*
X100382538Y-62143296D01*
X100439572Y-62204666D01*
X100488900Y-62256690D01*
X100602570Y-62380167D01*
X100691495Y-62487191D01*
X100756466Y-62578840D01*
X100798279Y-62656188D01*
X100812383Y-62695466D01*
X100818208Y-62729849D01*
X100824225Y-62788499D01*
X100829904Y-62864717D01*
X100834716Y-62951802D01*
X100836981Y-63006868D01*
X100840141Y-63102064D01*
X100841531Y-63171662D01*
X100840742Y-63221009D01*
X100837365Y-63255454D01*
X100830992Y-63280343D01*
X100821213Y-63301025D01*
X100813533Y-63313653D01*
X100769179Y-63362326D01*
X100712026Y-63396245D01*
X100651892Y-63411038D01*
X100606827Y-63405686D01*
X100566024Y-63382530D01*
X100514876Y-63341062D01*
X100460558Y-63288512D01*
X100410243Y-63232116D01*
X100371106Y-63179105D01*
X100356695Y-63153489D01*
X100335109Y-63118414D01*
X100295847Y-63064989D01*
X100242498Y-62997389D01*
X100178648Y-62919790D01*
X100107885Y-62836368D01*
X100033796Y-62751298D01*
X99959968Y-62668755D01*
X99889989Y-62592916D01*
X99827445Y-62527956D01*
X99778340Y-62480269D01*
X99723821Y-62432632D01*
X99677958Y-62397508D01*
X99645789Y-62378549D01*
X99635111Y-62376464D01*
X99618747Y-62384874D01*
X99577929Y-62407446D01*
X99515014Y-62442824D01*
X99432356Y-62489654D01*
X99332311Y-62546581D01*
X99217234Y-62612249D01*
X99089481Y-62685303D01*
X98951406Y-62764388D01*
X98805366Y-62848148D01*
X98653716Y-62935229D01*
X98498810Y-63024276D01*
X98343005Y-63113932D01*
X98188656Y-63202843D01*
X98038118Y-63289654D01*
X97893746Y-63373009D01*
X97757896Y-63451554D01*
X97632923Y-63523933D01*
X97521183Y-63588790D01*
X97425030Y-63644771D01*
X97346821Y-63690520D01*
X97288911Y-63724683D01*
X97253654Y-63745904D01*
X97243435Y-63752563D01*
X97257198Y-63753880D01*
X97300496Y-63755159D01*
X97371886Y-63756396D01*
X97469927Y-63757583D01*
X97593178Y-63758715D01*
X97740197Y-63759786D01*
X97909543Y-63760789D01*
X98099774Y-63761719D01*
X98309449Y-63762568D01*
X98537127Y-63763332D01*
X98781365Y-63764003D01*
X99040723Y-63764576D01*
X99313759Y-63765044D01*
X99599032Y-63765402D01*
X99895100Y-63765642D01*
X100200521Y-63765759D01*
X100328676Y-63765771D01*
X103428630Y-63765771D01*
X103207547Y-63382447D01*
X103160744Y-63301280D01*
X103100498Y-63196766D01*
X103028822Y-63072401D01*
X102947731Y-62931682D01*
X102859238Y-62778103D01*
X102765360Y-62615162D01*
X102668109Y-62446354D01*
X102569500Y-62275175D01*
X102471547Y-62105121D01*
X102446775Y-62062112D01*
X102356448Y-61905457D01*
X102270311Y-61756403D01*
X102189658Y-61617168D01*
X102115784Y-61489971D01*
X102049983Y-61377032D01*
X101993550Y-61280568D01*
X101947779Y-61202800D01*
X101913965Y-61145946D01*
X101893402Y-61112225D01*
X101887647Y-61103640D01*
X101875542Y-61096789D01*
X101855506Y-61098758D01*
G36*
X98190072Y-61042219D02*
X98178692Y-61061293D01*
X98153112Y-61105021D01*
X98114598Y-61171219D01*
X98064414Y-61257702D01*
X98003825Y-61362285D01*
X97934097Y-61482783D01*
X97856493Y-61617012D01*
X97772280Y-61762787D01*
X97682721Y-61917923D01*
X97590602Y-62077600D01*
X97496524Y-62240717D01*
X97406198Y-62397309D01*
X97320935Y-62545106D01*
X97242043Y-62681840D01*
X97170831Y-62805242D01*
X97108609Y-62913044D01*
X97056687Y-63002977D01*
X97016372Y-63072773D01*
X96988976Y-63120164D01*
X96976093Y-63142386D01*
X96955093Y-63179930D01*
X96943675Y-63203431D01*
X96943049Y-63207520D01*
X96956964Y-63199842D01*
X96995659Y-63177803D01*
X97057113Y-63142571D01*
X97139302Y-63095311D01*
X97240204Y-63037189D01*
X97357795Y-62969371D01*
X97490054Y-62893024D01*
X97634958Y-62809314D01*
X97790483Y-62719406D01*
X97954608Y-62624467D01*
X98017051Y-62588332D01*
X98184113Y-62491683D01*
X98343526Y-62399538D01*
X98493245Y-62313075D01*
X98631224Y-62233471D01*
X98755415Y-62161905D01*
X98863773Y-62099555D01*
X98954252Y-62047598D01*
X99024804Y-62007213D01*
X99073385Y-61979578D01*
X99097946Y-61965872D01*
X99100515Y-61964574D01*
X99093031Y-61952820D01*
X99066986Y-61921395D01*
X99025041Y-61873194D01*
X98969854Y-61811110D01*
X98904083Y-61738039D01*
X98830388Y-61656876D01*
X98751427Y-61570516D01*
X98669860Y-61481853D01*
X98588346Y-61393782D01*
X98509543Y-61309199D01*
X98436110Y-61230997D01*
X98370707Y-61162072D01*
X98315992Y-61105319D01*
X98274623Y-61063632D01*
X98260436Y-61049963D01*
X98213420Y-61005801D01*
X98190072Y-61042219D01*
X98190072Y-61042219D01*
G37*
X98190072Y-61042219D02*
X98178692Y-61061293D01*
X98153112Y-61105021D01*
X98114598Y-61171219D01*
X98064414Y-61257702D01*
X98003825Y-61362285D01*
X97934097Y-61482783D01*
X97856493Y-61617012D01*
X97772280Y-61762787D01*
X97682721Y-61917923D01*
X97590602Y-62077600D01*
X97496524Y-62240717D01*
X97406198Y-62397309D01*
X97320935Y-62545106D01*
X97242043Y-62681840D01*
X97170831Y-62805242D01*
X97108609Y-62913044D01*
X97056687Y-63002977D01*
X97016372Y-63072773D01*
X96988976Y-63120164D01*
X96976093Y-63142386D01*
X96955093Y-63179930D01*
X96943675Y-63203431D01*
X96943049Y-63207520D01*
X96956964Y-63199842D01*
X96995659Y-63177803D01*
X97057113Y-63142571D01*
X97139302Y-63095311D01*
X97240204Y-63037189D01*
X97357795Y-62969371D01*
X97490054Y-62893024D01*
X97634958Y-62809314D01*
X97790483Y-62719406D01*
X97954608Y-62624467D01*
X98017051Y-62588332D01*
X98184113Y-62491683D01*
X98343526Y-62399538D01*
X98493245Y-62313075D01*
X98631224Y-62233471D01*
X98755415Y-62161905D01*
X98863773Y-62099555D01*
X98954252Y-62047598D01*
X99024804Y-62007213D01*
X99073385Y-61979578D01*
X99097946Y-61965872D01*
X99100515Y-61964574D01*
X99093031Y-61952820D01*
X99066986Y-61921395D01*
X99025041Y-61873194D01*
X98969854Y-61811110D01*
X98904083Y-61738039D01*
X98830388Y-61656876D01*
X98751427Y-61570516D01*
X98669860Y-61481853D01*
X98588346Y-61393782D01*
X98509543Y-61309199D01*
X98436110Y-61230997D01*
X98370707Y-61162072D01*
X98315992Y-61105319D01*
X98274623Y-61063632D01*
X98260436Y-61049963D01*
X98213420Y-61005801D01*
X98190072Y-61042219D01*
G36*
X100013557Y-57893435D02*
X99990535Y-57930845D01*
X99955066Y-57990114D01*
X99908604Y-58068718D01*
X99852604Y-58164138D01*
X99788519Y-58273850D01*
X99717804Y-58395334D01*
X99641913Y-58526068D01*
X99562301Y-58663530D01*
X99480422Y-58805198D01*
X99397730Y-58948551D01*
X99315679Y-59091067D01*
X99235724Y-59230224D01*
X99159319Y-59363501D01*
X99087918Y-59488376D01*
X99022976Y-59602327D01*
X98965947Y-59702833D01*
X98918285Y-59787372D01*
X98881445Y-59853422D01*
X98856880Y-59898462D01*
X98846046Y-59919970D01*
X98845649Y-59921314D01*
X98859099Y-59939565D01*
X98896486Y-59967482D01*
X98953365Y-60002325D01*
X99025288Y-60041354D01*
X99100585Y-60078443D01*
X99203040Y-60123417D01*
X99310783Y-60163826D01*
X99427527Y-60200569D01*
X99556982Y-60234542D01*
X99702860Y-60266644D01*
X99868874Y-60297773D01*
X100058734Y-60328827D01*
X100255131Y-60357745D01*
X100425766Y-60383400D01*
X100569055Y-60408798D01*
X100688592Y-60435202D01*
X100787970Y-60463873D01*
X100870782Y-60496073D01*
X100940622Y-60533065D01*
X101001082Y-60576112D01*
X101055755Y-60626475D01*
X101073386Y-60645183D01*
X101111600Y-60688739D01*
X101139868Y-60724282D01*
X101152982Y-60745183D01*
X101153332Y-60746897D01*
X101157920Y-60757406D01*
X101173842Y-60757524D01*
X101204334Y-60745854D01*
X101252632Y-60720996D01*
X101321973Y-60681552D01*
X101370161Y-60653187D01*
X101442017Y-60608847D01*
X101497858Y-60570879D01*
X101533933Y-60542016D01*
X101546487Y-60524988D01*
X101546479Y-60524864D01*
X101538694Y-60508637D01*
X101516708Y-60468000D01*
X101481797Y-60405167D01*
X101435237Y-60322352D01*
X101378305Y-60221772D01*
X101312277Y-60105640D01*
X101238428Y-59976171D01*
X101158036Y-59835580D01*
X101072376Y-59686082D01*
X100982724Y-59529892D01*
X100890357Y-59369224D01*
X100796551Y-59206293D01*
X100702582Y-59043313D01*
X100609726Y-58882500D01*
X100519260Y-58726068D01*
X100432459Y-58576233D01*
X100350600Y-58435208D01*
X100274959Y-58305209D01*
X100206813Y-58188449D01*
X100147437Y-58087145D01*
X100098107Y-58003511D01*
X100060100Y-57939762D01*
X100034693Y-57898111D01*
X100023160Y-57880775D01*
X100022677Y-57880405D01*
X100013557Y-57893435D01*
X100013557Y-57893435D01*
G37*
X100013557Y-57893435D02*
X99990535Y-57930845D01*
X99955066Y-57990114D01*
X99908604Y-58068718D01*
X99852604Y-58164138D01*
X99788519Y-58273850D01*
X99717804Y-58395334D01*
X99641913Y-58526068D01*
X99562301Y-58663530D01*
X99480422Y-58805198D01*
X99397730Y-58948551D01*
X99315679Y-59091067D01*
X99235724Y-59230224D01*
X99159319Y-59363501D01*
X99087918Y-59488376D01*
X99022976Y-59602327D01*
X98965947Y-59702833D01*
X98918285Y-59787372D01*
X98881445Y-59853422D01*
X98856880Y-59898462D01*
X98846046Y-59919970D01*
X98845649Y-59921314D01*
X98859099Y-59939565D01*
X98896486Y-59967482D01*
X98953365Y-60002325D01*
X99025288Y-60041354D01*
X99100585Y-60078443D01*
X99203040Y-60123417D01*
X99310783Y-60163826D01*
X99427527Y-60200569D01*
X99556982Y-60234542D01*
X99702860Y-60266644D01*
X99868874Y-60297773D01*
X100058734Y-60328827D01*
X100255131Y-60357745D01*
X100425766Y-60383400D01*
X100569055Y-60408798D01*
X100688592Y-60435202D01*
X100787970Y-60463873D01*
X100870782Y-60496073D01*
X100940622Y-60533065D01*
X101001082Y-60576112D01*
X101055755Y-60626475D01*
X101073386Y-60645183D01*
X101111600Y-60688739D01*
X101139868Y-60724282D01*
X101152982Y-60745183D01*
X101153332Y-60746897D01*
X101157920Y-60757406D01*
X101173842Y-60757524D01*
X101204334Y-60745854D01*
X101252632Y-60720996D01*
X101321973Y-60681552D01*
X101370161Y-60653187D01*
X101442017Y-60608847D01*
X101497858Y-60570879D01*
X101533933Y-60542016D01*
X101546487Y-60524988D01*
X101546479Y-60524864D01*
X101538694Y-60508637D01*
X101516708Y-60468000D01*
X101481797Y-60405167D01*
X101435237Y-60322352D01*
X101378305Y-60221772D01*
X101312277Y-60105640D01*
X101238428Y-59976171D01*
X101158036Y-59835580D01*
X101072376Y-59686082D01*
X100982724Y-59529892D01*
X100890357Y-59369224D01*
X100796551Y-59206293D01*
X100702582Y-59043313D01*
X100609726Y-58882500D01*
X100519260Y-58726068D01*
X100432459Y-58576233D01*
X100350600Y-58435208D01*
X100274959Y-58305209D01*
X100206813Y-58188449D01*
X100147437Y-58087145D01*
X100098107Y-58003511D01*
X100060100Y-57939762D01*
X100034693Y-57898111D01*
X100023160Y-57880775D01*
X100022677Y-57880405D01*
X100013557Y-57893435D01*
D12*
G04 #@! TO.C,REF\002A\002A*
X59588400Y-29616400D02*
X59080400Y-29616400D01*
X59842400Y-29311600D02*
X58826400Y-29311600D01*
X60198000Y-29057600D02*
X58470800Y-29057600D01*
X59334400Y-28397200D02*
X59334400Y-29006800D01*
D16*
G04 #@! TO.C,G\002A\002A\002A*
G36*
X65064306Y-54563756D02*
X65073959Y-54572863D01*
X65096728Y-54593594D01*
X65131640Y-54625084D01*
X65177722Y-54666470D01*
X65234002Y-54716885D01*
X65299508Y-54775466D01*
X65373266Y-54841348D01*
X65454304Y-54913665D01*
X65541650Y-54991553D01*
X65634330Y-55074147D01*
X65731372Y-55160583D01*
X65831804Y-55249995D01*
X65934653Y-55341518D01*
X66038946Y-55434289D01*
X66143710Y-55527442D01*
X66247974Y-55620112D01*
X66350764Y-55711434D01*
X66451108Y-55800544D01*
X66548032Y-55886578D01*
X66640566Y-55968669D01*
X66727735Y-56045953D01*
X66808567Y-56117566D01*
X66882090Y-56182643D01*
X66947331Y-56240319D01*
X67003317Y-56289728D01*
X67049076Y-56330007D01*
X67083636Y-56360291D01*
X67106022Y-56379714D01*
X67115263Y-56387412D01*
X67115447Y-56387507D01*
X67123108Y-56381252D01*
X67144255Y-56363082D01*
X67178073Y-56333712D01*
X67223750Y-56293853D01*
X67280474Y-56244221D01*
X67347431Y-56185530D01*
X67423808Y-56118493D01*
X67508792Y-56043824D01*
X67601570Y-55962236D01*
X67701329Y-55874445D01*
X67807257Y-55781163D01*
X67918540Y-55683105D01*
X68034365Y-55580984D01*
X68126010Y-55500141D01*
X68244936Y-55395194D01*
X68360016Y-55293607D01*
X68470432Y-55196106D01*
X68575361Y-55103417D01*
X68673984Y-55016265D01*
X68765481Y-54935377D01*
X68849032Y-54861478D01*
X68923815Y-54795293D01*
X68989012Y-54737548D01*
X69043801Y-54688970D01*
X69087362Y-54650283D01*
X69118875Y-54622214D01*
X69137520Y-54605487D01*
X69142573Y-54600815D01*
X69144845Y-54598469D01*
X69146821Y-54596397D01*
X69147661Y-54595037D01*
X69146523Y-54594829D01*
X69142566Y-54596212D01*
X69134950Y-54599627D01*
X69122833Y-54605512D01*
X69105373Y-54614308D01*
X69081731Y-54626452D01*
X69051064Y-54642386D01*
X69012532Y-54662548D01*
X68965294Y-54687377D01*
X68908508Y-54717314D01*
X68841334Y-54752798D01*
X68762931Y-54794268D01*
X68672457Y-54842164D01*
X68569071Y-54896925D01*
X68451932Y-54958990D01*
X68320200Y-55028800D01*
X68173032Y-55106793D01*
X68091384Y-55150063D01*
X67966064Y-55216426D01*
X67845330Y-55280263D01*
X67730241Y-55341020D01*
X67621855Y-55398142D01*
X67521230Y-55451074D01*
X67429425Y-55499262D01*
X67347499Y-55542152D01*
X67276510Y-55579188D01*
X67217516Y-55609816D01*
X67171576Y-55633483D01*
X67139748Y-55649632D01*
X67123091Y-55657710D01*
X67120839Y-55658564D01*
X67111505Y-55654179D01*
X67086683Y-55641437D01*
X67047530Y-55620957D01*
X66995202Y-55593360D01*
X66930856Y-55559264D01*
X66855647Y-55519289D01*
X66770733Y-55474054D01*
X66677270Y-55424179D01*
X66576413Y-55370284D01*
X66469320Y-55312987D01*
X66357147Y-55252909D01*
X66241050Y-55190668D01*
X66122185Y-55126884D01*
X66001709Y-55062177D01*
X65880778Y-54997167D01*
X65760548Y-54932471D01*
X65642177Y-54868711D01*
X65526819Y-54806506D01*
X65415632Y-54746474D01*
X65309772Y-54689236D01*
X65210396Y-54635411D01*
X65167368Y-54612071D01*
X65126933Y-54590620D01*
X65094495Y-54574372D01*
X65072540Y-54564493D01*
X65063554Y-54562148D01*
X65064306Y-54563756D01*
X65064306Y-54563756D01*
G37*
X65064306Y-54563756D02*
X65073959Y-54572863D01*
X65096728Y-54593594D01*
X65131640Y-54625084D01*
X65177722Y-54666470D01*
X65234002Y-54716885D01*
X65299508Y-54775466D01*
X65373266Y-54841348D01*
X65454304Y-54913665D01*
X65541650Y-54991553D01*
X65634330Y-55074147D01*
X65731372Y-55160583D01*
X65831804Y-55249995D01*
X65934653Y-55341518D01*
X66038946Y-55434289D01*
X66143710Y-55527442D01*
X66247974Y-55620112D01*
X66350764Y-55711434D01*
X66451108Y-55800544D01*
X66548032Y-55886578D01*
X66640566Y-55968669D01*
X66727735Y-56045953D01*
X66808567Y-56117566D01*
X66882090Y-56182643D01*
X66947331Y-56240319D01*
X67003317Y-56289728D01*
X67049076Y-56330007D01*
X67083636Y-56360291D01*
X67106022Y-56379714D01*
X67115263Y-56387412D01*
X67115447Y-56387507D01*
X67123108Y-56381252D01*
X67144255Y-56363082D01*
X67178073Y-56333712D01*
X67223750Y-56293853D01*
X67280474Y-56244221D01*
X67347431Y-56185530D01*
X67423808Y-56118493D01*
X67508792Y-56043824D01*
X67601570Y-55962236D01*
X67701329Y-55874445D01*
X67807257Y-55781163D01*
X67918540Y-55683105D01*
X68034365Y-55580984D01*
X68126010Y-55500141D01*
X68244936Y-55395194D01*
X68360016Y-55293607D01*
X68470432Y-55196106D01*
X68575361Y-55103417D01*
X68673984Y-55016265D01*
X68765481Y-54935377D01*
X68849032Y-54861478D01*
X68923815Y-54795293D01*
X68989012Y-54737548D01*
X69043801Y-54688970D01*
X69087362Y-54650283D01*
X69118875Y-54622214D01*
X69137520Y-54605487D01*
X69142573Y-54600815D01*
X69144845Y-54598469D01*
X69146821Y-54596397D01*
X69147661Y-54595037D01*
X69146523Y-54594829D01*
X69142566Y-54596212D01*
X69134950Y-54599627D01*
X69122833Y-54605512D01*
X69105373Y-54614308D01*
X69081731Y-54626452D01*
X69051064Y-54642386D01*
X69012532Y-54662548D01*
X68965294Y-54687377D01*
X68908508Y-54717314D01*
X68841334Y-54752798D01*
X68762931Y-54794268D01*
X68672457Y-54842164D01*
X68569071Y-54896925D01*
X68451932Y-54958990D01*
X68320200Y-55028800D01*
X68173032Y-55106793D01*
X68091384Y-55150063D01*
X67966064Y-55216426D01*
X67845330Y-55280263D01*
X67730241Y-55341020D01*
X67621855Y-55398142D01*
X67521230Y-55451074D01*
X67429425Y-55499262D01*
X67347499Y-55542152D01*
X67276510Y-55579188D01*
X67217516Y-55609816D01*
X67171576Y-55633483D01*
X67139748Y-55649632D01*
X67123091Y-55657710D01*
X67120839Y-55658564D01*
X67111505Y-55654179D01*
X67086683Y-55641437D01*
X67047530Y-55620957D01*
X66995202Y-55593360D01*
X66930856Y-55559264D01*
X66855647Y-55519289D01*
X66770733Y-55474054D01*
X66677270Y-55424179D01*
X66576413Y-55370284D01*
X66469320Y-55312987D01*
X66357147Y-55252909D01*
X66241050Y-55190668D01*
X66122185Y-55126884D01*
X66001709Y-55062177D01*
X65880778Y-54997167D01*
X65760548Y-54932471D01*
X65642177Y-54868711D01*
X65526819Y-54806506D01*
X65415632Y-54746474D01*
X65309772Y-54689236D01*
X65210396Y-54635411D01*
X65167368Y-54612071D01*
X65126933Y-54590620D01*
X65094495Y-54574372D01*
X65072540Y-54564493D01*
X65063554Y-54562148D01*
X65064306Y-54563756D01*
G36*
X64394743Y-55890743D02*
X64200601Y-55890870D01*
X64011282Y-55891060D01*
X63827650Y-55891310D01*
X63650571Y-55891616D01*
X63480908Y-55891974D01*
X63319526Y-55892382D01*
X63167290Y-55892836D01*
X63025065Y-55893331D01*
X62893715Y-55893865D01*
X62774104Y-55894434D01*
X62667097Y-55895035D01*
X62573559Y-55895663D01*
X62494354Y-55896316D01*
X62430347Y-55896989D01*
X62382402Y-55897680D01*
X62351385Y-55898384D01*
X62338159Y-55899099D01*
X62337858Y-55899167D01*
X62328678Y-55902383D01*
X62323997Y-55905458D01*
X62325533Y-55908902D01*
X62335002Y-55913219D01*
X62354118Y-55918917D01*
X62384600Y-55926503D01*
X62428162Y-55936484D01*
X62486521Y-55949367D01*
X62561393Y-55965657D01*
X62567404Y-55966962D01*
X62640356Y-55982792D01*
X62716845Y-55999392D01*
X62791826Y-56015666D01*
X62860257Y-56030521D01*
X62917092Y-56042861D01*
X62932805Y-56046273D01*
X62993577Y-56059457D01*
X63059054Y-56073640D01*
X63121900Y-56087233D01*
X63174784Y-56098649D01*
X63181089Y-56100008D01*
X63215753Y-56107497D01*
X63265811Y-56118339D01*
X63328315Y-56131895D01*
X63400316Y-56147525D01*
X63478865Y-56164588D01*
X63561015Y-56182445D01*
X63630813Y-56197627D01*
X63719040Y-56216820D01*
X63810804Y-56236779D01*
X63902216Y-56256658D01*
X63989388Y-56275611D01*
X64068429Y-56292793D01*
X64135449Y-56307358D01*
X64169544Y-56314765D01*
X64236287Y-56329271D01*
X64315847Y-56346578D01*
X64402699Y-56365484D01*
X64491321Y-56384785D01*
X64576186Y-56403279D01*
X64619267Y-56412672D01*
X64684712Y-56426942D01*
X64747225Y-56440561D01*
X64808638Y-56453930D01*
X64870787Y-56467444D01*
X64935505Y-56481501D01*
X65004626Y-56496500D01*
X65079984Y-56512838D01*
X65163413Y-56530913D01*
X65256748Y-56551122D01*
X65361821Y-56573863D01*
X65480467Y-56599533D01*
X65614520Y-56628531D01*
X65703719Y-56647824D01*
X66151062Y-56744577D01*
X66151100Y-57108481D01*
X66151137Y-57472384D01*
X64798562Y-57472384D01*
X64623438Y-57472447D01*
X64456443Y-57472632D01*
X64298439Y-57472933D01*
X64150289Y-57473344D01*
X64012857Y-57473860D01*
X63887005Y-57474476D01*
X63773597Y-57475186D01*
X63673495Y-57475984D01*
X63587562Y-57476864D01*
X63516662Y-57477822D01*
X63461658Y-57478851D01*
X63423412Y-57479946D01*
X63402788Y-57481101D01*
X63400203Y-57481451D01*
X63366417Y-57489384D01*
X63335438Y-57498644D01*
X63326313Y-57502032D01*
X63317349Y-57506377D01*
X63314578Y-57510648D01*
X63319988Y-57515705D01*
X63335569Y-57522406D01*
X63363312Y-57531608D01*
X63405205Y-57544171D01*
X63462167Y-57560645D01*
X63516127Y-57576124D01*
X63586472Y-57596267D01*
X63671510Y-57620592D01*
X63769549Y-57648616D01*
X63878899Y-57679858D01*
X63997867Y-57713833D01*
X64124762Y-57750060D01*
X64257891Y-57788057D01*
X64395564Y-57827339D01*
X64536088Y-57867426D01*
X64677772Y-57907834D01*
X64818925Y-57948080D01*
X64957854Y-57987683D01*
X65092868Y-58026159D01*
X65222276Y-58063027D01*
X65344385Y-58097802D01*
X65457504Y-58130004D01*
X65559941Y-58159148D01*
X65626460Y-58178062D01*
X65721644Y-58205133D01*
X65811288Y-58230660D01*
X65893785Y-58254184D01*
X65967530Y-58275244D01*
X66030915Y-58293381D01*
X66082336Y-58308136D01*
X66120185Y-58319048D01*
X66142856Y-58325660D01*
X66148989Y-58327546D01*
X66150796Y-58337293D01*
X66154404Y-58363585D01*
X66159455Y-58403557D01*
X66165590Y-58454346D01*
X66172451Y-58513089D01*
X66174771Y-58533363D01*
X66182021Y-58597035D01*
X66188790Y-58656482D01*
X66194667Y-58708105D01*
X66199243Y-58748301D01*
X66202109Y-58773471D01*
X66202462Y-58776577D01*
X66205335Y-58801601D01*
X66209846Y-58840626D01*
X66215369Y-58888258D01*
X66221126Y-58937769D01*
X66224616Y-58967999D01*
X66230087Y-59015724D01*
X66237321Y-59079036D01*
X66246102Y-59156026D01*
X66256212Y-59244785D01*
X66267433Y-59343405D01*
X66279549Y-59449978D01*
X66292342Y-59562594D01*
X66305594Y-59679346D01*
X66314561Y-59758384D01*
X66341316Y-59994301D01*
X66365959Y-60211583D01*
X66388576Y-60410996D01*
X66409255Y-60593309D01*
X66428082Y-60759288D01*
X66445144Y-60909703D01*
X66460530Y-61045319D01*
X66474325Y-61166905D01*
X66486618Y-61275229D01*
X66497495Y-61371058D01*
X66507043Y-61455159D01*
X66515350Y-61528300D01*
X66522502Y-61591249D01*
X66528588Y-61644773D01*
X66533694Y-61689641D01*
X66537907Y-61726618D01*
X66541314Y-61756474D01*
X66544003Y-61779976D01*
X66546060Y-61797890D01*
X66547574Y-61810986D01*
X66548630Y-61820030D01*
X66549171Y-61824577D01*
X66551611Y-61845426D01*
X66556036Y-61883821D01*
X66562283Y-61938315D01*
X66570185Y-62007459D01*
X66579580Y-62089806D01*
X66590303Y-62183907D01*
X66602189Y-62288314D01*
X66615074Y-62401578D01*
X66628794Y-62522253D01*
X66643185Y-62648889D01*
X66658082Y-62780038D01*
X66673321Y-62914253D01*
X66688738Y-63050085D01*
X66704168Y-63186086D01*
X66719447Y-63320809D01*
X66734411Y-63452804D01*
X66748895Y-63580624D01*
X66762735Y-63702820D01*
X66775767Y-63817945D01*
X66787827Y-63924551D01*
X66798749Y-64021188D01*
X66808371Y-64106410D01*
X66816527Y-64178768D01*
X66823053Y-64236814D01*
X66827785Y-64279099D01*
X66830559Y-64304177D01*
X66831169Y-64309905D01*
X66835491Y-64346953D01*
X66840272Y-64379359D01*
X66843698Y-64396698D01*
X66848059Y-64410621D01*
X66852427Y-64410447D01*
X66859400Y-64394378D01*
X66863543Y-64382985D01*
X66864690Y-64377953D01*
X66865775Y-64369063D01*
X66866799Y-64355776D01*
X66867765Y-64337555D01*
X66868674Y-64313859D01*
X66869529Y-64284150D01*
X66870332Y-64247891D01*
X66871086Y-64204540D01*
X66871791Y-64153561D01*
X66872450Y-64094414D01*
X66873066Y-64026561D01*
X66873640Y-63949462D01*
X66874174Y-63862580D01*
X66874671Y-63765374D01*
X66875133Y-63657307D01*
X66875561Y-63537840D01*
X66875958Y-63406434D01*
X66876326Y-63262551D01*
X66876667Y-63105651D01*
X66876982Y-62935196D01*
X66877275Y-62750646D01*
X66877547Y-62551465D01*
X66877801Y-62337111D01*
X66878038Y-62107048D01*
X66878260Y-61860736D01*
X66878470Y-61597636D01*
X66878669Y-61317209D01*
X66878860Y-61018918D01*
X66879045Y-60702222D01*
X66879226Y-60366584D01*
X66879245Y-60329884D01*
X66881319Y-56314731D01*
X66758657Y-56197500D01*
X66708503Y-56149830D01*
X66653270Y-56097765D01*
X66598460Y-56046469D01*
X66549582Y-56001103D01*
X66532100Y-55985019D01*
X66428204Y-55889769D01*
X64394743Y-55890743D01*
X64394743Y-55890743D01*
G37*
X64394743Y-55890743D02*
X64200601Y-55890870D01*
X64011282Y-55891060D01*
X63827650Y-55891310D01*
X63650571Y-55891616D01*
X63480908Y-55891974D01*
X63319526Y-55892382D01*
X63167290Y-55892836D01*
X63025065Y-55893331D01*
X62893715Y-55893865D01*
X62774104Y-55894434D01*
X62667097Y-55895035D01*
X62573559Y-55895663D01*
X62494354Y-55896316D01*
X62430347Y-55896989D01*
X62382402Y-55897680D01*
X62351385Y-55898384D01*
X62338159Y-55899099D01*
X62337858Y-55899167D01*
X62328678Y-55902383D01*
X62323997Y-55905458D01*
X62325533Y-55908902D01*
X62335002Y-55913219D01*
X62354118Y-55918917D01*
X62384600Y-55926503D01*
X62428162Y-55936484D01*
X62486521Y-55949367D01*
X62561393Y-55965657D01*
X62567404Y-55966962D01*
X62640356Y-55982792D01*
X62716845Y-55999392D01*
X62791826Y-56015666D01*
X62860257Y-56030521D01*
X62917092Y-56042861D01*
X62932805Y-56046273D01*
X62993577Y-56059457D01*
X63059054Y-56073640D01*
X63121900Y-56087233D01*
X63174784Y-56098649D01*
X63181089Y-56100008D01*
X63215753Y-56107497D01*
X63265811Y-56118339D01*
X63328315Y-56131895D01*
X63400316Y-56147525D01*
X63478865Y-56164588D01*
X63561015Y-56182445D01*
X63630813Y-56197627D01*
X63719040Y-56216820D01*
X63810804Y-56236779D01*
X63902216Y-56256658D01*
X63989388Y-56275611D01*
X64068429Y-56292793D01*
X64135449Y-56307358D01*
X64169544Y-56314765D01*
X64236287Y-56329271D01*
X64315847Y-56346578D01*
X64402699Y-56365484D01*
X64491321Y-56384785D01*
X64576186Y-56403279D01*
X64619267Y-56412672D01*
X64684712Y-56426942D01*
X64747225Y-56440561D01*
X64808638Y-56453930D01*
X64870787Y-56467444D01*
X64935505Y-56481501D01*
X65004626Y-56496500D01*
X65079984Y-56512838D01*
X65163413Y-56530913D01*
X65256748Y-56551122D01*
X65361821Y-56573863D01*
X65480467Y-56599533D01*
X65614520Y-56628531D01*
X65703719Y-56647824D01*
X66151062Y-56744577D01*
X66151100Y-57108481D01*
X66151137Y-57472384D01*
X64798562Y-57472384D01*
X64623438Y-57472447D01*
X64456443Y-57472632D01*
X64298439Y-57472933D01*
X64150289Y-57473344D01*
X64012857Y-57473860D01*
X63887005Y-57474476D01*
X63773597Y-57475186D01*
X63673495Y-57475984D01*
X63587562Y-57476864D01*
X63516662Y-57477822D01*
X63461658Y-57478851D01*
X63423412Y-57479946D01*
X63402788Y-57481101D01*
X63400203Y-57481451D01*
X63366417Y-57489384D01*
X63335438Y-57498644D01*
X63326313Y-57502032D01*
X63317349Y-57506377D01*
X63314578Y-57510648D01*
X63319988Y-57515705D01*
X63335569Y-57522406D01*
X63363312Y-57531608D01*
X63405205Y-57544171D01*
X63462167Y-57560645D01*
X63516127Y-57576124D01*
X63586472Y-57596267D01*
X63671510Y-57620592D01*
X63769549Y-57648616D01*
X63878899Y-57679858D01*
X63997867Y-57713833D01*
X64124762Y-57750060D01*
X64257891Y-57788057D01*
X64395564Y-57827339D01*
X64536088Y-57867426D01*
X64677772Y-57907834D01*
X64818925Y-57948080D01*
X64957854Y-57987683D01*
X65092868Y-58026159D01*
X65222276Y-58063027D01*
X65344385Y-58097802D01*
X65457504Y-58130004D01*
X65559941Y-58159148D01*
X65626460Y-58178062D01*
X65721644Y-58205133D01*
X65811288Y-58230660D01*
X65893785Y-58254184D01*
X65967530Y-58275244D01*
X66030915Y-58293381D01*
X66082336Y-58308136D01*
X66120185Y-58319048D01*
X66142856Y-58325660D01*
X66148989Y-58327546D01*
X66150796Y-58337293D01*
X66154404Y-58363585D01*
X66159455Y-58403557D01*
X66165590Y-58454346D01*
X66172451Y-58513089D01*
X66174771Y-58533363D01*
X66182021Y-58597035D01*
X66188790Y-58656482D01*
X66194667Y-58708105D01*
X66199243Y-58748301D01*
X66202109Y-58773471D01*
X66202462Y-58776577D01*
X66205335Y-58801601D01*
X66209846Y-58840626D01*
X66215369Y-58888258D01*
X66221126Y-58937769D01*
X66224616Y-58967999D01*
X66230087Y-59015724D01*
X66237321Y-59079036D01*
X66246102Y-59156026D01*
X66256212Y-59244785D01*
X66267433Y-59343405D01*
X66279549Y-59449978D01*
X66292342Y-59562594D01*
X66305594Y-59679346D01*
X66314561Y-59758384D01*
X66341316Y-59994301D01*
X66365959Y-60211583D01*
X66388576Y-60410996D01*
X66409255Y-60593309D01*
X66428082Y-60759288D01*
X66445144Y-60909703D01*
X66460530Y-61045319D01*
X66474325Y-61166905D01*
X66486618Y-61275229D01*
X66497495Y-61371058D01*
X66507043Y-61455159D01*
X66515350Y-61528300D01*
X66522502Y-61591249D01*
X66528588Y-61644773D01*
X66533694Y-61689641D01*
X66537907Y-61726618D01*
X66541314Y-61756474D01*
X66544003Y-61779976D01*
X66546060Y-61797890D01*
X66547574Y-61810986D01*
X66548630Y-61820030D01*
X66549171Y-61824577D01*
X66551611Y-61845426D01*
X66556036Y-61883821D01*
X66562283Y-61938315D01*
X66570185Y-62007459D01*
X66579580Y-62089806D01*
X66590303Y-62183907D01*
X66602189Y-62288314D01*
X66615074Y-62401578D01*
X66628794Y-62522253D01*
X66643185Y-62648889D01*
X66658082Y-62780038D01*
X66673321Y-62914253D01*
X66688738Y-63050085D01*
X66704168Y-63186086D01*
X66719447Y-63320809D01*
X66734411Y-63452804D01*
X66748895Y-63580624D01*
X66762735Y-63702820D01*
X66775767Y-63817945D01*
X66787827Y-63924551D01*
X66798749Y-64021188D01*
X66808371Y-64106410D01*
X66816527Y-64178768D01*
X66823053Y-64236814D01*
X66827785Y-64279099D01*
X66830559Y-64304177D01*
X66831169Y-64309905D01*
X66835491Y-64346953D01*
X66840272Y-64379359D01*
X66843698Y-64396698D01*
X66848059Y-64410621D01*
X66852427Y-64410447D01*
X66859400Y-64394378D01*
X66863543Y-64382985D01*
X66864690Y-64377953D01*
X66865775Y-64369063D01*
X66866799Y-64355776D01*
X66867765Y-64337555D01*
X66868674Y-64313859D01*
X66869529Y-64284150D01*
X66870332Y-64247891D01*
X66871086Y-64204540D01*
X66871791Y-64153561D01*
X66872450Y-64094414D01*
X66873066Y-64026561D01*
X66873640Y-63949462D01*
X66874174Y-63862580D01*
X66874671Y-63765374D01*
X66875133Y-63657307D01*
X66875561Y-63537840D01*
X66875958Y-63406434D01*
X66876326Y-63262551D01*
X66876667Y-63105651D01*
X66876982Y-62935196D01*
X66877275Y-62750646D01*
X66877547Y-62551465D01*
X66877801Y-62337111D01*
X66878038Y-62107048D01*
X66878260Y-61860736D01*
X66878470Y-61597636D01*
X66878669Y-61317209D01*
X66878860Y-61018918D01*
X66879045Y-60702222D01*
X66879226Y-60366584D01*
X66879245Y-60329884D01*
X66881319Y-56314731D01*
X66758657Y-56197500D01*
X66708503Y-56149830D01*
X66653270Y-56097765D01*
X66598460Y-56046469D01*
X66549582Y-56001103D01*
X66532100Y-55985019D01*
X66428204Y-55889769D01*
X64394743Y-55890743D01*
G36*
X67719231Y-55960464D02*
X67688832Y-55986725D01*
X67648282Y-56022860D01*
X67601244Y-56065542D01*
X67551384Y-56111448D01*
X67503096Y-56156565D01*
X67359769Y-56291593D01*
X67359914Y-60279239D01*
X67360060Y-64266884D01*
X67382669Y-64349923D01*
X67392567Y-64384069D01*
X67400421Y-64406992D01*
X67405124Y-64415677D01*
X67405963Y-64413423D01*
X67407045Y-64401807D01*
X67410017Y-64372499D01*
X67414695Y-64327225D01*
X67420896Y-64267712D01*
X67428438Y-64195686D01*
X67437137Y-64112873D01*
X67446811Y-64021001D01*
X67457278Y-63921796D01*
X67468353Y-63816983D01*
X67479855Y-63708290D01*
X67491600Y-63597443D01*
X67503405Y-63486168D01*
X67515089Y-63376192D01*
X67526467Y-63269242D01*
X67537357Y-63167043D01*
X67547577Y-63071323D01*
X67556942Y-62983807D01*
X67565271Y-62906222D01*
X67572381Y-62840295D01*
X67578088Y-62787752D01*
X67579792Y-62772192D01*
X67582149Y-62750407D01*
X67586261Y-62712026D01*
X67591827Y-62659873D01*
X67598548Y-62596770D01*
X67606122Y-62525543D01*
X67614248Y-62449015D01*
X67617791Y-62415615D01*
X67626012Y-62338271D01*
X67633778Y-62265548D01*
X67640797Y-62200161D01*
X67646775Y-62144829D01*
X67651419Y-62102267D01*
X67654437Y-62075193D01*
X67655184Y-62068807D01*
X67656744Y-62054793D01*
X67660254Y-62022443D01*
X67665599Y-61972844D01*
X67672662Y-61907079D01*
X67681327Y-61826232D01*
X67691478Y-61731389D01*
X67703001Y-61623634D01*
X67715777Y-61504052D01*
X67729693Y-61373727D01*
X67744632Y-61233744D01*
X67760477Y-61085186D01*
X67777114Y-60929140D01*
X67794425Y-60766689D01*
X67812296Y-60598918D01*
X67819099Y-60535038D01*
X67837148Y-60365557D01*
X67854678Y-60200990D01*
X67871574Y-60042422D01*
X67887719Y-59890938D01*
X67902999Y-59747621D01*
X67917297Y-59613558D01*
X67930497Y-59489832D01*
X67942485Y-59377527D01*
X67953143Y-59277729D01*
X67962357Y-59191522D01*
X67970011Y-59119991D01*
X67975988Y-59064219D01*
X67980174Y-59025292D01*
X67982451Y-59004295D01*
X67982790Y-59001269D01*
X67984736Y-58983678D01*
X67988510Y-58948805D01*
X67993883Y-58898789D01*
X68000626Y-58835770D01*
X68008512Y-58761887D01*
X68017310Y-58679278D01*
X68026793Y-58590083D01*
X68034991Y-58512863D01*
X68044716Y-58421477D01*
X68053843Y-58336273D01*
X68062162Y-58259167D01*
X68069463Y-58192080D01*
X68075536Y-58136929D01*
X68080173Y-58095634D01*
X68083162Y-58070113D01*
X68084270Y-58062216D01*
X68093262Y-58059282D01*
X68119174Y-58051009D01*
X68160993Y-58037717D01*
X68217702Y-58019728D01*
X68288289Y-57997363D01*
X68371738Y-57970942D01*
X68467035Y-57940787D01*
X68573166Y-57907219D01*
X68689115Y-57870558D01*
X68813869Y-57831126D01*
X68946413Y-57789243D01*
X69085733Y-57745231D01*
X69230813Y-57699410D01*
X69346047Y-57663023D01*
X69495012Y-57615955D01*
X69639072Y-57570369D01*
X69777206Y-57526592D01*
X69908392Y-57484949D01*
X70031610Y-57445768D01*
X70145839Y-57409374D01*
X70250056Y-57376095D01*
X70343241Y-57346256D01*
X70424373Y-57320184D01*
X70492431Y-57298205D01*
X70546393Y-57280647D01*
X70585238Y-57267834D01*
X70607945Y-57260094D01*
X70613783Y-57257803D01*
X70611036Y-57249558D01*
X70595244Y-57237376D01*
X70585675Y-57231980D01*
X70579996Y-57229321D01*
X70573107Y-57226922D01*
X70564037Y-57224766D01*
X70551816Y-57222835D01*
X70535475Y-57221110D01*
X70514043Y-57219574D01*
X70486550Y-57218210D01*
X70452027Y-57216998D01*
X70409503Y-57215922D01*
X70358008Y-57214963D01*
X70296572Y-57214104D01*
X70224225Y-57213326D01*
X70139998Y-57212612D01*
X70042919Y-57211944D01*
X69932020Y-57211304D01*
X69806329Y-57210674D01*
X69664878Y-57210036D01*
X69506695Y-57209373D01*
X69330811Y-57208666D01*
X69317939Y-57208615D01*
X68085885Y-57203731D01*
X68083368Y-56981906D01*
X68080850Y-56760082D01*
X68116160Y-56750275D01*
X68132977Y-56745898D01*
X68165834Y-56737610D01*
X68212529Y-56725957D01*
X68270856Y-56711487D01*
X68338613Y-56694744D01*
X68413595Y-56676277D01*
X68493598Y-56656631D01*
X68512185Y-56652074D01*
X68793281Y-56583181D01*
X69056667Y-56518603D01*
X69302882Y-56458205D01*
X69532463Y-56401855D01*
X69745947Y-56349416D01*
X69943870Y-56300755D01*
X70126771Y-56255738D01*
X70295187Y-56214230D01*
X70449654Y-56176098D01*
X70590710Y-56141205D01*
X70718892Y-56109420D01*
X70834738Y-56080606D01*
X70938785Y-56054630D01*
X71031569Y-56031358D01*
X71113629Y-56010655D01*
X71185501Y-55992386D01*
X71247723Y-55976418D01*
X71300831Y-55962617D01*
X71345364Y-55950847D01*
X71381858Y-55940975D01*
X71410850Y-55932866D01*
X71432879Y-55926386D01*
X71448480Y-55921401D01*
X71458192Y-55917776D01*
X71462551Y-55915377D01*
X71462779Y-55914423D01*
X71452595Y-55913042D01*
X71424712Y-55911739D01*
X71379054Y-55910513D01*
X71315540Y-55909364D01*
X71234092Y-55908292D01*
X71134632Y-55907296D01*
X71017081Y-55906375D01*
X70881360Y-55905528D01*
X70727390Y-55904756D01*
X70555093Y-55904058D01*
X70364391Y-55903432D01*
X70155204Y-55902880D01*
X69927454Y-55902399D01*
X69681062Y-55901990D01*
X69622614Y-55901908D01*
X67792039Y-55899393D01*
X67719231Y-55960464D01*
X67719231Y-55960464D01*
G37*
X67719231Y-55960464D02*
X67688832Y-55986725D01*
X67648282Y-56022860D01*
X67601244Y-56065542D01*
X67551384Y-56111448D01*
X67503096Y-56156565D01*
X67359769Y-56291593D01*
X67359914Y-60279239D01*
X67360060Y-64266884D01*
X67382669Y-64349923D01*
X67392567Y-64384069D01*
X67400421Y-64406992D01*
X67405124Y-64415677D01*
X67405963Y-64413423D01*
X67407045Y-64401807D01*
X67410017Y-64372499D01*
X67414695Y-64327225D01*
X67420896Y-64267712D01*
X67428438Y-64195686D01*
X67437137Y-64112873D01*
X67446811Y-64021001D01*
X67457278Y-63921796D01*
X67468353Y-63816983D01*
X67479855Y-63708290D01*
X67491600Y-63597443D01*
X67503405Y-63486168D01*
X67515089Y-63376192D01*
X67526467Y-63269242D01*
X67537357Y-63167043D01*
X67547577Y-63071323D01*
X67556942Y-62983807D01*
X67565271Y-62906222D01*
X67572381Y-62840295D01*
X67578088Y-62787752D01*
X67579792Y-62772192D01*
X67582149Y-62750407D01*
X67586261Y-62712026D01*
X67591827Y-62659873D01*
X67598548Y-62596770D01*
X67606122Y-62525543D01*
X67614248Y-62449015D01*
X67617791Y-62415615D01*
X67626012Y-62338271D01*
X67633778Y-62265548D01*
X67640797Y-62200161D01*
X67646775Y-62144829D01*
X67651419Y-62102267D01*
X67654437Y-62075193D01*
X67655184Y-62068807D01*
X67656744Y-62054793D01*
X67660254Y-62022443D01*
X67665599Y-61972844D01*
X67672662Y-61907079D01*
X67681327Y-61826232D01*
X67691478Y-61731389D01*
X67703001Y-61623634D01*
X67715777Y-61504052D01*
X67729693Y-61373727D01*
X67744632Y-61233744D01*
X67760477Y-61085186D01*
X67777114Y-60929140D01*
X67794425Y-60766689D01*
X67812296Y-60598918D01*
X67819099Y-60535038D01*
X67837148Y-60365557D01*
X67854678Y-60200990D01*
X67871574Y-60042422D01*
X67887719Y-59890938D01*
X67902999Y-59747621D01*
X67917297Y-59613558D01*
X67930497Y-59489832D01*
X67942485Y-59377527D01*
X67953143Y-59277729D01*
X67962357Y-59191522D01*
X67970011Y-59119991D01*
X67975988Y-59064219D01*
X67980174Y-59025292D01*
X67982451Y-59004295D01*
X67982790Y-59001269D01*
X67984736Y-58983678D01*
X67988510Y-58948805D01*
X67993883Y-58898789D01*
X68000626Y-58835770D01*
X68008512Y-58761887D01*
X68017310Y-58679278D01*
X68026793Y-58590083D01*
X68034991Y-58512863D01*
X68044716Y-58421477D01*
X68053843Y-58336273D01*
X68062162Y-58259167D01*
X68069463Y-58192080D01*
X68075536Y-58136929D01*
X68080173Y-58095634D01*
X68083162Y-58070113D01*
X68084270Y-58062216D01*
X68093262Y-58059282D01*
X68119174Y-58051009D01*
X68160993Y-58037717D01*
X68217702Y-58019728D01*
X68288289Y-57997363D01*
X68371738Y-57970942D01*
X68467035Y-57940787D01*
X68573166Y-57907219D01*
X68689115Y-57870558D01*
X68813869Y-57831126D01*
X68946413Y-57789243D01*
X69085733Y-57745231D01*
X69230813Y-57699410D01*
X69346047Y-57663023D01*
X69495012Y-57615955D01*
X69639072Y-57570369D01*
X69777206Y-57526592D01*
X69908392Y-57484949D01*
X70031610Y-57445768D01*
X70145839Y-57409374D01*
X70250056Y-57376095D01*
X70343241Y-57346256D01*
X70424373Y-57320184D01*
X70492431Y-57298205D01*
X70546393Y-57280647D01*
X70585238Y-57267834D01*
X70607945Y-57260094D01*
X70613783Y-57257803D01*
X70611036Y-57249558D01*
X70595244Y-57237376D01*
X70585675Y-57231980D01*
X70579996Y-57229321D01*
X70573107Y-57226922D01*
X70564037Y-57224766D01*
X70551816Y-57222835D01*
X70535475Y-57221110D01*
X70514043Y-57219574D01*
X70486550Y-57218210D01*
X70452027Y-57216998D01*
X70409503Y-57215922D01*
X70358008Y-57214963D01*
X70296572Y-57214104D01*
X70224225Y-57213326D01*
X70139998Y-57212612D01*
X70042919Y-57211944D01*
X69932020Y-57211304D01*
X69806329Y-57210674D01*
X69664878Y-57210036D01*
X69506695Y-57209373D01*
X69330811Y-57208666D01*
X69317939Y-57208615D01*
X68085885Y-57203731D01*
X68083368Y-56981906D01*
X68080850Y-56760082D01*
X68116160Y-56750275D01*
X68132977Y-56745898D01*
X68165834Y-56737610D01*
X68212529Y-56725957D01*
X68270856Y-56711487D01*
X68338613Y-56694744D01*
X68413595Y-56676277D01*
X68493598Y-56656631D01*
X68512185Y-56652074D01*
X68793281Y-56583181D01*
X69056667Y-56518603D01*
X69302882Y-56458205D01*
X69532463Y-56401855D01*
X69745947Y-56349416D01*
X69943870Y-56300755D01*
X70126771Y-56255738D01*
X70295187Y-56214230D01*
X70449654Y-56176098D01*
X70590710Y-56141205D01*
X70718892Y-56109420D01*
X70834738Y-56080606D01*
X70938785Y-56054630D01*
X71031569Y-56031358D01*
X71113629Y-56010655D01*
X71185501Y-55992386D01*
X71247723Y-55976418D01*
X71300831Y-55962617D01*
X71345364Y-55950847D01*
X71381858Y-55940975D01*
X71410850Y-55932866D01*
X71432879Y-55926386D01*
X71448480Y-55921401D01*
X71458192Y-55917776D01*
X71462551Y-55915377D01*
X71462779Y-55914423D01*
X71452595Y-55913042D01*
X71424712Y-55911739D01*
X71379054Y-55910513D01*
X71315540Y-55909364D01*
X71234092Y-55908292D01*
X71134632Y-55907296D01*
X71017081Y-55906375D01*
X70881360Y-55905528D01*
X70727390Y-55904756D01*
X70555093Y-55904058D01*
X70364391Y-55903432D01*
X70155204Y-55902880D01*
X69927454Y-55902399D01*
X69681062Y-55901990D01*
X69622614Y-55901908D01*
X67792039Y-55899393D01*
X67719231Y-55960464D01*
G04 #@! TD*
M02*
